%TF.GenerationSoftware,KiCad,Pcbnew,(5.1.10)-1*%
%TF.CreationDate,2022-03-08T12:45:45-05:00*%
%TF.ProjectId,PCBProjet,50434250-726f-46a6-9574-2e6b69636164,rev?*%
%TF.SameCoordinates,Original*%
%TF.FileFunction,Copper,L2,Bot*%
%TF.FilePolarity,Positive*%
%FSLAX46Y46*%
G04 Gerber Fmt 4.6, Leading zero omitted, Abs format (unit mm)*
G04 Created by KiCad (PCBNEW (5.1.10)-1) date 2022-03-08 12:45:45*
%MOMM*%
%LPD*%
G01*
G04 APERTURE LIST*
%TA.AperFunction,ComponentPad*%
%ADD10O,1.700000X1.700000*%
%TD*%
%TA.AperFunction,ComponentPad*%
%ADD11R,1.700000X1.700000*%
%TD*%
%TA.AperFunction,ComponentPad*%
%ADD12C,3.000000*%
%TD*%
%TA.AperFunction,ComponentPad*%
%ADD13R,3.000000X3.000000*%
%TD*%
%TA.AperFunction,ViaPad*%
%ADD14C,5.500000*%
%TD*%
%TA.AperFunction,ViaPad*%
%ADD15C,0.800000*%
%TD*%
%TA.AperFunction,Conductor*%
%ADD16C,0.250000*%
%TD*%
%TA.AperFunction,Conductor*%
%ADD17C,0.254000*%
%TD*%
%TA.AperFunction,Conductor*%
%ADD18C,0.100000*%
%TD*%
G04 APERTURE END LIST*
D10*
%TO.P,1W_Conn4,3*%
%TO.N,/GND*%
X159500000Y-88730000D03*
%TO.P,1W_Conn4,2*%
%TO.N,/GPIO*%
X159500000Y-86190000D03*
D11*
%TO.P,1W_Conn4,1*%
%TO.N,/3V3*%
X159500000Y-83650000D03*
%TD*%
D10*
%TO.P,1W_Conn3,3*%
%TO.N,/GND*%
X151750000Y-83620000D03*
%TO.P,1W_Conn3,2*%
%TO.N,/GPIO*%
X151750000Y-86160000D03*
D11*
%TO.P,1W_Conn3,1*%
%TO.N,/3V3*%
X151750000Y-88700000D03*
%TD*%
D10*
%TO.P,1W_Conn2,3*%
%TO.N,/GND*%
X131750000Y-88680000D03*
%TO.P,1W_Conn2,2*%
%TO.N,/GPIO*%
X131750000Y-86140000D03*
D11*
%TO.P,1W_Conn2,1*%
%TO.N,/3V3*%
X131750000Y-83600000D03*
%TD*%
D10*
%TO.P,1W_Conn1,3*%
%TO.N,/GND*%
X124250000Y-83570000D03*
%TO.P,1W_Conn1,2*%
%TO.N,/GPIO*%
X124250000Y-86110000D03*
D11*
%TO.P,1W_Conn1,1*%
%TO.N,/3V3*%
X124250000Y-88650000D03*
%TD*%
D12*
%TO.P,1Wire_Bornier2,3*%
%TO.N,/GND*%
X147110000Y-123900000D03*
%TO.P,1Wire_Bornier2,2*%
%TO.N,/GPIO*%
X142030000Y-123900000D03*
D13*
%TO.P,1Wire_Bornier2,1*%
%TO.N,/3V3*%
X136950000Y-123900000D03*
%TD*%
D12*
%TO.P,1Wire_Bornier4,3*%
%TO.N,/GND*%
X146960000Y-96300000D03*
%TO.P,1Wire_Bornier4,2*%
%TO.N,/GPIO*%
X141880000Y-96300000D03*
D13*
%TO.P,1Wire_Bornier4,1*%
%TO.N,/3V3*%
X136800000Y-96300000D03*
%TD*%
D12*
%TO.P,1Wire_Bornier3,3*%
%TO.N,/GND*%
X163310000Y-123900000D03*
%TO.P,1Wire_Bornier3,2*%
%TO.N,/GPIO*%
X158230000Y-123900000D03*
D13*
%TO.P,1Wire_Bornier3,1*%
%TO.N,/3V3*%
X153150000Y-123900000D03*
%TD*%
D12*
%TO.P,1Wire_Bornier1,3*%
%TO.N,/GND*%
X130860000Y-123900000D03*
%TO.P,1Wire_Bornier1,2*%
%TO.N,/GPIO*%
X125780000Y-123900000D03*
D13*
%TO.P,1Wire_Bornier1,1*%
%TO.N,/3V3*%
X120700000Y-123900000D03*
%TD*%
D12*
%TO.P,I2C_Bornier4,4*%
%TO.N,/3V3*%
X170350000Y-82460000D03*
D13*
%TO.P,I2C_Bornier4,1*%
%TO.N,/SCL*%
X170350000Y-97700000D03*
D12*
%TO.P,I2C_Bornier4,3*%
%TO.N,/GND*%
X170350000Y-87540000D03*
%TO.P,I2C_Bornier4,2*%
%TO.N,/SDA*%
X170350000Y-92620000D03*
%TD*%
%TO.P,I2C_Bornier3,4*%
%TO.N,/3V3*%
X170350000Y-103410000D03*
D13*
%TO.P,I2C_Bornier3,1*%
%TO.N,/SCL*%
X170350000Y-118650000D03*
D12*
%TO.P,I2C_Bornier3,3*%
%TO.N,/GND*%
X170350000Y-108490000D03*
%TO.P,I2C_Bornier3,2*%
%TO.N,/SDA*%
X170350000Y-113570000D03*
%TD*%
%TO.P,I2C_Bornier2,4*%
%TO.N,/3V3*%
X113600000Y-118590000D03*
D13*
%TO.P,I2C_Bornier2,1*%
%TO.N,/SCL*%
X113600000Y-103350000D03*
D12*
%TO.P,I2C_Bornier2,3*%
%TO.N,/GND*%
X113600000Y-113510000D03*
%TO.P,I2C_Bornier2,2*%
%TO.N,/SDA*%
X113600000Y-108430000D03*
%TD*%
%TO.P,I2C_Bornier1,4*%
%TO.N,/3V3*%
X113600000Y-97650000D03*
D13*
%TO.P,I2C_Bornier1,1*%
%TO.N,/SCL*%
X113600000Y-82410000D03*
D12*
%TO.P,I2C_Bornier1,3*%
%TO.N,/GND*%
X113600000Y-92570000D03*
%TO.P,I2C_Bornier1,2*%
%TO.N,/SDA*%
X113600000Y-87490000D03*
%TD*%
D11*
%TO.P,RaspPi_Conn,1*%
%TO.N,/3V3*%
X117870000Y-76770000D03*
D10*
%TO.P,RaspPi_Conn,2*%
%TO.N,Net-(J10-Pad2)*%
X117870000Y-74230000D03*
%TO.P,RaspPi_Conn,3*%
%TO.N,/SDA*%
X120410000Y-76770000D03*
%TO.P,RaspPi_Conn,4*%
%TO.N,Net-(J10-Pad4)*%
X120410000Y-74230000D03*
%TO.P,RaspPi_Conn,5*%
%TO.N,/SCL*%
X122950000Y-76770000D03*
%TO.P,RaspPi_Conn,6*%
%TO.N,/GND*%
X122950000Y-74230000D03*
%TO.P,RaspPi_Conn,7*%
%TO.N,/GPIO4*%
X125490000Y-76770000D03*
%TO.P,RaspPi_Conn,8*%
%TO.N,Net-(J10-Pad8)*%
X125490000Y-74230000D03*
%TO.P,RaspPi_Conn,9*%
%TO.N,Net-(J10-Pad9)*%
X128030000Y-76770000D03*
%TO.P,RaspPi_Conn,10*%
%TO.N,Net-(J10-Pad10)*%
X128030000Y-74230000D03*
%TO.P,RaspPi_Conn,11*%
%TO.N,Net-(J10-Pad11)*%
X130570000Y-76770000D03*
%TO.P,RaspPi_Conn,12*%
%TO.N,Net-(J10-Pad12)*%
X130570000Y-74230000D03*
%TO.P,RaspPi_Conn,13*%
%TO.N,Net-(J10-Pad13)*%
X133110000Y-76770000D03*
%TO.P,RaspPi_Conn,14*%
%TO.N,Net-(J10-Pad14)*%
X133110000Y-74230000D03*
%TO.P,RaspPi_Conn,15*%
%TO.N,Net-(J10-Pad15)*%
X135650000Y-76770000D03*
%TO.P,RaspPi_Conn,16*%
%TO.N,Net-(J10-Pad16)*%
X135650000Y-74230000D03*
%TO.P,RaspPi_Conn,17*%
%TO.N,/3V3*%
X138190000Y-76770000D03*
%TO.P,RaspPi_Conn,18*%
%TO.N,Net-(J10-Pad18)*%
X138190000Y-74230000D03*
%TO.P,RaspPi_Conn,19*%
%TO.N,Net-(J10-Pad19)*%
X140730000Y-76770000D03*
%TO.P,RaspPi_Conn,20*%
%TO.N,/GND*%
X140730000Y-74230000D03*
%TO.P,RaspPi_Conn,21*%
%TO.N,Net-(J10-Pad21)*%
X143270000Y-76770000D03*
%TO.P,RaspPi_Conn,22*%
%TO.N,Net-(J10-Pad22)*%
X143270000Y-74230000D03*
%TO.P,RaspPi_Conn,23*%
%TO.N,Net-(J10-Pad23)*%
X145810000Y-76770000D03*
%TO.P,RaspPi_Conn,24*%
%TO.N,Net-(J10-Pad24)*%
X145810000Y-74230000D03*
%TO.P,RaspPi_Conn,25*%
%TO.N,Net-(J10-Pad25)*%
X148350000Y-76770000D03*
%TO.P,RaspPi_Conn,26*%
%TO.N,Net-(J10-Pad26)*%
X148350000Y-74230000D03*
%TO.P,RaspPi_Conn,27*%
%TO.N,Net-(J10-Pad27)*%
X150890000Y-76770000D03*
%TO.P,RaspPi_Conn,28*%
%TO.N,Net-(J10-Pad28)*%
X150890000Y-74230000D03*
%TO.P,RaspPi_Conn,29*%
%TO.N,/GPIO5*%
X153430000Y-76770000D03*
%TO.P,RaspPi_Conn,30*%
%TO.N,Net-(J10-Pad30)*%
X153430000Y-74230000D03*
%TO.P,RaspPi_Conn,31*%
%TO.N,/GPIO6*%
X155970000Y-76770000D03*
%TO.P,RaspPi_Conn,32*%
%TO.N,Net-(J10-Pad32)*%
X155970000Y-74230000D03*
%TO.P,RaspPi_Conn,33*%
%TO.N,Net-(J10-Pad33)*%
X158510000Y-76770000D03*
%TO.P,RaspPi_Conn,34*%
%TO.N,/GND*%
X158510000Y-74230000D03*
%TO.P,RaspPi_Conn,35*%
%TO.N,Net-(J10-Pad35)*%
X161050000Y-76770000D03*
%TO.P,RaspPi_Conn,36*%
%TO.N,Net-(J10-Pad36)*%
X161050000Y-74230000D03*
%TO.P,RaspPi_Conn,37*%
%TO.N,Net-(J10-Pad37)*%
X163590000Y-76770000D03*
%TO.P,RaspPi_Conn,38*%
%TO.N,Net-(J10-Pad38)*%
X163590000Y-74230000D03*
%TO.P,RaspPi_Conn,39*%
%TO.N,Net-(J10-Pad39)*%
X166130000Y-76770000D03*
%TO.P,RaspPi_Conn,40*%
%TO.N,Net-(J10-Pad40)*%
X166130000Y-74230000D03*
%TD*%
D11*
%TO.P,GPIO_Conn,1*%
%TO.N,/GPIO4*%
X140850000Y-83600000D03*
D10*
%TO.P,GPIO_Conn,2*%
%TO.N,/GPIO*%
X143390000Y-83600000D03*
%TO.P,GPIO_Conn,3*%
%TO.N,/GPIO5*%
X140850000Y-86140000D03*
%TO.P,GPIO_Conn,4*%
%TO.N,/GPIO*%
X143390000Y-86140000D03*
%TO.P,GPIO_Conn,5*%
%TO.N,/GPIO6*%
X140850000Y-88680000D03*
%TO.P,GPIO_Conn,6*%
%TO.N,/GPIO*%
X143390000Y-88680000D03*
%TD*%
D11*
%TO.P,I2C_Conn1,1*%
%TO.N,/SCL*%
X123250000Y-114150000D03*
D10*
%TO.P,I2C_Conn1,2*%
%TO.N,/SDA*%
X123250000Y-111610000D03*
%TO.P,I2C_Conn1,3*%
%TO.N,/GND*%
X123250000Y-109070000D03*
%TO.P,I2C_Conn1,4*%
%TO.N,/3V3*%
X123250000Y-106530000D03*
%TD*%
D11*
%TO.P,I2C_Conn2,1*%
%TO.N,/SCL*%
X131100000Y-106550000D03*
D10*
%TO.P,I2C_Conn2,2*%
%TO.N,/SDA*%
X131100000Y-109090000D03*
%TO.P,I2C_Conn2,3*%
%TO.N,/GND*%
X131100000Y-111630000D03*
%TO.P,I2C_Conn2,4*%
%TO.N,/3V3*%
X131100000Y-114170000D03*
%TD*%
%TO.P,I2C_Conn3,4*%
%TO.N,/3V3*%
X152800000Y-106630000D03*
%TO.P,I2C_Conn3,3*%
%TO.N,/GND*%
X152800000Y-109170000D03*
%TO.P,I2C_Conn3,2*%
%TO.N,/SDA*%
X152800000Y-111710000D03*
D11*
%TO.P,I2C_Conn3,1*%
%TO.N,/SCL*%
X152800000Y-114250000D03*
%TD*%
D10*
%TO.P,I2C_Conn4,4*%
%TO.N,/3V3*%
X160650000Y-114270000D03*
%TO.P,I2C_Conn4,3*%
%TO.N,/GND*%
X160650000Y-111730000D03*
%TO.P,I2C_Conn4,2*%
%TO.N,/SDA*%
X160650000Y-109190000D03*
D11*
%TO.P,I2C_Conn4,1*%
%TO.N,/SCL*%
X160650000Y-106650000D03*
%TD*%
%TO.P,R1,1*%
%TO.N,/3V3*%
%TA.AperFunction,SMDPad,CuDef*%
G36*
G01*
X137850000Y-80049999D02*
X137850000Y-80950001D01*
G75*
G02*
X137600001Y-81200000I-249999J0D01*
G01*
X136899999Y-81200000D01*
G75*
G02*
X136650000Y-80950001I0J249999D01*
G01*
X136650000Y-80049999D01*
G75*
G02*
X136899999Y-79800000I249999J0D01*
G01*
X137600001Y-79800000D01*
G75*
G02*
X137850000Y-80049999I0J-249999D01*
G01*
G37*
%TD.AperFunction*%
%TO.P,R1,2*%
%TO.N,/SDA*%
%TA.AperFunction,SMDPad,CuDef*%
G36*
G01*
X135850000Y-80049999D02*
X135850000Y-80950001D01*
G75*
G02*
X135600001Y-81200000I-249999J0D01*
G01*
X134899999Y-81200000D01*
G75*
G02*
X134650000Y-80950001I0J249999D01*
G01*
X134650000Y-80049999D01*
G75*
G02*
X134899999Y-79800000I249999J0D01*
G01*
X135600001Y-79800000D01*
G75*
G02*
X135850000Y-80049999I0J-249999D01*
G01*
G37*
%TD.AperFunction*%
%TD*%
%TO.P,R2,2*%
%TO.N,/SCL*%
%TA.AperFunction,SMDPad,CuDef*%
G36*
G01*
X135850000Y-84549999D02*
X135850000Y-85450001D01*
G75*
G02*
X135600001Y-85700000I-249999J0D01*
G01*
X134899999Y-85700000D01*
G75*
G02*
X134650000Y-85450001I0J249999D01*
G01*
X134650000Y-84549999D01*
G75*
G02*
X134899999Y-84300000I249999J0D01*
G01*
X135600001Y-84300000D01*
G75*
G02*
X135850000Y-84549999I0J-249999D01*
G01*
G37*
%TD.AperFunction*%
%TO.P,R2,1*%
%TO.N,/3V3*%
%TA.AperFunction,SMDPad,CuDef*%
G36*
G01*
X137850000Y-84549999D02*
X137850000Y-85450001D01*
G75*
G02*
X137600001Y-85700000I-249999J0D01*
G01*
X136899999Y-85700000D01*
G75*
G02*
X136650000Y-85450001I0J249999D01*
G01*
X136650000Y-84549999D01*
G75*
G02*
X136899999Y-84300000I249999J0D01*
G01*
X137600001Y-84300000D01*
G75*
G02*
X137850000Y-84549999I0J-249999D01*
G01*
G37*
%TD.AperFunction*%
%TD*%
%TO.P,R3,1*%
%TO.N,/GPIO*%
%TA.AperFunction,SMDPad,CuDef*%
G36*
G01*
X137850000Y-89149999D02*
X137850000Y-90050001D01*
G75*
G02*
X137600001Y-90300000I-249999J0D01*
G01*
X136899999Y-90300000D01*
G75*
G02*
X136650000Y-90050001I0J249999D01*
G01*
X136650000Y-89149999D01*
G75*
G02*
X136899999Y-88900000I249999J0D01*
G01*
X137600001Y-88900000D01*
G75*
G02*
X137850000Y-89149999I0J-249999D01*
G01*
G37*
%TD.AperFunction*%
%TO.P,R3,2*%
%TO.N,/GND*%
%TA.AperFunction,SMDPad,CuDef*%
G36*
G01*
X135850000Y-89149999D02*
X135850000Y-90050001D01*
G75*
G02*
X135600001Y-90300000I-249999J0D01*
G01*
X134899999Y-90300000D01*
G75*
G02*
X134650000Y-90050001I0J249999D01*
G01*
X134650000Y-89149999D01*
G75*
G02*
X134899999Y-88900000I249999J0D01*
G01*
X135600001Y-88900000D01*
G75*
G02*
X135850000Y-89149999I0J-249999D01*
G01*
G37*
%TD.AperFunction*%
%TD*%
D14*
%TO.N,*%
X113000000Y-75500000D03*
X171000000Y-75500000D03*
X171000000Y-124500000D03*
D15*
%TO.N,/3V3*%
X139400000Y-80400000D03*
D14*
%TO.N,*%
X113000000Y-124500000D03*
D15*
%TO.N,/SDA*%
X146300000Y-110600000D03*
X133000000Y-79150000D03*
X119650000Y-112050000D03*
%TO.N,/SCL*%
X125200000Y-80000000D03*
X162500000Y-100750000D03*
X149550000Y-116800000D03*
%TO.N,/GPIO4*%
X134250000Y-82650000D03*
%TO.N,/GPIO6*%
X147950000Y-81800000D03*
%TO.N,/GPIO*%
X146150000Y-88950000D03*
%TD*%
D16*
%TO.N,/3V3*%
X137350000Y-80400000D02*
X137250000Y-80500000D01*
X139400000Y-80400000D02*
X137350000Y-80400000D01*
X137250000Y-80500000D02*
X137250000Y-84300000D01*
X137250000Y-84300000D02*
X137250000Y-85000000D01*
%TO.N,/SDA*%
X146300000Y-110600000D02*
X145400000Y-109700000D01*
X131710000Y-109700000D02*
X131100000Y-109090000D01*
X145400000Y-109700000D02*
X131710000Y-109700000D01*
X111324988Y-89765012D02*
X111324988Y-108874988D01*
X113600000Y-87490000D02*
X111324988Y-89765012D01*
X111769976Y-108430000D02*
X113600000Y-108430000D01*
X111324988Y-108874988D02*
X111769976Y-108430000D01*
X133900000Y-79150000D02*
X135250000Y-80500000D01*
X133000000Y-79150000D02*
X133900000Y-79150000D01*
X119981403Y-79613599D02*
X119981403Y-77758600D01*
X113600000Y-87490000D02*
X113600000Y-85995002D01*
X119981403Y-77758600D02*
X120410000Y-77330003D01*
X120410000Y-77330003D02*
X120410000Y-76770000D01*
X113600000Y-85995002D02*
X119981403Y-79613599D01*
X116030000Y-108430000D02*
X119650000Y-112050000D01*
X113600000Y-108430000D02*
X116030000Y-108430000D01*
%TO.N,/SCL*%
X165550000Y-97700000D02*
X170350000Y-97700000D01*
X162500000Y-100750000D02*
X165550000Y-97700000D01*
X172175001Y-99525001D02*
X170350000Y-97700000D01*
X170350000Y-118650000D02*
X172100000Y-118650000D01*
X172100000Y-118650000D02*
X172175001Y-118574999D01*
X172175001Y-118574999D02*
X172175001Y-99525001D01*
X170350000Y-118650000D02*
X157100000Y-118650000D01*
X152800000Y-114350000D02*
X152800000Y-114250000D01*
X157100000Y-118650000D02*
X152800000Y-114350000D01*
X152800000Y-114250000D02*
X152100000Y-114250000D01*
X152100000Y-114250000D02*
X149550000Y-116800000D01*
X129474988Y-108175012D02*
X131100000Y-106550000D01*
X129474988Y-109025012D02*
X129474988Y-108175012D01*
X124350000Y-114150000D02*
X129474988Y-109025012D01*
X123250000Y-114150000D02*
X124350000Y-114150000D01*
X130950000Y-80000000D02*
X125200000Y-80000000D01*
X133374999Y-83124999D02*
X133374999Y-82424999D01*
X133374999Y-82424999D02*
X130950000Y-80000000D01*
X135250000Y-85000000D02*
X133374999Y-83124999D01*
X112723999Y-90744999D02*
X111774999Y-91693999D01*
X111774999Y-91693999D02*
X111774999Y-101524999D01*
X121774999Y-75594999D02*
X122950000Y-76770000D01*
X113600000Y-82410000D02*
X115350000Y-82410000D01*
X113046003Y-90744999D02*
X112723999Y-90744999D01*
X119845999Y-75594999D02*
X121774999Y-75594999D01*
X119234999Y-76205999D02*
X119845999Y-75594999D01*
X115350000Y-82410000D02*
X119234999Y-78525001D01*
X119234999Y-78525001D02*
X119234999Y-76205999D01*
X120600011Y-80386399D02*
X115425001Y-85561409D01*
X115425001Y-85561409D02*
X115425001Y-88366001D01*
X115425001Y-88366001D02*
X113046003Y-90744999D01*
X111774999Y-101524999D02*
X113600000Y-103350000D01*
X112723999Y-115335001D02*
X122064999Y-115335001D01*
X111774999Y-111204001D02*
X111774999Y-114386001D01*
X112603998Y-110375002D02*
X111774999Y-111204001D01*
X115350000Y-103350000D02*
X115425001Y-103425001D01*
X119998002Y-112775002D02*
X119301998Y-112775002D01*
X122064999Y-115335001D02*
X123250000Y-114150000D01*
X115425001Y-103425001D02*
X115425001Y-106501997D01*
X115425001Y-106501997D02*
X120375002Y-111451998D01*
X111774999Y-114386001D02*
X112723999Y-115335001D01*
X116901998Y-110375002D02*
X112603998Y-110375002D01*
X119301998Y-112775002D02*
X116901998Y-110375002D01*
X120375002Y-111451998D02*
X120375002Y-112398002D01*
X120375002Y-112398002D02*
X119998002Y-112775002D01*
X113600000Y-103350000D02*
X115350000Y-103350000D01*
X120600011Y-79119989D02*
X122950000Y-76770000D01*
X120600011Y-80386399D02*
X120600011Y-79119989D01*
%TO.N,/GND*%
X160690000Y-87540000D02*
X159500000Y-88730000D01*
X170350000Y-87540000D02*
X160690000Y-87540000D01*
X157145001Y-75594999D02*
X158510000Y-74230000D01*
X157145001Y-78224999D02*
X157145001Y-75594999D01*
X151750000Y-83620000D02*
X157145001Y-78224999D01*
X132670000Y-89600000D02*
X131750000Y-88680000D01*
X135250000Y-89600000D02*
X132670000Y-89600000D01*
X124250000Y-75530000D02*
X122950000Y-74230000D01*
X124250000Y-83570000D02*
X124250000Y-75530000D01*
X153975001Y-110345001D02*
X152800000Y-109170000D01*
X153975001Y-112274001D02*
X153975001Y-110345001D01*
X153174003Y-113074999D02*
X153975001Y-112274001D01*
X151689999Y-113074999D02*
X153174003Y-113074999D01*
X147110000Y-117654998D02*
X151689999Y-113074999D01*
X147110000Y-123900000D02*
X147110000Y-117654998D01*
X158090000Y-109170000D02*
X160650000Y-111730000D01*
X152800000Y-109170000D02*
X158090000Y-109170000D01*
X167110000Y-111730000D02*
X170350000Y-108490000D01*
X160650000Y-111730000D02*
X167110000Y-111730000D01*
X146960000Y-103330000D02*
X146960000Y-96300000D01*
X152800000Y-109170000D02*
X146960000Y-103330000D01*
X145610001Y-122400001D02*
X147110000Y-123900000D01*
X140391399Y-121624988D02*
X140820001Y-122053591D01*
X136250009Y-118509991D02*
X130860000Y-123900000D01*
X145263591Y-122053591D02*
X145610001Y-122400001D01*
X133135012Y-121624988D02*
X140391399Y-121624988D01*
X140820001Y-122053591D02*
X145263591Y-122053591D01*
X130860000Y-123900000D02*
X133135012Y-121624988D01*
X131100000Y-111630000D02*
X136250009Y-116780009D01*
X136250009Y-116780009D02*
X136250009Y-118509991D01*
X150547919Y-83620000D02*
X151750000Y-83620000D01*
X159500000Y-88730000D02*
X158105001Y-87335001D01*
X158105001Y-87335001D02*
X146474001Y-87335001D01*
X143954001Y-89855001D02*
X142825999Y-89855001D01*
X146474001Y-87335001D02*
X143954001Y-89855001D01*
X142825999Y-89855001D02*
X142214999Y-89244001D01*
X142214999Y-89244001D02*
X142214999Y-83035999D01*
X142214999Y-83035999D02*
X142825999Y-82424999D01*
X142825999Y-82424999D02*
X143954001Y-82424999D01*
X143954001Y-82424999D02*
X146494001Y-84964999D01*
X146494001Y-84964999D02*
X149202920Y-84964999D01*
X149202920Y-84964999D02*
X150547919Y-83620000D01*
X131750000Y-88680000D02*
X132925001Y-87504999D01*
X132925001Y-87504999D02*
X132925001Y-85575999D01*
X132925001Y-85575999D02*
X132314001Y-84964999D01*
X132314001Y-84964999D02*
X125644999Y-84964999D01*
X125644999Y-84964999D02*
X124250000Y-83570000D01*
X122950000Y-74230000D02*
X124125001Y-75405001D01*
X115099999Y-91070001D02*
X113600000Y-92570000D01*
X124125001Y-75405001D02*
X124125001Y-77334001D01*
X124125001Y-77334001D02*
X121800011Y-79658991D01*
X121800011Y-79658991D02*
X121800011Y-84369989D01*
X121800011Y-84369989D02*
X115099999Y-91070001D01*
X160650000Y-111730000D02*
X159305001Y-113074999D01*
X159305001Y-113074999D02*
X151689999Y-113074999D01*
X151689999Y-113074999D02*
X148824998Y-115940000D01*
X148824998Y-115940000D02*
X148824998Y-117148002D01*
X148824998Y-117148002D02*
X149201998Y-117525002D01*
X149201998Y-117525002D02*
X149898002Y-117525002D01*
X149898002Y-117525002D02*
X150098002Y-117325002D01*
X150098002Y-117325002D02*
X154613682Y-117325002D01*
X154613682Y-117325002D02*
X161188680Y-123900000D01*
X161188680Y-123900000D02*
X163310000Y-123900000D01*
X132275001Y-108525999D02*
X131664001Y-107914999D01*
X126945001Y-105374999D02*
X132210001Y-105374999D01*
X129924999Y-110454999D02*
X131100000Y-111630000D01*
X130535999Y-107914999D02*
X129924999Y-108525999D01*
X132210001Y-105374999D02*
X132275001Y-105439999D01*
X129924999Y-108525999D02*
X129924999Y-110454999D01*
X131664001Y-107914999D02*
X130535999Y-107914999D01*
X132275001Y-105439999D02*
X132275001Y-108525999D01*
X123250000Y-109070000D02*
X126945001Y-105374999D01*
X144445001Y-77421997D02*
X144445001Y-76205999D01*
X150547919Y-83324915D02*
X147398002Y-80174998D01*
X150547919Y-83620000D02*
X150547919Y-83324915D01*
X147398002Y-80174998D02*
X147198002Y-80174998D01*
X147198002Y-80174998D02*
X144445001Y-77421997D01*
X144445001Y-76205999D02*
X143644003Y-75405001D01*
X143644003Y-75405001D02*
X141905001Y-75405001D01*
X141905001Y-75405001D02*
X140730000Y-74230000D01*
X139554999Y-75405001D02*
X139554999Y-78845001D01*
X139554999Y-78845001D02*
X138925010Y-79474990D01*
X136175010Y-79961800D02*
X136175010Y-88674990D01*
X136661820Y-79474990D02*
X136175010Y-79961800D01*
X138925010Y-79474990D02*
X136661820Y-79474990D01*
X140730000Y-74230000D02*
X139554999Y-75405001D01*
X136175010Y-88674990D02*
X135250000Y-89600000D01*
X115875012Y-105665597D02*
X115875012Y-94845012D01*
X115099999Y-94069999D02*
X113600000Y-92570000D01*
X120825013Y-112384402D02*
X120825013Y-111494987D01*
X120825013Y-111494987D02*
X123250000Y-109070000D01*
X119899415Y-113510000D02*
X120825013Y-112584402D01*
X113600000Y-113510000D02*
X119899415Y-113510000D01*
X120825013Y-112384402D02*
X120825013Y-110615598D01*
X115875012Y-94845012D02*
X115099999Y-94069999D01*
X120825013Y-110615598D02*
X115875012Y-105665597D01*
X120825013Y-112584402D02*
X120825013Y-112384402D01*
%TO.N,/GPIO4*%
X126665001Y-77945001D02*
X125490000Y-76770000D01*
X129545001Y-77945001D02*
X126665001Y-77945001D01*
X134250000Y-82650000D02*
X129545001Y-77945001D01*
%TO.N,/GPIO6*%
X140850000Y-88680000D02*
X139674999Y-87504999D01*
X139674999Y-82489999D02*
X140364998Y-81800000D01*
X139674999Y-87504999D02*
X139674999Y-82489999D01*
X140364998Y-81800000D02*
X147950000Y-81800000D01*
%TO.N,/GPIO*%
X135189999Y-122074999D02*
X140204999Y-122074999D01*
X132685001Y-124579997D02*
X135189999Y-122074999D01*
X132685001Y-124776001D02*
X132685001Y-124579997D01*
X131736001Y-125725001D02*
X132685001Y-124776001D01*
X125780000Y-123900000D02*
X127605001Y-125725001D01*
X140204999Y-122074999D02*
X142030000Y-123900000D01*
X127605001Y-125725001D02*
X131736001Y-125725001D01*
X156404999Y-125725001D02*
X158230000Y-123900000D01*
X143855001Y-125725001D02*
X156404999Y-125725001D01*
X142030000Y-123900000D02*
X143855001Y-125725001D01*
X159500000Y-86190000D02*
X153310000Y-86190000D01*
X153280000Y-86160000D02*
X151750000Y-86160000D01*
X153310000Y-86190000D02*
X153280000Y-86160000D01*
X143410000Y-86160000D02*
X143390000Y-86140000D01*
X151750000Y-86160000D02*
X143410000Y-86160000D01*
X143390000Y-88680000D02*
X143390000Y-86140000D01*
X143390000Y-86140000D02*
X143390000Y-83600000D01*
X140054999Y-92404999D02*
X137250000Y-89600000D01*
X140054999Y-94474999D02*
X140054999Y-92404999D01*
X141880000Y-96300000D02*
X140054999Y-94474999D01*
X144794988Y-90305012D02*
X146150000Y-88950000D01*
X137955012Y-90305012D02*
X144794988Y-90305012D01*
X137250000Y-89600000D02*
X137955012Y-90305012D01*
X131720000Y-86110000D02*
X131750000Y-86140000D01*
X124250000Y-86110000D02*
X131720000Y-86110000D01*
X136224990Y-90625010D02*
X137250000Y-89600000D01*
X131956008Y-90625010D02*
X136224990Y-90625010D01*
X130574999Y-89244001D02*
X131956008Y-90625010D01*
X130574999Y-87315001D02*
X130574999Y-89244001D01*
X131750000Y-86140000D02*
X130574999Y-87315001D01*
X160349999Y-85340001D02*
X159500000Y-86190000D01*
X172350000Y-86838998D02*
X170851003Y-85340001D01*
X172350000Y-99063590D02*
X172350000Y-86838998D01*
X172625012Y-119959990D02*
X172625012Y-99338601D01*
X172110001Y-120475001D02*
X172625012Y-119959990D01*
X170473997Y-120475001D02*
X172110001Y-120475001D01*
X172625012Y-99338601D02*
X172350000Y-99063590D01*
X160055001Y-125725001D02*
X165223997Y-125725001D01*
X170851003Y-85340001D02*
X160349999Y-85340001D01*
X158230000Y-123900000D02*
X160055001Y-125725001D01*
X165223997Y-125725001D02*
X170473997Y-120475001D01*
%TD*%
D17*
%TO.N,/GND*%
X168842188Y-72870698D02*
X168370698Y-73342188D01*
X168000252Y-73896601D01*
X167745083Y-74512632D01*
X167615000Y-75166607D01*
X167615000Y-75833393D01*
X167745083Y-76487368D01*
X168000252Y-77103399D01*
X168370698Y-77657812D01*
X168842188Y-78129302D01*
X169396601Y-78499748D01*
X170012632Y-78754917D01*
X170666607Y-78885000D01*
X171333393Y-78885000D01*
X171987368Y-78754917D01*
X172603399Y-78499748D01*
X173157812Y-78129302D01*
X173629302Y-77657812D01*
X173840001Y-77342478D01*
X173840000Y-122657521D01*
X173629302Y-122342188D01*
X173157812Y-121870698D01*
X172603399Y-121500252D01*
X171987368Y-121245083D01*
X171936682Y-121235001D01*
X172072679Y-121235001D01*
X172110001Y-121238677D01*
X172147323Y-121235001D01*
X172147334Y-121235001D01*
X172258987Y-121224004D01*
X172402248Y-121180547D01*
X172534277Y-121109975D01*
X172650002Y-121015002D01*
X172673804Y-120985999D01*
X173136015Y-120523788D01*
X173165013Y-120499991D01*
X173259986Y-120384266D01*
X173330558Y-120252237D01*
X173374015Y-120108976D01*
X173385012Y-119997323D01*
X173385012Y-119997322D01*
X173388689Y-119959990D01*
X173385012Y-119922657D01*
X173385012Y-99375924D01*
X173388688Y-99338599D01*
X173385012Y-99301276D01*
X173385012Y-99301268D01*
X173374015Y-99189615D01*
X173330558Y-99046354D01*
X173259986Y-98914325D01*
X173165013Y-98798600D01*
X173136008Y-98774797D01*
X173110000Y-98748788D01*
X173110000Y-86876321D01*
X173113676Y-86838998D01*
X173110000Y-86801675D01*
X173110000Y-86801665D01*
X173099003Y-86690012D01*
X173055546Y-86546751D01*
X173053625Y-86543158D01*
X172984974Y-86414721D01*
X172913799Y-86327995D01*
X172890001Y-86298997D01*
X172861003Y-86275199D01*
X171414807Y-84829004D01*
X171391004Y-84800000D01*
X171275279Y-84705027D01*
X171143250Y-84634455D01*
X170999989Y-84590998D01*
X170888336Y-84580001D01*
X170888325Y-84580001D01*
X170851003Y-84576325D01*
X170813681Y-84580001D01*
X170635684Y-84580001D01*
X170972756Y-84512953D01*
X171361302Y-84352012D01*
X171710983Y-84118363D01*
X172008363Y-83820983D01*
X172242012Y-83471302D01*
X172402953Y-83082756D01*
X172485000Y-82670279D01*
X172485000Y-82249721D01*
X172402953Y-81837244D01*
X172242012Y-81448698D01*
X172008363Y-81099017D01*
X171710983Y-80801637D01*
X171361302Y-80567988D01*
X170972756Y-80407047D01*
X170560279Y-80325000D01*
X170139721Y-80325000D01*
X169727244Y-80407047D01*
X169338698Y-80567988D01*
X168989017Y-80801637D01*
X168691637Y-81099017D01*
X168457988Y-81448698D01*
X168297047Y-81837244D01*
X168215000Y-82249721D01*
X168215000Y-82670279D01*
X168297047Y-83082756D01*
X168457988Y-83471302D01*
X168691637Y-83820983D01*
X168989017Y-84118363D01*
X169338698Y-84352012D01*
X169727244Y-84512953D01*
X170064316Y-84580001D01*
X160980193Y-84580001D01*
X160988072Y-84500000D01*
X160988072Y-82800000D01*
X160975812Y-82675518D01*
X160939502Y-82555820D01*
X160880537Y-82445506D01*
X160801185Y-82348815D01*
X160704494Y-82269463D01*
X160594180Y-82210498D01*
X160474482Y-82174188D01*
X160350000Y-82161928D01*
X158650000Y-82161928D01*
X158525518Y-82174188D01*
X158405820Y-82210498D01*
X158295506Y-82269463D01*
X158198815Y-82348815D01*
X158119463Y-82445506D01*
X158060498Y-82555820D01*
X158024188Y-82675518D01*
X158011928Y-82800000D01*
X158011928Y-84500000D01*
X158024188Y-84624482D01*
X158060498Y-84744180D01*
X158119463Y-84854494D01*
X158198815Y-84951185D01*
X158295506Y-85030537D01*
X158405820Y-85089502D01*
X158478380Y-85111513D01*
X158346525Y-85243368D01*
X158221822Y-85430000D01*
X153491632Y-85430000D01*
X153428986Y-85410997D01*
X153317333Y-85400000D01*
X153317322Y-85400000D01*
X153280000Y-85396324D01*
X153242678Y-85400000D01*
X153028178Y-85400000D01*
X152903475Y-85213368D01*
X152696632Y-85006525D01*
X152514466Y-84884805D01*
X152631355Y-84815178D01*
X152847588Y-84620269D01*
X153021641Y-84386920D01*
X153146825Y-84124099D01*
X153191476Y-83976890D01*
X153070155Y-83747000D01*
X151877000Y-83747000D01*
X151877000Y-83767000D01*
X151623000Y-83767000D01*
X151623000Y-83747000D01*
X150429845Y-83747000D01*
X150308524Y-83976890D01*
X150353175Y-84124099D01*
X150478359Y-84386920D01*
X150652412Y-84620269D01*
X150868645Y-84815178D01*
X150985534Y-84884805D01*
X150803368Y-85006525D01*
X150596525Y-85213368D01*
X150471822Y-85400000D01*
X144681542Y-85400000D01*
X144543475Y-85193368D01*
X144336632Y-84986525D01*
X144162240Y-84870000D01*
X144336632Y-84753475D01*
X144543475Y-84546632D01*
X144705990Y-84303411D01*
X144817932Y-84033158D01*
X144875000Y-83746260D01*
X144875000Y-83453740D01*
X144837082Y-83263110D01*
X150308524Y-83263110D01*
X150429845Y-83493000D01*
X151623000Y-83493000D01*
X151623000Y-82299186D01*
X151877000Y-82299186D01*
X151877000Y-83493000D01*
X153070155Y-83493000D01*
X153191476Y-83263110D01*
X153146825Y-83115901D01*
X153021641Y-82853080D01*
X152847588Y-82619731D01*
X152631355Y-82424822D01*
X152381252Y-82275843D01*
X152106891Y-82178519D01*
X151877000Y-82299186D01*
X151623000Y-82299186D01*
X151393109Y-82178519D01*
X151118748Y-82275843D01*
X150868645Y-82424822D01*
X150652412Y-82619731D01*
X150478359Y-82853080D01*
X150353175Y-83115901D01*
X150308524Y-83263110D01*
X144837082Y-83263110D01*
X144817932Y-83166842D01*
X144705990Y-82896589D01*
X144543475Y-82653368D01*
X144450107Y-82560000D01*
X147246289Y-82560000D01*
X147290226Y-82603937D01*
X147459744Y-82717205D01*
X147648102Y-82795226D01*
X147848061Y-82835000D01*
X148051939Y-82835000D01*
X148251898Y-82795226D01*
X148440256Y-82717205D01*
X148609774Y-82603937D01*
X148753937Y-82459774D01*
X148867205Y-82290256D01*
X148945226Y-82101898D01*
X148985000Y-81901939D01*
X148985000Y-81698061D01*
X148945226Y-81498102D01*
X148867205Y-81309744D01*
X148753937Y-81140226D01*
X148609774Y-80996063D01*
X148440256Y-80882795D01*
X148251898Y-80804774D01*
X148051939Y-80765000D01*
X147848061Y-80765000D01*
X147648102Y-80804774D01*
X147459744Y-80882795D01*
X147290226Y-80996063D01*
X147246289Y-81040000D01*
X140402321Y-81040000D01*
X140364998Y-81036324D01*
X140327675Y-81040000D01*
X140327665Y-81040000D01*
X140216012Y-81050997D01*
X140208223Y-81053360D01*
X140317205Y-80890256D01*
X140395226Y-80701898D01*
X140435000Y-80501939D01*
X140435000Y-80298061D01*
X140395226Y-80098102D01*
X140317205Y-79909744D01*
X140203937Y-79740226D01*
X140059774Y-79596063D01*
X139890256Y-79482795D01*
X139701898Y-79404774D01*
X139501939Y-79365000D01*
X139298061Y-79365000D01*
X139098102Y-79404774D01*
X138909744Y-79482795D01*
X138740226Y-79596063D01*
X138696289Y-79640000D01*
X138382976Y-79640000D01*
X138338405Y-79556613D01*
X138227962Y-79422038D01*
X138093387Y-79311595D01*
X137939851Y-79229528D01*
X137773255Y-79178992D01*
X137600001Y-79161928D01*
X136899999Y-79161928D01*
X136726745Y-79178992D01*
X136560149Y-79229528D01*
X136406613Y-79311595D01*
X136272038Y-79422038D01*
X136250000Y-79448891D01*
X136227962Y-79422038D01*
X136093387Y-79311595D01*
X135939851Y-79229528D01*
X135773255Y-79178992D01*
X135600001Y-79161928D01*
X134986729Y-79161928D01*
X134463804Y-78639003D01*
X134440001Y-78609999D01*
X134324276Y-78515026D01*
X134192247Y-78444454D01*
X134048986Y-78400997D01*
X133937333Y-78390000D01*
X133937322Y-78390000D01*
X133900000Y-78386324D01*
X133862678Y-78390000D01*
X133703711Y-78390000D01*
X133659774Y-78346063D01*
X133490256Y-78232795D01*
X133450558Y-78216351D01*
X133543158Y-78197932D01*
X133813411Y-78085990D01*
X134056632Y-77923475D01*
X134263475Y-77716632D01*
X134380000Y-77542240D01*
X134496525Y-77716632D01*
X134703368Y-77923475D01*
X134946589Y-78085990D01*
X135216842Y-78197932D01*
X135503740Y-78255000D01*
X135796260Y-78255000D01*
X136083158Y-78197932D01*
X136353411Y-78085990D01*
X136596632Y-77923475D01*
X136803475Y-77716632D01*
X136920000Y-77542240D01*
X137036525Y-77716632D01*
X137243368Y-77923475D01*
X137486589Y-78085990D01*
X137756842Y-78197932D01*
X138043740Y-78255000D01*
X138336260Y-78255000D01*
X138623158Y-78197932D01*
X138893411Y-78085990D01*
X139136632Y-77923475D01*
X139343475Y-77716632D01*
X139460000Y-77542240D01*
X139576525Y-77716632D01*
X139783368Y-77923475D01*
X140026589Y-78085990D01*
X140296842Y-78197932D01*
X140583740Y-78255000D01*
X140876260Y-78255000D01*
X141163158Y-78197932D01*
X141433411Y-78085990D01*
X141676632Y-77923475D01*
X141883475Y-77716632D01*
X142000000Y-77542240D01*
X142116525Y-77716632D01*
X142323368Y-77923475D01*
X142566589Y-78085990D01*
X142836842Y-78197932D01*
X143123740Y-78255000D01*
X143416260Y-78255000D01*
X143703158Y-78197932D01*
X143973411Y-78085990D01*
X144216632Y-77923475D01*
X144423475Y-77716632D01*
X144540000Y-77542240D01*
X144656525Y-77716632D01*
X144863368Y-77923475D01*
X145106589Y-78085990D01*
X145376842Y-78197932D01*
X145663740Y-78255000D01*
X145956260Y-78255000D01*
X146243158Y-78197932D01*
X146513411Y-78085990D01*
X146756632Y-77923475D01*
X146963475Y-77716632D01*
X147080000Y-77542240D01*
X147196525Y-77716632D01*
X147403368Y-77923475D01*
X147646589Y-78085990D01*
X147916842Y-78197932D01*
X148203740Y-78255000D01*
X148496260Y-78255000D01*
X148783158Y-78197932D01*
X149053411Y-78085990D01*
X149296632Y-77923475D01*
X149503475Y-77716632D01*
X149620000Y-77542240D01*
X149736525Y-77716632D01*
X149943368Y-77923475D01*
X150186589Y-78085990D01*
X150456842Y-78197932D01*
X150743740Y-78255000D01*
X151036260Y-78255000D01*
X151323158Y-78197932D01*
X151593411Y-78085990D01*
X151836632Y-77923475D01*
X152043475Y-77716632D01*
X152160000Y-77542240D01*
X152276525Y-77716632D01*
X152483368Y-77923475D01*
X152726589Y-78085990D01*
X152996842Y-78197932D01*
X153283740Y-78255000D01*
X153576260Y-78255000D01*
X153863158Y-78197932D01*
X154133411Y-78085990D01*
X154376632Y-77923475D01*
X154583475Y-77716632D01*
X154700000Y-77542240D01*
X154816525Y-77716632D01*
X155023368Y-77923475D01*
X155266589Y-78085990D01*
X155536842Y-78197932D01*
X155823740Y-78255000D01*
X156116260Y-78255000D01*
X156403158Y-78197932D01*
X156673411Y-78085990D01*
X156916632Y-77923475D01*
X157123475Y-77716632D01*
X157240000Y-77542240D01*
X157356525Y-77716632D01*
X157563368Y-77923475D01*
X157806589Y-78085990D01*
X158076842Y-78197932D01*
X158363740Y-78255000D01*
X158656260Y-78255000D01*
X158943158Y-78197932D01*
X159213411Y-78085990D01*
X159456632Y-77923475D01*
X159663475Y-77716632D01*
X159780000Y-77542240D01*
X159896525Y-77716632D01*
X160103368Y-77923475D01*
X160346589Y-78085990D01*
X160616842Y-78197932D01*
X160903740Y-78255000D01*
X161196260Y-78255000D01*
X161483158Y-78197932D01*
X161753411Y-78085990D01*
X161996632Y-77923475D01*
X162203475Y-77716632D01*
X162320000Y-77542240D01*
X162436525Y-77716632D01*
X162643368Y-77923475D01*
X162886589Y-78085990D01*
X163156842Y-78197932D01*
X163443740Y-78255000D01*
X163736260Y-78255000D01*
X164023158Y-78197932D01*
X164293411Y-78085990D01*
X164536632Y-77923475D01*
X164743475Y-77716632D01*
X164860000Y-77542240D01*
X164976525Y-77716632D01*
X165183368Y-77923475D01*
X165426589Y-78085990D01*
X165696842Y-78197932D01*
X165983740Y-78255000D01*
X166276260Y-78255000D01*
X166563158Y-78197932D01*
X166833411Y-78085990D01*
X167076632Y-77923475D01*
X167283475Y-77716632D01*
X167445990Y-77473411D01*
X167557932Y-77203158D01*
X167615000Y-76916260D01*
X167615000Y-76623740D01*
X167557932Y-76336842D01*
X167445990Y-76066589D01*
X167283475Y-75823368D01*
X167076632Y-75616525D01*
X166902240Y-75500000D01*
X167076632Y-75383475D01*
X167283475Y-75176632D01*
X167445990Y-74933411D01*
X167557932Y-74663158D01*
X167615000Y-74376260D01*
X167615000Y-74083740D01*
X167557932Y-73796842D01*
X167445990Y-73526589D01*
X167283475Y-73283368D01*
X167076632Y-73076525D01*
X166833411Y-72914010D01*
X166563158Y-72802068D01*
X166276260Y-72745000D01*
X165983740Y-72745000D01*
X165696842Y-72802068D01*
X165426589Y-72914010D01*
X165183368Y-73076525D01*
X164976525Y-73283368D01*
X164860000Y-73457760D01*
X164743475Y-73283368D01*
X164536632Y-73076525D01*
X164293411Y-72914010D01*
X164023158Y-72802068D01*
X163736260Y-72745000D01*
X163443740Y-72745000D01*
X163156842Y-72802068D01*
X162886589Y-72914010D01*
X162643368Y-73076525D01*
X162436525Y-73283368D01*
X162320000Y-73457760D01*
X162203475Y-73283368D01*
X161996632Y-73076525D01*
X161753411Y-72914010D01*
X161483158Y-72802068D01*
X161196260Y-72745000D01*
X160903740Y-72745000D01*
X160616842Y-72802068D01*
X160346589Y-72914010D01*
X160103368Y-73076525D01*
X159896525Y-73283368D01*
X159774805Y-73465534D01*
X159705178Y-73348645D01*
X159510269Y-73132412D01*
X159276920Y-72958359D01*
X159014099Y-72833175D01*
X158866890Y-72788524D01*
X158637000Y-72909845D01*
X158637000Y-74103000D01*
X158657000Y-74103000D01*
X158657000Y-74357000D01*
X158637000Y-74357000D01*
X158637000Y-74377000D01*
X158383000Y-74377000D01*
X158383000Y-74357000D01*
X158363000Y-74357000D01*
X158363000Y-74103000D01*
X158383000Y-74103000D01*
X158383000Y-72909845D01*
X158153110Y-72788524D01*
X158005901Y-72833175D01*
X157743080Y-72958359D01*
X157509731Y-73132412D01*
X157314822Y-73348645D01*
X157245195Y-73465534D01*
X157123475Y-73283368D01*
X156916632Y-73076525D01*
X156673411Y-72914010D01*
X156403158Y-72802068D01*
X156116260Y-72745000D01*
X155823740Y-72745000D01*
X155536842Y-72802068D01*
X155266589Y-72914010D01*
X155023368Y-73076525D01*
X154816525Y-73283368D01*
X154700000Y-73457760D01*
X154583475Y-73283368D01*
X154376632Y-73076525D01*
X154133411Y-72914010D01*
X153863158Y-72802068D01*
X153576260Y-72745000D01*
X153283740Y-72745000D01*
X152996842Y-72802068D01*
X152726589Y-72914010D01*
X152483368Y-73076525D01*
X152276525Y-73283368D01*
X152160000Y-73457760D01*
X152043475Y-73283368D01*
X151836632Y-73076525D01*
X151593411Y-72914010D01*
X151323158Y-72802068D01*
X151036260Y-72745000D01*
X150743740Y-72745000D01*
X150456842Y-72802068D01*
X150186589Y-72914010D01*
X149943368Y-73076525D01*
X149736525Y-73283368D01*
X149620000Y-73457760D01*
X149503475Y-73283368D01*
X149296632Y-73076525D01*
X149053411Y-72914010D01*
X148783158Y-72802068D01*
X148496260Y-72745000D01*
X148203740Y-72745000D01*
X147916842Y-72802068D01*
X147646589Y-72914010D01*
X147403368Y-73076525D01*
X147196525Y-73283368D01*
X147080000Y-73457760D01*
X146963475Y-73283368D01*
X146756632Y-73076525D01*
X146513411Y-72914010D01*
X146243158Y-72802068D01*
X145956260Y-72745000D01*
X145663740Y-72745000D01*
X145376842Y-72802068D01*
X145106589Y-72914010D01*
X144863368Y-73076525D01*
X144656525Y-73283368D01*
X144540000Y-73457760D01*
X144423475Y-73283368D01*
X144216632Y-73076525D01*
X143973411Y-72914010D01*
X143703158Y-72802068D01*
X143416260Y-72745000D01*
X143123740Y-72745000D01*
X142836842Y-72802068D01*
X142566589Y-72914010D01*
X142323368Y-73076525D01*
X142116525Y-73283368D01*
X141994805Y-73465534D01*
X141925178Y-73348645D01*
X141730269Y-73132412D01*
X141496920Y-72958359D01*
X141234099Y-72833175D01*
X141086890Y-72788524D01*
X140857000Y-72909845D01*
X140857000Y-74103000D01*
X140877000Y-74103000D01*
X140877000Y-74357000D01*
X140857000Y-74357000D01*
X140857000Y-74377000D01*
X140603000Y-74377000D01*
X140603000Y-74357000D01*
X140583000Y-74357000D01*
X140583000Y-74103000D01*
X140603000Y-74103000D01*
X140603000Y-72909845D01*
X140373110Y-72788524D01*
X140225901Y-72833175D01*
X139963080Y-72958359D01*
X139729731Y-73132412D01*
X139534822Y-73348645D01*
X139465195Y-73465534D01*
X139343475Y-73283368D01*
X139136632Y-73076525D01*
X138893411Y-72914010D01*
X138623158Y-72802068D01*
X138336260Y-72745000D01*
X138043740Y-72745000D01*
X137756842Y-72802068D01*
X137486589Y-72914010D01*
X137243368Y-73076525D01*
X137036525Y-73283368D01*
X136920000Y-73457760D01*
X136803475Y-73283368D01*
X136596632Y-73076525D01*
X136353411Y-72914010D01*
X136083158Y-72802068D01*
X135796260Y-72745000D01*
X135503740Y-72745000D01*
X135216842Y-72802068D01*
X134946589Y-72914010D01*
X134703368Y-73076525D01*
X134496525Y-73283368D01*
X134380000Y-73457760D01*
X134263475Y-73283368D01*
X134056632Y-73076525D01*
X133813411Y-72914010D01*
X133543158Y-72802068D01*
X133256260Y-72745000D01*
X132963740Y-72745000D01*
X132676842Y-72802068D01*
X132406589Y-72914010D01*
X132163368Y-73076525D01*
X131956525Y-73283368D01*
X131840000Y-73457760D01*
X131723475Y-73283368D01*
X131516632Y-73076525D01*
X131273411Y-72914010D01*
X131003158Y-72802068D01*
X130716260Y-72745000D01*
X130423740Y-72745000D01*
X130136842Y-72802068D01*
X129866589Y-72914010D01*
X129623368Y-73076525D01*
X129416525Y-73283368D01*
X129300000Y-73457760D01*
X129183475Y-73283368D01*
X128976632Y-73076525D01*
X128733411Y-72914010D01*
X128463158Y-72802068D01*
X128176260Y-72745000D01*
X127883740Y-72745000D01*
X127596842Y-72802068D01*
X127326589Y-72914010D01*
X127083368Y-73076525D01*
X126876525Y-73283368D01*
X126760000Y-73457760D01*
X126643475Y-73283368D01*
X126436632Y-73076525D01*
X126193411Y-72914010D01*
X125923158Y-72802068D01*
X125636260Y-72745000D01*
X125343740Y-72745000D01*
X125056842Y-72802068D01*
X124786589Y-72914010D01*
X124543368Y-73076525D01*
X124336525Y-73283368D01*
X124214805Y-73465534D01*
X124145178Y-73348645D01*
X123950269Y-73132412D01*
X123716920Y-72958359D01*
X123454099Y-72833175D01*
X123306890Y-72788524D01*
X123077000Y-72909845D01*
X123077000Y-74103000D01*
X123097000Y-74103000D01*
X123097000Y-74357000D01*
X123077000Y-74357000D01*
X123077000Y-74377000D01*
X122823000Y-74377000D01*
X122823000Y-74357000D01*
X122803000Y-74357000D01*
X122803000Y-74103000D01*
X122823000Y-74103000D01*
X122823000Y-72909845D01*
X122593110Y-72788524D01*
X122445901Y-72833175D01*
X122183080Y-72958359D01*
X121949731Y-73132412D01*
X121754822Y-73348645D01*
X121685195Y-73465534D01*
X121563475Y-73283368D01*
X121356632Y-73076525D01*
X121113411Y-72914010D01*
X120843158Y-72802068D01*
X120556260Y-72745000D01*
X120263740Y-72745000D01*
X119976842Y-72802068D01*
X119706589Y-72914010D01*
X119463368Y-73076525D01*
X119256525Y-73283368D01*
X119140000Y-73457760D01*
X119023475Y-73283368D01*
X118816632Y-73076525D01*
X118573411Y-72914010D01*
X118303158Y-72802068D01*
X118016260Y-72745000D01*
X117723740Y-72745000D01*
X117436842Y-72802068D01*
X117166589Y-72914010D01*
X116923368Y-73076525D01*
X116716525Y-73283368D01*
X116554010Y-73526589D01*
X116442068Y-73796842D01*
X116385000Y-74083740D01*
X116385000Y-74376260D01*
X116442068Y-74663158D01*
X116554010Y-74933411D01*
X116716525Y-75176632D01*
X116848380Y-75308487D01*
X116775820Y-75330498D01*
X116665506Y-75389463D01*
X116568815Y-75468815D01*
X116489463Y-75565506D01*
X116430498Y-75675820D01*
X116394188Y-75795518D01*
X116381928Y-75920000D01*
X116381928Y-77620000D01*
X116394188Y-77744482D01*
X116430498Y-77864180D01*
X116489463Y-77974494D01*
X116568815Y-78071185D01*
X116665506Y-78150537D01*
X116775820Y-78209502D01*
X116895518Y-78245812D01*
X117020000Y-78258072D01*
X118427126Y-78258072D01*
X115738072Y-80947127D01*
X115738072Y-80910000D01*
X115725812Y-80785518D01*
X115689502Y-80665820D01*
X115630537Y-80555506D01*
X115551185Y-80458815D01*
X115454494Y-80379463D01*
X115344180Y-80320498D01*
X115224482Y-80284188D01*
X115100000Y-80271928D01*
X112100000Y-80271928D01*
X111975518Y-80284188D01*
X111855820Y-80320498D01*
X111745506Y-80379463D01*
X111648815Y-80458815D01*
X111569463Y-80555506D01*
X111510498Y-80665820D01*
X111474188Y-80785518D01*
X111461928Y-80910000D01*
X111461928Y-83910000D01*
X111474188Y-84034482D01*
X111510498Y-84154180D01*
X111569463Y-84264494D01*
X111648815Y-84361185D01*
X111745506Y-84440537D01*
X111855820Y-84499502D01*
X111975518Y-84535812D01*
X112100000Y-84548072D01*
X113972129Y-84548072D01*
X113109452Y-85410749D01*
X112977244Y-85437047D01*
X112588698Y-85597988D01*
X112239017Y-85831637D01*
X111941637Y-86129017D01*
X111707988Y-86478698D01*
X111547047Y-86867244D01*
X111465000Y-87279721D01*
X111465000Y-87700279D01*
X111547047Y-88112756D01*
X111651140Y-88364059D01*
X110813991Y-89201208D01*
X110784987Y-89225011D01*
X110729859Y-89292186D01*
X110690014Y-89340736D01*
X110619443Y-89472765D01*
X110619442Y-89472766D01*
X110575985Y-89616027D01*
X110564988Y-89727680D01*
X110564988Y-89727690D01*
X110561312Y-89765012D01*
X110564988Y-89802334D01*
X110564989Y-108837655D01*
X110561312Y-108874988D01*
X110564989Y-108912321D01*
X110575986Y-109023974D01*
X110581982Y-109043740D01*
X110619442Y-109167234D01*
X110690014Y-109299264D01*
X110784987Y-109414989D01*
X110900712Y-109509962D01*
X111020703Y-109574099D01*
X111032742Y-109580534D01*
X111176003Y-109623991D01*
X111324988Y-109638665D01*
X111473974Y-109623991D01*
X111617235Y-109580534D01*
X111749264Y-109509962D01*
X111752236Y-109507523D01*
X111941637Y-109790983D01*
X112027426Y-109876772D01*
X111264001Y-110640198D01*
X111234998Y-110664000D01*
X111203863Y-110701939D01*
X111140025Y-110779725D01*
X111095471Y-110863080D01*
X111069453Y-110911755D01*
X111025996Y-111055016D01*
X111014999Y-111166669D01*
X111014999Y-111166679D01*
X111011323Y-111204001D01*
X111014999Y-111241324D01*
X111015000Y-114348669D01*
X111011323Y-114386001D01*
X111015000Y-114423334D01*
X111025997Y-114534987D01*
X111037915Y-114574276D01*
X111069453Y-114678247D01*
X111140025Y-114810277D01*
X111201328Y-114884974D01*
X111234999Y-114926002D01*
X111263997Y-114949800D01*
X112160200Y-115846004D01*
X112183998Y-115875002D01*
X112299723Y-115969975D01*
X112431752Y-116040547D01*
X112575013Y-116084004D01*
X112686666Y-116095001D01*
X112686674Y-116095001D01*
X112723999Y-116098677D01*
X112761324Y-116095001D01*
X122027677Y-116095001D01*
X122064999Y-116098677D01*
X122102321Y-116095001D01*
X122102332Y-116095001D01*
X122213985Y-116084004D01*
X122357246Y-116040547D01*
X122489275Y-115969975D01*
X122605000Y-115875002D01*
X122628802Y-115845999D01*
X122836729Y-115638072D01*
X124100000Y-115638072D01*
X124224482Y-115625812D01*
X124344180Y-115589502D01*
X124454494Y-115530537D01*
X124551185Y-115451185D01*
X124630537Y-115354494D01*
X124689502Y-115244180D01*
X124725812Y-115124482D01*
X124738072Y-115000000D01*
X124738072Y-114804326D01*
X124774276Y-114784974D01*
X124890001Y-114690001D01*
X124913804Y-114660997D01*
X125551061Y-114023740D01*
X129615000Y-114023740D01*
X129615000Y-114316260D01*
X129672068Y-114603158D01*
X129784010Y-114873411D01*
X129946525Y-115116632D01*
X130153368Y-115323475D01*
X130396589Y-115485990D01*
X130666842Y-115597932D01*
X130953740Y-115655000D01*
X131246260Y-115655000D01*
X131533158Y-115597932D01*
X131803411Y-115485990D01*
X132046632Y-115323475D01*
X132253475Y-115116632D01*
X132415990Y-114873411D01*
X132527932Y-114603158D01*
X132585000Y-114316260D01*
X132585000Y-114023740D01*
X132527932Y-113736842D01*
X132415990Y-113466589D01*
X132253475Y-113223368D01*
X132046632Y-113016525D01*
X131864466Y-112894805D01*
X131981355Y-112825178D01*
X132197588Y-112630269D01*
X132371641Y-112396920D01*
X132496825Y-112134099D01*
X132541476Y-111986890D01*
X132420155Y-111757000D01*
X131227000Y-111757000D01*
X131227000Y-111777000D01*
X130973000Y-111777000D01*
X130973000Y-111757000D01*
X129779845Y-111757000D01*
X129658524Y-111986890D01*
X129703175Y-112134099D01*
X129828359Y-112396920D01*
X130002412Y-112630269D01*
X130218645Y-112825178D01*
X130335534Y-112894805D01*
X130153368Y-113016525D01*
X129946525Y-113223368D01*
X129784010Y-113466589D01*
X129672068Y-113736842D01*
X129615000Y-114023740D01*
X125551061Y-114023740D01*
X129783243Y-109791559D01*
X129784010Y-109793411D01*
X129946525Y-110036632D01*
X130153368Y-110243475D01*
X130335534Y-110365195D01*
X130218645Y-110434822D01*
X130002412Y-110629731D01*
X129828359Y-110863080D01*
X129703175Y-111125901D01*
X129658524Y-111273110D01*
X129779845Y-111503000D01*
X130973000Y-111503000D01*
X130973000Y-111483000D01*
X131227000Y-111483000D01*
X131227000Y-111503000D01*
X132420155Y-111503000D01*
X132541476Y-111273110D01*
X132496825Y-111125901D01*
X132371641Y-110863080D01*
X132197588Y-110629731D01*
X132009288Y-110460000D01*
X145085199Y-110460000D01*
X145265000Y-110639801D01*
X145265000Y-110701939D01*
X145304774Y-110901898D01*
X145382795Y-111090256D01*
X145496063Y-111259774D01*
X145640226Y-111403937D01*
X145809744Y-111517205D01*
X145998102Y-111595226D01*
X146198061Y-111635000D01*
X146401939Y-111635000D01*
X146601898Y-111595226D01*
X146790256Y-111517205D01*
X146959774Y-111403937D01*
X147103937Y-111259774D01*
X147217205Y-111090256D01*
X147295226Y-110901898D01*
X147335000Y-110701939D01*
X147335000Y-110498061D01*
X147295226Y-110298102D01*
X147217205Y-110109744D01*
X147103937Y-109940226D01*
X146959774Y-109796063D01*
X146790256Y-109682795D01*
X146601898Y-109604774D01*
X146401939Y-109565000D01*
X146339801Y-109565000D01*
X145963803Y-109189002D01*
X145940001Y-109159999D01*
X145824276Y-109065026D01*
X145692247Y-108994454D01*
X145548986Y-108950997D01*
X145437333Y-108940000D01*
X145437322Y-108940000D01*
X145400000Y-108936324D01*
X145362678Y-108940000D01*
X132584256Y-108940000D01*
X132527932Y-108656842D01*
X132415990Y-108386589D01*
X132253475Y-108143368D01*
X132121620Y-108011513D01*
X132194180Y-107989502D01*
X132304494Y-107930537D01*
X132401185Y-107851185D01*
X132480537Y-107754494D01*
X132539502Y-107644180D01*
X132575812Y-107524482D01*
X132588072Y-107400000D01*
X132588072Y-106483740D01*
X151315000Y-106483740D01*
X151315000Y-106776260D01*
X151372068Y-107063158D01*
X151484010Y-107333411D01*
X151646525Y-107576632D01*
X151853368Y-107783475D01*
X152035534Y-107905195D01*
X151918645Y-107974822D01*
X151702412Y-108169731D01*
X151528359Y-108403080D01*
X151403175Y-108665901D01*
X151358524Y-108813110D01*
X151479845Y-109043000D01*
X152673000Y-109043000D01*
X152673000Y-109023000D01*
X152927000Y-109023000D01*
X152927000Y-109043000D01*
X154120155Y-109043000D01*
X154241476Y-108813110D01*
X154196825Y-108665901D01*
X154071641Y-108403080D01*
X153897588Y-108169731D01*
X153681355Y-107974822D01*
X153564466Y-107905195D01*
X153746632Y-107783475D01*
X153953475Y-107576632D01*
X154115990Y-107333411D01*
X154227932Y-107063158D01*
X154285000Y-106776260D01*
X154285000Y-106483740D01*
X154227932Y-106196842D01*
X154115990Y-105926589D01*
X154031406Y-105800000D01*
X159161928Y-105800000D01*
X159161928Y-107500000D01*
X159174188Y-107624482D01*
X159210498Y-107744180D01*
X159269463Y-107854494D01*
X159348815Y-107951185D01*
X159445506Y-108030537D01*
X159555820Y-108089502D01*
X159628380Y-108111513D01*
X159496525Y-108243368D01*
X159334010Y-108486589D01*
X159222068Y-108756842D01*
X159165000Y-109043740D01*
X159165000Y-109336260D01*
X159222068Y-109623158D01*
X159334010Y-109893411D01*
X159496525Y-110136632D01*
X159703368Y-110343475D01*
X159885534Y-110465195D01*
X159768645Y-110534822D01*
X159552412Y-110729731D01*
X159378359Y-110963080D01*
X159253175Y-111225901D01*
X159208524Y-111373110D01*
X159329845Y-111603000D01*
X160523000Y-111603000D01*
X160523000Y-111583000D01*
X160777000Y-111583000D01*
X160777000Y-111603000D01*
X161970155Y-111603000D01*
X162091476Y-111373110D01*
X162046825Y-111225901D01*
X161921641Y-110963080D01*
X161747588Y-110729731D01*
X161531355Y-110534822D01*
X161414466Y-110465195D01*
X161596632Y-110343475D01*
X161803475Y-110136632D01*
X161965990Y-109893411D01*
X162077932Y-109623158D01*
X162135000Y-109336260D01*
X162135000Y-109043740D01*
X162077932Y-108756842D01*
X161985142Y-108532824D01*
X168205098Y-108532824D01*
X168254666Y-108950451D01*
X168384757Y-109350383D01*
X168542786Y-109646038D01*
X168858347Y-109802048D01*
X170170395Y-108490000D01*
X168858347Y-107177952D01*
X168542786Y-107333962D01*
X168351980Y-107708745D01*
X168237956Y-108113551D01*
X168205098Y-108532824D01*
X161985142Y-108532824D01*
X161965990Y-108486589D01*
X161803475Y-108243368D01*
X161671620Y-108111513D01*
X161744180Y-108089502D01*
X161854494Y-108030537D01*
X161951185Y-107951185D01*
X162030537Y-107854494D01*
X162089502Y-107744180D01*
X162125812Y-107624482D01*
X162138072Y-107500000D01*
X162138072Y-105800000D01*
X162125812Y-105675518D01*
X162089502Y-105555820D01*
X162030537Y-105445506D01*
X161951185Y-105348815D01*
X161854494Y-105269463D01*
X161744180Y-105210498D01*
X161624482Y-105174188D01*
X161500000Y-105161928D01*
X159800000Y-105161928D01*
X159675518Y-105174188D01*
X159555820Y-105210498D01*
X159445506Y-105269463D01*
X159348815Y-105348815D01*
X159269463Y-105445506D01*
X159210498Y-105555820D01*
X159174188Y-105675518D01*
X159161928Y-105800000D01*
X154031406Y-105800000D01*
X153953475Y-105683368D01*
X153746632Y-105476525D01*
X153503411Y-105314010D01*
X153233158Y-105202068D01*
X152946260Y-105145000D01*
X152653740Y-105145000D01*
X152366842Y-105202068D01*
X152096589Y-105314010D01*
X151853368Y-105476525D01*
X151646525Y-105683368D01*
X151484010Y-105926589D01*
X151372068Y-106196842D01*
X151315000Y-106483740D01*
X132588072Y-106483740D01*
X132588072Y-105700000D01*
X132575812Y-105575518D01*
X132539502Y-105455820D01*
X132480537Y-105345506D01*
X132401185Y-105248815D01*
X132304494Y-105169463D01*
X132194180Y-105110498D01*
X132074482Y-105074188D01*
X131950000Y-105061928D01*
X130250000Y-105061928D01*
X130125518Y-105074188D01*
X130005820Y-105110498D01*
X129895506Y-105169463D01*
X129798815Y-105248815D01*
X129719463Y-105345506D01*
X129660498Y-105455820D01*
X129624188Y-105575518D01*
X129611928Y-105700000D01*
X129611928Y-106963271D01*
X128963986Y-107611213D01*
X128934988Y-107635011D01*
X128911190Y-107664009D01*
X128911189Y-107664010D01*
X128840014Y-107750736D01*
X128769442Y-107882766D01*
X128753135Y-107936525D01*
X128725986Y-108026026D01*
X128714988Y-108137679D01*
X128714988Y-108137690D01*
X128711312Y-108175012D01*
X128714988Y-108212334D01*
X128714988Y-108710210D01*
X124562543Y-112862655D01*
X124551185Y-112848815D01*
X124454494Y-112769463D01*
X124344180Y-112710498D01*
X124271620Y-112688487D01*
X124403475Y-112556632D01*
X124565990Y-112313411D01*
X124677932Y-112043158D01*
X124735000Y-111756260D01*
X124735000Y-111463740D01*
X124677932Y-111176842D01*
X124565990Y-110906589D01*
X124403475Y-110663368D01*
X124196632Y-110456525D01*
X124014466Y-110334805D01*
X124131355Y-110265178D01*
X124347588Y-110070269D01*
X124521641Y-109836920D01*
X124646825Y-109574099D01*
X124691476Y-109426890D01*
X124570155Y-109197000D01*
X123377000Y-109197000D01*
X123377000Y-109217000D01*
X123123000Y-109217000D01*
X123123000Y-109197000D01*
X121929845Y-109197000D01*
X121808524Y-109426890D01*
X121853175Y-109574099D01*
X121978359Y-109836920D01*
X122152412Y-110070269D01*
X122368645Y-110265178D01*
X122485534Y-110334805D01*
X122303368Y-110456525D01*
X122096525Y-110663368D01*
X121934010Y-110906589D01*
X121822068Y-111176842D01*
X121765000Y-111463740D01*
X121765000Y-111756260D01*
X121822068Y-112043158D01*
X121934010Y-112313411D01*
X122096525Y-112556632D01*
X122228380Y-112688487D01*
X122155820Y-112710498D01*
X122045506Y-112769463D01*
X121948815Y-112848815D01*
X121869463Y-112945506D01*
X121810498Y-113055820D01*
X121774188Y-113175518D01*
X121761928Y-113300000D01*
X121761928Y-114563271D01*
X121750198Y-114575001D01*
X115453562Y-114575001D01*
X115598020Y-114291255D01*
X115712044Y-113886449D01*
X115744902Y-113467176D01*
X115695334Y-113049549D01*
X115565243Y-112649617D01*
X115407214Y-112353962D01*
X115091653Y-112197952D01*
X113779605Y-113510000D01*
X113793748Y-113524143D01*
X113614143Y-113703748D01*
X113600000Y-113689605D01*
X113585858Y-113703748D01*
X113406253Y-113524143D01*
X113420395Y-113510000D01*
X113406253Y-113495858D01*
X113585858Y-113316253D01*
X113600000Y-113330395D01*
X114912048Y-112018347D01*
X114756038Y-111702786D01*
X114381255Y-111511980D01*
X113976449Y-111397956D01*
X113557176Y-111365098D01*
X113139549Y-111414666D01*
X112739617Y-111544757D01*
X112534999Y-111654126D01*
X112534999Y-111518802D01*
X112918800Y-111135002D01*
X116587197Y-111135002D01*
X118738199Y-113286005D01*
X118761997Y-113315003D01*
X118790995Y-113338801D01*
X118877722Y-113409976D01*
X119009751Y-113480548D01*
X119153012Y-113524005D01*
X119301998Y-113538679D01*
X119339331Y-113535002D01*
X119960680Y-113535002D01*
X119998002Y-113538678D01*
X120035324Y-113535002D01*
X120035335Y-113535002D01*
X120146988Y-113524005D01*
X120290249Y-113480548D01*
X120422278Y-113409976D01*
X120538003Y-113315003D01*
X120561806Y-113285999D01*
X120885999Y-112961806D01*
X120915003Y-112938003D01*
X121009976Y-112822278D01*
X121080548Y-112690249D01*
X121124005Y-112546988D01*
X121135002Y-112435335D01*
X121138679Y-112398002D01*
X121135002Y-112360669D01*
X121135002Y-111489331D01*
X121138679Y-111451998D01*
X121124005Y-111303012D01*
X121080548Y-111159751D01*
X121009976Y-111027722D01*
X120938801Y-110940995D01*
X120915003Y-110911997D01*
X120886006Y-110888200D01*
X116381546Y-106383740D01*
X121765000Y-106383740D01*
X121765000Y-106676260D01*
X121822068Y-106963158D01*
X121934010Y-107233411D01*
X122096525Y-107476632D01*
X122303368Y-107683475D01*
X122485534Y-107805195D01*
X122368645Y-107874822D01*
X122152412Y-108069731D01*
X121978359Y-108303080D01*
X121853175Y-108565901D01*
X121808524Y-108713110D01*
X121929845Y-108943000D01*
X123123000Y-108943000D01*
X123123000Y-108923000D01*
X123377000Y-108923000D01*
X123377000Y-108943000D01*
X124570155Y-108943000D01*
X124691476Y-108713110D01*
X124646825Y-108565901D01*
X124521641Y-108303080D01*
X124347588Y-108069731D01*
X124131355Y-107874822D01*
X124014466Y-107805195D01*
X124196632Y-107683475D01*
X124403475Y-107476632D01*
X124565990Y-107233411D01*
X124677932Y-106963158D01*
X124735000Y-106676260D01*
X124735000Y-106383740D01*
X124677932Y-106096842D01*
X124565990Y-105826589D01*
X124403475Y-105583368D01*
X124196632Y-105376525D01*
X123953411Y-105214010D01*
X123683158Y-105102068D01*
X123396260Y-105045000D01*
X123103740Y-105045000D01*
X122816842Y-105102068D01*
X122546589Y-105214010D01*
X122303368Y-105376525D01*
X122096525Y-105583368D01*
X121934010Y-105826589D01*
X121822068Y-106096842D01*
X121765000Y-106383740D01*
X116381546Y-106383740D01*
X116185001Y-106187196D01*
X116185001Y-103462323D01*
X116188677Y-103425000D01*
X116185001Y-103387678D01*
X116185001Y-103387668D01*
X116174004Y-103276015D01*
X116130547Y-103132754D01*
X116059975Y-103000725D01*
X115965002Y-102885000D01*
X115936003Y-102861201D01*
X115913802Y-102839000D01*
X115890001Y-102809999D01*
X115774276Y-102715026D01*
X115738072Y-102695674D01*
X115738072Y-101850000D01*
X115725812Y-101725518D01*
X115689502Y-101605820D01*
X115630537Y-101495506D01*
X115551185Y-101398815D01*
X115454494Y-101319463D01*
X115344180Y-101260498D01*
X115224482Y-101224188D01*
X115100000Y-101211928D01*
X112536729Y-101211928D01*
X112534999Y-101210198D01*
X112534999Y-99506132D01*
X112588698Y-99542012D01*
X112977244Y-99702953D01*
X113389721Y-99785000D01*
X113810279Y-99785000D01*
X114222756Y-99702953D01*
X114611302Y-99542012D01*
X114960983Y-99308363D01*
X115258363Y-99010983D01*
X115492012Y-98661302D01*
X115652953Y-98272756D01*
X115735000Y-97860279D01*
X115735000Y-97439721D01*
X115652953Y-97027244D01*
X115492012Y-96638698D01*
X115258363Y-96289017D01*
X114960983Y-95991637D01*
X114611302Y-95757988D01*
X114222756Y-95597047D01*
X113810279Y-95515000D01*
X113389721Y-95515000D01*
X112977244Y-95597047D01*
X112588698Y-95757988D01*
X112534999Y-95793868D01*
X112534999Y-94800000D01*
X134661928Y-94800000D01*
X134661928Y-97800000D01*
X134674188Y-97924482D01*
X134710498Y-98044180D01*
X134769463Y-98154494D01*
X134848815Y-98251185D01*
X134945506Y-98330537D01*
X135055820Y-98389502D01*
X135175518Y-98425812D01*
X135300000Y-98438072D01*
X138300000Y-98438072D01*
X138424482Y-98425812D01*
X138544180Y-98389502D01*
X138654494Y-98330537D01*
X138751185Y-98251185D01*
X138830537Y-98154494D01*
X138889502Y-98044180D01*
X138925812Y-97924482D01*
X138938072Y-97800000D01*
X138938072Y-94800000D01*
X138925812Y-94675518D01*
X138889502Y-94555820D01*
X138830537Y-94445506D01*
X138751185Y-94348815D01*
X138654494Y-94269463D01*
X138544180Y-94210498D01*
X138424482Y-94174188D01*
X138300000Y-94161928D01*
X135300000Y-94161928D01*
X135175518Y-94174188D01*
X135055820Y-94210498D01*
X134945506Y-94269463D01*
X134848815Y-94348815D01*
X134769463Y-94445506D01*
X134710498Y-94555820D01*
X134674188Y-94675518D01*
X134661928Y-94800000D01*
X112534999Y-94800000D01*
X112534999Y-94423562D01*
X112818745Y-94568020D01*
X113223551Y-94682044D01*
X113642824Y-94714902D01*
X114060451Y-94665334D01*
X114460383Y-94535243D01*
X114756038Y-94377214D01*
X114912048Y-94061653D01*
X113600000Y-92749605D01*
X113585858Y-92763748D01*
X113406253Y-92584143D01*
X113420395Y-92570000D01*
X113779605Y-92570000D01*
X115091653Y-93882048D01*
X115407214Y-93726038D01*
X115598020Y-93351255D01*
X115712044Y-92946449D01*
X115744902Y-92527176D01*
X115695334Y-92109549D01*
X115565243Y-91709617D01*
X115407214Y-91413962D01*
X115091653Y-91257952D01*
X113779605Y-92570000D01*
X113420395Y-92570000D01*
X113406253Y-92555858D01*
X113585858Y-92376253D01*
X113600000Y-92390395D01*
X114912048Y-91078347D01*
X114756038Y-90762786D01*
X114381255Y-90571980D01*
X114313038Y-90552765D01*
X115936004Y-88929800D01*
X115965002Y-88906002D01*
X116059975Y-88790277D01*
X116130547Y-88658248D01*
X116174004Y-88514987D01*
X116185001Y-88403334D01*
X116185001Y-88403325D01*
X116188677Y-88366002D01*
X116185001Y-88328679D01*
X116185001Y-85876210D01*
X118848101Y-83213110D01*
X122808524Y-83213110D01*
X122929845Y-83443000D01*
X124123000Y-83443000D01*
X124123000Y-82249186D01*
X124377000Y-82249186D01*
X124377000Y-83443000D01*
X125570155Y-83443000D01*
X125691476Y-83213110D01*
X125646825Y-83065901D01*
X125521641Y-82803080D01*
X125347588Y-82569731D01*
X125131355Y-82374822D01*
X124881252Y-82225843D01*
X124606891Y-82128519D01*
X124377000Y-82249186D01*
X124123000Y-82249186D01*
X123893109Y-82128519D01*
X123618748Y-82225843D01*
X123368645Y-82374822D01*
X123152412Y-82569731D01*
X122978359Y-82803080D01*
X122853175Y-83065901D01*
X122808524Y-83213110D01*
X118848101Y-83213110D01*
X121111015Y-80950197D01*
X121140012Y-80926400D01*
X121234985Y-80810675D01*
X121305557Y-80678646D01*
X121349014Y-80535385D01*
X121360011Y-80423732D01*
X121360011Y-80423723D01*
X121363687Y-80386400D01*
X121360011Y-80349077D01*
X121360011Y-79434790D01*
X122583592Y-78211210D01*
X122803740Y-78255000D01*
X123096260Y-78255000D01*
X123383158Y-78197932D01*
X123653411Y-78085990D01*
X123896632Y-77923475D01*
X124103475Y-77716632D01*
X124220000Y-77542240D01*
X124336525Y-77716632D01*
X124543368Y-77923475D01*
X124786589Y-78085990D01*
X125056842Y-78197932D01*
X125343740Y-78255000D01*
X125636260Y-78255000D01*
X125856408Y-78211210D01*
X126101201Y-78456003D01*
X126125000Y-78485002D01*
X126240725Y-78579975D01*
X126372754Y-78650547D01*
X126516015Y-78694004D01*
X126627668Y-78705001D01*
X126627677Y-78705001D01*
X126665000Y-78708677D01*
X126702323Y-78705001D01*
X129230200Y-78705001D01*
X129765199Y-79240000D01*
X125903711Y-79240000D01*
X125859774Y-79196063D01*
X125690256Y-79082795D01*
X125501898Y-79004774D01*
X125301939Y-78965000D01*
X125098061Y-78965000D01*
X124898102Y-79004774D01*
X124709744Y-79082795D01*
X124540226Y-79196063D01*
X124396063Y-79340226D01*
X124282795Y-79509744D01*
X124204774Y-79698102D01*
X124165000Y-79898061D01*
X124165000Y-80101939D01*
X124204774Y-80301898D01*
X124282795Y-80490256D01*
X124396063Y-80659774D01*
X124540226Y-80803937D01*
X124709744Y-80917205D01*
X124898102Y-80995226D01*
X125098061Y-81035000D01*
X125301939Y-81035000D01*
X125501898Y-80995226D01*
X125690256Y-80917205D01*
X125859774Y-80803937D01*
X125903711Y-80760000D01*
X130635199Y-80760000D01*
X131987126Y-82111928D01*
X130900000Y-82111928D01*
X130775518Y-82124188D01*
X130655820Y-82160498D01*
X130545506Y-82219463D01*
X130448815Y-82298815D01*
X130369463Y-82395506D01*
X130310498Y-82505820D01*
X130274188Y-82625518D01*
X130261928Y-82750000D01*
X130261928Y-84450000D01*
X130274188Y-84574482D01*
X130310498Y-84694180D01*
X130369463Y-84804494D01*
X130448815Y-84901185D01*
X130545506Y-84980537D01*
X130655820Y-85039502D01*
X130728380Y-85061513D01*
X130596525Y-85193368D01*
X130491867Y-85350000D01*
X125528178Y-85350000D01*
X125403475Y-85163368D01*
X125196632Y-84956525D01*
X125014466Y-84834805D01*
X125131355Y-84765178D01*
X125347588Y-84570269D01*
X125521641Y-84336920D01*
X125646825Y-84074099D01*
X125691476Y-83926890D01*
X125570155Y-83697000D01*
X124377000Y-83697000D01*
X124377000Y-83717000D01*
X124123000Y-83717000D01*
X124123000Y-83697000D01*
X122929845Y-83697000D01*
X122808524Y-83926890D01*
X122853175Y-84074099D01*
X122978359Y-84336920D01*
X123152412Y-84570269D01*
X123368645Y-84765178D01*
X123485534Y-84834805D01*
X123303368Y-84956525D01*
X123096525Y-85163368D01*
X122934010Y-85406589D01*
X122822068Y-85676842D01*
X122765000Y-85963740D01*
X122765000Y-86256260D01*
X122822068Y-86543158D01*
X122934010Y-86813411D01*
X123096525Y-87056632D01*
X123228380Y-87188487D01*
X123155820Y-87210498D01*
X123045506Y-87269463D01*
X122948815Y-87348815D01*
X122869463Y-87445506D01*
X122810498Y-87555820D01*
X122774188Y-87675518D01*
X122761928Y-87800000D01*
X122761928Y-89500000D01*
X122774188Y-89624482D01*
X122810498Y-89744180D01*
X122869463Y-89854494D01*
X122948815Y-89951185D01*
X123045506Y-90030537D01*
X123155820Y-90089502D01*
X123275518Y-90125812D01*
X123400000Y-90138072D01*
X125100000Y-90138072D01*
X125224482Y-90125812D01*
X125344180Y-90089502D01*
X125454494Y-90030537D01*
X125551185Y-89951185D01*
X125630537Y-89854494D01*
X125689502Y-89744180D01*
X125725812Y-89624482D01*
X125738072Y-89500000D01*
X125738072Y-87800000D01*
X125725812Y-87675518D01*
X125689502Y-87555820D01*
X125630537Y-87445506D01*
X125551185Y-87348815D01*
X125454494Y-87269463D01*
X125344180Y-87210498D01*
X125271620Y-87188487D01*
X125403475Y-87056632D01*
X125528178Y-86870000D01*
X129957034Y-86870000D01*
X129940025Y-86890725D01*
X129908342Y-86949999D01*
X129869453Y-87022755D01*
X129825996Y-87166016D01*
X129814999Y-87277669D01*
X129814999Y-87277679D01*
X129811323Y-87315001D01*
X129814999Y-87352324D01*
X129815000Y-89206669D01*
X129811323Y-89244001D01*
X129825997Y-89392986D01*
X129869453Y-89536247D01*
X129940025Y-89668277D01*
X129990901Y-89730269D01*
X130034999Y-89784002D01*
X130063997Y-89807800D01*
X131392209Y-91136013D01*
X131416007Y-91165011D01*
X131531732Y-91259984D01*
X131663761Y-91330556D01*
X131807022Y-91374013D01*
X131918675Y-91385010D01*
X131918683Y-91385010D01*
X131956008Y-91388686D01*
X131993333Y-91385010D01*
X136187668Y-91385010D01*
X136224990Y-91388686D01*
X136262312Y-91385010D01*
X136262323Y-91385010D01*
X136373976Y-91374013D01*
X136517237Y-91330556D01*
X136649266Y-91259984D01*
X136764991Y-91165011D01*
X136788794Y-91136008D01*
X136986729Y-90938072D01*
X137513271Y-90938072D01*
X139295000Y-92719802D01*
X139294999Y-94437676D01*
X139291323Y-94474999D01*
X139294999Y-94512321D01*
X139294999Y-94512331D01*
X139305996Y-94623984D01*
X139345739Y-94755000D01*
X139349453Y-94767245D01*
X139420025Y-94899275D01*
X139452641Y-94939017D01*
X139514998Y-95015000D01*
X139544002Y-95038803D01*
X139931140Y-95425941D01*
X139827047Y-95677244D01*
X139745000Y-96089721D01*
X139745000Y-96510279D01*
X139827047Y-96922756D01*
X139987988Y-97311302D01*
X140221637Y-97660983D01*
X140519017Y-97958363D01*
X140868698Y-98192012D01*
X141257244Y-98352953D01*
X141669721Y-98435000D01*
X142090279Y-98435000D01*
X142502756Y-98352953D01*
X142891302Y-98192012D01*
X143240983Y-97958363D01*
X143407693Y-97791653D01*
X145647952Y-97791653D01*
X145803962Y-98107214D01*
X146178745Y-98298020D01*
X146583551Y-98412044D01*
X147002824Y-98444902D01*
X147420451Y-98395334D01*
X147820383Y-98265243D01*
X148116038Y-98107214D01*
X148272048Y-97791653D01*
X146960000Y-96479605D01*
X145647952Y-97791653D01*
X143407693Y-97791653D01*
X143538363Y-97660983D01*
X143772012Y-97311302D01*
X143932953Y-96922756D01*
X144015000Y-96510279D01*
X144015000Y-96342824D01*
X144815098Y-96342824D01*
X144864666Y-96760451D01*
X144994757Y-97160383D01*
X145152786Y-97456038D01*
X145468347Y-97612048D01*
X146780395Y-96300000D01*
X147139605Y-96300000D01*
X148451653Y-97612048D01*
X148767214Y-97456038D01*
X148958020Y-97081255D01*
X149072044Y-96676449D01*
X149104902Y-96257176D01*
X149055334Y-95839549D01*
X148925243Y-95439617D01*
X148767214Y-95143962D01*
X148451653Y-94987952D01*
X147139605Y-96300000D01*
X146780395Y-96300000D01*
X145468347Y-94987952D01*
X145152786Y-95143962D01*
X144961980Y-95518745D01*
X144847956Y-95923551D01*
X144815098Y-96342824D01*
X144015000Y-96342824D01*
X144015000Y-96089721D01*
X143932953Y-95677244D01*
X143772012Y-95288698D01*
X143538363Y-94939017D01*
X143407693Y-94808347D01*
X145647952Y-94808347D01*
X146960000Y-96120395D01*
X148272048Y-94808347D01*
X148116038Y-94492786D01*
X147741255Y-94301980D01*
X147336449Y-94187956D01*
X146917176Y-94155098D01*
X146499549Y-94204666D01*
X146099617Y-94334757D01*
X145803962Y-94492786D01*
X145647952Y-94808347D01*
X143407693Y-94808347D01*
X143240983Y-94641637D01*
X142891302Y-94407988D01*
X142502756Y-94247047D01*
X142090279Y-94165000D01*
X141669721Y-94165000D01*
X141257244Y-94247047D01*
X141005941Y-94351140D01*
X140814999Y-94160198D01*
X140814999Y-92442332D01*
X140818676Y-92404999D01*
X140804002Y-92256013D01*
X140760545Y-92112752D01*
X140689973Y-91980723D01*
X140618798Y-91893996D01*
X140595000Y-91864998D01*
X140566002Y-91841200D01*
X139789814Y-91065012D01*
X144757666Y-91065012D01*
X144794988Y-91068688D01*
X144832310Y-91065012D01*
X144832321Y-91065012D01*
X144943974Y-91054015D01*
X145087235Y-91010558D01*
X145219264Y-90939986D01*
X145334989Y-90845013D01*
X145358792Y-90816009D01*
X146189802Y-89985000D01*
X146251939Y-89985000D01*
X146451898Y-89945226D01*
X146640256Y-89867205D01*
X146809774Y-89753937D01*
X146953937Y-89609774D01*
X147067205Y-89440256D01*
X147145226Y-89251898D01*
X147185000Y-89051939D01*
X147185000Y-88848061D01*
X147145226Y-88648102D01*
X147067205Y-88459744D01*
X146953937Y-88290226D01*
X146809774Y-88146063D01*
X146640256Y-88032795D01*
X146451898Y-87954774D01*
X146251939Y-87915000D01*
X146048061Y-87915000D01*
X145848102Y-87954774D01*
X145659744Y-88032795D01*
X145490226Y-88146063D01*
X145346063Y-88290226D01*
X145232795Y-88459744D01*
X145154774Y-88648102D01*
X145115000Y-88848061D01*
X145115000Y-88910198D01*
X144751388Y-89273811D01*
X144817932Y-89113158D01*
X144875000Y-88826260D01*
X144875000Y-88533740D01*
X144817932Y-88246842D01*
X144705990Y-87976589D01*
X144543475Y-87733368D01*
X144336632Y-87526525D01*
X144162240Y-87410000D01*
X144336632Y-87293475D01*
X144543475Y-87086632D01*
X144654815Y-86920000D01*
X150471822Y-86920000D01*
X150596525Y-87106632D01*
X150728380Y-87238487D01*
X150655820Y-87260498D01*
X150545506Y-87319463D01*
X150448815Y-87398815D01*
X150369463Y-87495506D01*
X150310498Y-87605820D01*
X150274188Y-87725518D01*
X150261928Y-87850000D01*
X150261928Y-89550000D01*
X150274188Y-89674482D01*
X150310498Y-89794180D01*
X150369463Y-89904494D01*
X150448815Y-90001185D01*
X150545506Y-90080537D01*
X150655820Y-90139502D01*
X150775518Y-90175812D01*
X150900000Y-90188072D01*
X152600000Y-90188072D01*
X152724482Y-90175812D01*
X152844180Y-90139502D01*
X152954494Y-90080537D01*
X153051185Y-90001185D01*
X153130537Y-89904494D01*
X153189502Y-89794180D01*
X153225812Y-89674482D01*
X153238072Y-89550000D01*
X153238072Y-89086890D01*
X158058524Y-89086890D01*
X158103175Y-89234099D01*
X158228359Y-89496920D01*
X158402412Y-89730269D01*
X158618645Y-89925178D01*
X158868748Y-90074157D01*
X159143109Y-90171481D01*
X159373000Y-90050814D01*
X159373000Y-88857000D01*
X159627000Y-88857000D01*
X159627000Y-90050814D01*
X159856891Y-90171481D01*
X160131252Y-90074157D01*
X160381355Y-89925178D01*
X160597588Y-89730269D01*
X160771641Y-89496920D01*
X160896825Y-89234099D01*
X160941476Y-89086890D01*
X160820155Y-88857000D01*
X159627000Y-88857000D01*
X159373000Y-88857000D01*
X158179845Y-88857000D01*
X158058524Y-89086890D01*
X153238072Y-89086890D01*
X153238072Y-87850000D01*
X153225812Y-87725518D01*
X153189502Y-87605820D01*
X153130537Y-87495506D01*
X153051185Y-87398815D01*
X152954494Y-87319463D01*
X152844180Y-87260498D01*
X152771620Y-87238487D01*
X152903475Y-87106632D01*
X153028178Y-86920000D01*
X153098368Y-86920000D01*
X153161014Y-86939003D01*
X153272667Y-86950000D01*
X153272677Y-86950000D01*
X153309999Y-86953676D01*
X153347322Y-86950000D01*
X158221822Y-86950000D01*
X158346525Y-87136632D01*
X158553368Y-87343475D01*
X158735534Y-87465195D01*
X158618645Y-87534822D01*
X158402412Y-87729731D01*
X158228359Y-87963080D01*
X158103175Y-88225901D01*
X158058524Y-88373110D01*
X158179845Y-88603000D01*
X159373000Y-88603000D01*
X159373000Y-88583000D01*
X159627000Y-88583000D01*
X159627000Y-88603000D01*
X160820155Y-88603000D01*
X160941476Y-88373110D01*
X160896825Y-88225901D01*
X160771641Y-87963080D01*
X160597588Y-87729731D01*
X160381355Y-87534822D01*
X160264466Y-87465195D01*
X160446632Y-87343475D01*
X160653475Y-87136632D01*
X160815990Y-86893411D01*
X160927932Y-86623158D01*
X160985000Y-86336260D01*
X160985000Y-86100001D01*
X168756913Y-86100001D01*
X168743653Y-86113261D01*
X168858345Y-86227953D01*
X168542786Y-86383962D01*
X168351980Y-86758745D01*
X168237956Y-87163551D01*
X168205098Y-87582824D01*
X168254666Y-88000451D01*
X168384757Y-88400383D01*
X168542786Y-88696038D01*
X168858347Y-88852048D01*
X170170395Y-87540000D01*
X170156253Y-87525858D01*
X170335858Y-87346253D01*
X170350000Y-87360395D01*
X170364143Y-87346253D01*
X170543748Y-87525858D01*
X170529605Y-87540000D01*
X170543748Y-87554143D01*
X170364143Y-87733748D01*
X170350000Y-87719605D01*
X169037952Y-89031653D01*
X169193962Y-89347214D01*
X169568745Y-89538020D01*
X169973551Y-89652044D01*
X170392824Y-89684902D01*
X170810451Y-89635334D01*
X171210383Y-89505243D01*
X171506038Y-89347214D01*
X171590001Y-89177383D01*
X171590001Y-90880799D01*
X171361302Y-90727988D01*
X170972756Y-90567047D01*
X170560279Y-90485000D01*
X170139721Y-90485000D01*
X169727244Y-90567047D01*
X169338698Y-90727988D01*
X168989017Y-90961637D01*
X168691637Y-91259017D01*
X168457988Y-91608698D01*
X168297047Y-91997244D01*
X168215000Y-92409721D01*
X168215000Y-92830279D01*
X168297047Y-93242756D01*
X168457988Y-93631302D01*
X168691637Y-93980983D01*
X168989017Y-94278363D01*
X169338698Y-94512012D01*
X169727244Y-94672953D01*
X170139721Y-94755000D01*
X170560279Y-94755000D01*
X170972756Y-94672953D01*
X171361302Y-94512012D01*
X171590000Y-94359201D01*
X171590000Y-95561928D01*
X168850000Y-95561928D01*
X168725518Y-95574188D01*
X168605820Y-95610498D01*
X168495506Y-95669463D01*
X168398815Y-95748815D01*
X168319463Y-95845506D01*
X168260498Y-95955820D01*
X168224188Y-96075518D01*
X168211928Y-96200000D01*
X168211928Y-96940000D01*
X165587322Y-96940000D01*
X165549999Y-96936324D01*
X165512676Y-96940000D01*
X165512667Y-96940000D01*
X165401014Y-96950997D01*
X165257753Y-96994454D01*
X165125724Y-97065026D01*
X165009999Y-97159999D01*
X164986201Y-97188997D01*
X162460199Y-99715000D01*
X162398061Y-99715000D01*
X162198102Y-99754774D01*
X162009744Y-99832795D01*
X161840226Y-99946063D01*
X161696063Y-100090226D01*
X161582795Y-100259744D01*
X161504774Y-100448102D01*
X161465000Y-100648061D01*
X161465000Y-100851939D01*
X161504774Y-101051898D01*
X161582795Y-101240256D01*
X161696063Y-101409774D01*
X161840226Y-101553937D01*
X162009744Y-101667205D01*
X162198102Y-101745226D01*
X162398061Y-101785000D01*
X162601939Y-101785000D01*
X162801898Y-101745226D01*
X162990256Y-101667205D01*
X163159774Y-101553937D01*
X163303937Y-101409774D01*
X163417205Y-101240256D01*
X163495226Y-101051898D01*
X163535000Y-100851939D01*
X163535000Y-100789801D01*
X165864802Y-98460000D01*
X168211928Y-98460000D01*
X168211928Y-99200000D01*
X168224188Y-99324482D01*
X168260498Y-99444180D01*
X168319463Y-99554494D01*
X168398815Y-99651185D01*
X168495506Y-99730537D01*
X168605820Y-99789502D01*
X168725518Y-99825812D01*
X168850000Y-99838072D01*
X171413270Y-99838072D01*
X171415002Y-99839804D01*
X171415002Y-101553869D01*
X171361302Y-101517988D01*
X170972756Y-101357047D01*
X170560279Y-101275000D01*
X170139721Y-101275000D01*
X169727244Y-101357047D01*
X169338698Y-101517988D01*
X168989017Y-101751637D01*
X168691637Y-102049017D01*
X168457988Y-102398698D01*
X168297047Y-102787244D01*
X168215000Y-103199721D01*
X168215000Y-103620279D01*
X168297047Y-104032756D01*
X168457988Y-104421302D01*
X168691637Y-104770983D01*
X168989017Y-105068363D01*
X169338698Y-105302012D01*
X169727244Y-105462953D01*
X170139721Y-105545000D01*
X170560279Y-105545000D01*
X170972756Y-105462953D01*
X171361302Y-105302012D01*
X171415002Y-105266131D01*
X171415002Y-106636438D01*
X171131255Y-106491980D01*
X170726449Y-106377956D01*
X170307176Y-106345098D01*
X169889549Y-106394666D01*
X169489617Y-106524757D01*
X169193962Y-106682786D01*
X169037952Y-106998347D01*
X170350000Y-108310395D01*
X170364143Y-108296253D01*
X170543748Y-108475858D01*
X170529605Y-108490000D01*
X170543748Y-108504143D01*
X170364143Y-108683748D01*
X170350000Y-108669605D01*
X169037952Y-109981653D01*
X169193962Y-110297214D01*
X169568745Y-110488020D01*
X169973551Y-110602044D01*
X170392824Y-110634902D01*
X170810451Y-110585334D01*
X171210383Y-110455243D01*
X171415001Y-110345873D01*
X171415001Y-111713869D01*
X171361302Y-111677988D01*
X170972756Y-111517047D01*
X170560279Y-111435000D01*
X170139721Y-111435000D01*
X169727244Y-111517047D01*
X169338698Y-111677988D01*
X168989017Y-111911637D01*
X168691637Y-112209017D01*
X168457988Y-112558698D01*
X168297047Y-112947244D01*
X168215000Y-113359721D01*
X168215000Y-113780279D01*
X168297047Y-114192756D01*
X168457988Y-114581302D01*
X168691637Y-114930983D01*
X168989017Y-115228363D01*
X169338698Y-115462012D01*
X169727244Y-115622953D01*
X170139721Y-115705000D01*
X170560279Y-115705000D01*
X170972756Y-115622953D01*
X171361302Y-115462012D01*
X171415001Y-115426131D01*
X171415001Y-116511928D01*
X168850000Y-116511928D01*
X168725518Y-116524188D01*
X168605820Y-116560498D01*
X168495506Y-116619463D01*
X168398815Y-116698815D01*
X168319463Y-116795506D01*
X168260498Y-116905820D01*
X168224188Y-117025518D01*
X168211928Y-117150000D01*
X168211928Y-117890000D01*
X157414802Y-117890000D01*
X154288072Y-114763271D01*
X154288072Y-114123740D01*
X159165000Y-114123740D01*
X159165000Y-114416260D01*
X159222068Y-114703158D01*
X159334010Y-114973411D01*
X159496525Y-115216632D01*
X159703368Y-115423475D01*
X159946589Y-115585990D01*
X160216842Y-115697932D01*
X160503740Y-115755000D01*
X160796260Y-115755000D01*
X161083158Y-115697932D01*
X161353411Y-115585990D01*
X161596632Y-115423475D01*
X161803475Y-115216632D01*
X161965990Y-114973411D01*
X162077932Y-114703158D01*
X162135000Y-114416260D01*
X162135000Y-114123740D01*
X162077932Y-113836842D01*
X161965990Y-113566589D01*
X161803475Y-113323368D01*
X161596632Y-113116525D01*
X161414466Y-112994805D01*
X161531355Y-112925178D01*
X161747588Y-112730269D01*
X161921641Y-112496920D01*
X162046825Y-112234099D01*
X162091476Y-112086890D01*
X161970155Y-111857000D01*
X160777000Y-111857000D01*
X160777000Y-111877000D01*
X160523000Y-111877000D01*
X160523000Y-111857000D01*
X159329845Y-111857000D01*
X159208524Y-112086890D01*
X159253175Y-112234099D01*
X159378359Y-112496920D01*
X159552412Y-112730269D01*
X159768645Y-112925178D01*
X159885534Y-112994805D01*
X159703368Y-113116525D01*
X159496525Y-113323368D01*
X159334010Y-113566589D01*
X159222068Y-113836842D01*
X159165000Y-114123740D01*
X154288072Y-114123740D01*
X154288072Y-113400000D01*
X154275812Y-113275518D01*
X154239502Y-113155820D01*
X154180537Y-113045506D01*
X154101185Y-112948815D01*
X154004494Y-112869463D01*
X153894180Y-112810498D01*
X153821620Y-112788487D01*
X153953475Y-112656632D01*
X154115990Y-112413411D01*
X154227932Y-112143158D01*
X154285000Y-111856260D01*
X154285000Y-111563740D01*
X154227932Y-111276842D01*
X154115990Y-111006589D01*
X153953475Y-110763368D01*
X153746632Y-110556525D01*
X153564466Y-110434805D01*
X153681355Y-110365178D01*
X153897588Y-110170269D01*
X154071641Y-109936920D01*
X154196825Y-109674099D01*
X154241476Y-109526890D01*
X154120155Y-109297000D01*
X152927000Y-109297000D01*
X152927000Y-109317000D01*
X152673000Y-109317000D01*
X152673000Y-109297000D01*
X151479845Y-109297000D01*
X151358524Y-109526890D01*
X151403175Y-109674099D01*
X151528359Y-109936920D01*
X151702412Y-110170269D01*
X151918645Y-110365178D01*
X152035534Y-110434805D01*
X151853368Y-110556525D01*
X151646525Y-110763368D01*
X151484010Y-111006589D01*
X151372068Y-111276842D01*
X151315000Y-111563740D01*
X151315000Y-111856260D01*
X151372068Y-112143158D01*
X151484010Y-112413411D01*
X151646525Y-112656632D01*
X151778380Y-112788487D01*
X151705820Y-112810498D01*
X151595506Y-112869463D01*
X151498815Y-112948815D01*
X151419463Y-113045506D01*
X151360498Y-113155820D01*
X151324188Y-113275518D01*
X151311928Y-113400000D01*
X151311928Y-113963270D01*
X149510199Y-115765000D01*
X149448061Y-115765000D01*
X149248102Y-115804774D01*
X149059744Y-115882795D01*
X148890226Y-115996063D01*
X148746063Y-116140226D01*
X148632795Y-116309744D01*
X148554774Y-116498102D01*
X148515000Y-116698061D01*
X148515000Y-116901939D01*
X148554774Y-117101898D01*
X148632795Y-117290256D01*
X148746063Y-117459774D01*
X148890226Y-117603937D01*
X149059744Y-117717205D01*
X149248102Y-117795226D01*
X149448061Y-117835000D01*
X149651939Y-117835000D01*
X149851898Y-117795226D01*
X150040256Y-117717205D01*
X150209774Y-117603937D01*
X150353937Y-117459774D01*
X150467205Y-117290256D01*
X150545226Y-117101898D01*
X150585000Y-116901939D01*
X150585000Y-116839801D01*
X151728438Y-115696363D01*
X151825518Y-115725812D01*
X151950000Y-115738072D01*
X153113271Y-115738072D01*
X156536201Y-119161003D01*
X156559999Y-119190001D01*
X156675724Y-119284974D01*
X156807753Y-119355546D01*
X156951014Y-119399003D01*
X157062667Y-119410000D01*
X157062676Y-119410000D01*
X157099999Y-119413676D01*
X157137322Y-119410000D01*
X168211928Y-119410000D01*
X168211928Y-120150000D01*
X168224188Y-120274482D01*
X168260498Y-120394180D01*
X168319463Y-120504494D01*
X168398815Y-120601185D01*
X168495506Y-120680537D01*
X168605820Y-120739502D01*
X168725518Y-120775812D01*
X168850000Y-120788072D01*
X169086124Y-120788072D01*
X165353145Y-124521051D01*
X165422044Y-124276449D01*
X165454902Y-123857176D01*
X165405334Y-123439549D01*
X165275243Y-123039617D01*
X165117214Y-122743962D01*
X164801653Y-122587952D01*
X163489605Y-123900000D01*
X163503748Y-123914143D01*
X163324143Y-124093748D01*
X163310000Y-124079605D01*
X163295858Y-124093748D01*
X163116253Y-123914143D01*
X163130395Y-123900000D01*
X161818347Y-122587952D01*
X161502786Y-122743962D01*
X161311980Y-123118745D01*
X161197956Y-123523551D01*
X161165098Y-123942824D01*
X161214666Y-124360451D01*
X161344757Y-124760383D01*
X161454126Y-124965001D01*
X160369803Y-124965001D01*
X160178860Y-124774058D01*
X160282953Y-124522756D01*
X160365000Y-124110279D01*
X160365000Y-123689721D01*
X160282953Y-123277244D01*
X160122012Y-122888698D01*
X159888363Y-122539017D01*
X159757693Y-122408347D01*
X161997952Y-122408347D01*
X163310000Y-123720395D01*
X164622048Y-122408347D01*
X164466038Y-122092786D01*
X164091255Y-121901980D01*
X163686449Y-121787956D01*
X163267176Y-121755098D01*
X162849549Y-121804666D01*
X162449617Y-121934757D01*
X162153962Y-122092786D01*
X161997952Y-122408347D01*
X159757693Y-122408347D01*
X159590983Y-122241637D01*
X159241302Y-122007988D01*
X158852756Y-121847047D01*
X158440279Y-121765000D01*
X158019721Y-121765000D01*
X157607244Y-121847047D01*
X157218698Y-122007988D01*
X156869017Y-122241637D01*
X156571637Y-122539017D01*
X156337988Y-122888698D01*
X156177047Y-123277244D01*
X156095000Y-123689721D01*
X156095000Y-124110279D01*
X156177047Y-124522756D01*
X156281140Y-124774059D01*
X156090198Y-124965001D01*
X155288072Y-124965001D01*
X155288072Y-122400000D01*
X155275812Y-122275518D01*
X155239502Y-122155820D01*
X155180537Y-122045506D01*
X155101185Y-121948815D01*
X155004494Y-121869463D01*
X154894180Y-121810498D01*
X154774482Y-121774188D01*
X154650000Y-121761928D01*
X151650000Y-121761928D01*
X151525518Y-121774188D01*
X151405820Y-121810498D01*
X151295506Y-121869463D01*
X151198815Y-121948815D01*
X151119463Y-122045506D01*
X151060498Y-122155820D01*
X151024188Y-122275518D01*
X151011928Y-122400000D01*
X151011928Y-124965001D01*
X148963562Y-124965001D01*
X149108020Y-124681255D01*
X149222044Y-124276449D01*
X149254902Y-123857176D01*
X149205334Y-123439549D01*
X149075243Y-123039617D01*
X148917214Y-122743962D01*
X148601653Y-122587952D01*
X147289605Y-123900000D01*
X147303748Y-123914143D01*
X147124143Y-124093748D01*
X147110000Y-124079605D01*
X147095858Y-124093748D01*
X146916253Y-123914143D01*
X146930395Y-123900000D01*
X145618347Y-122587952D01*
X145302786Y-122743962D01*
X145111980Y-123118745D01*
X144997956Y-123523551D01*
X144965098Y-123942824D01*
X145014666Y-124360451D01*
X145144757Y-124760383D01*
X145254126Y-124965001D01*
X144169803Y-124965001D01*
X143978860Y-124774058D01*
X144082953Y-124522756D01*
X144165000Y-124110279D01*
X144165000Y-123689721D01*
X144082953Y-123277244D01*
X143922012Y-122888698D01*
X143688363Y-122539017D01*
X143557693Y-122408347D01*
X145797952Y-122408347D01*
X147110000Y-123720395D01*
X148422048Y-122408347D01*
X148266038Y-122092786D01*
X147891255Y-121901980D01*
X147486449Y-121787956D01*
X147067176Y-121755098D01*
X146649549Y-121804666D01*
X146249617Y-121934757D01*
X145953962Y-122092786D01*
X145797952Y-122408347D01*
X143557693Y-122408347D01*
X143390983Y-122241637D01*
X143041302Y-122007988D01*
X142652756Y-121847047D01*
X142240279Y-121765000D01*
X141819721Y-121765000D01*
X141407244Y-121847047D01*
X141155941Y-121951140D01*
X140768803Y-121564002D01*
X140745000Y-121534998D01*
X140629275Y-121440025D01*
X140497246Y-121369453D01*
X140353985Y-121325996D01*
X140242332Y-121314999D01*
X140242321Y-121314999D01*
X140204999Y-121311323D01*
X140167677Y-121314999D01*
X135227321Y-121314999D01*
X135189998Y-121311323D01*
X135152675Y-121314999D01*
X135152666Y-121314999D01*
X135041013Y-121325996D01*
X134897752Y-121369453D01*
X134765722Y-121440025D01*
X134692336Y-121500252D01*
X134649998Y-121534998D01*
X134626200Y-121563996D01*
X132905095Y-123285102D01*
X132825243Y-123039617D01*
X132667214Y-122743962D01*
X132351653Y-122587952D01*
X131039605Y-123900000D01*
X131053748Y-123914143D01*
X130874143Y-124093748D01*
X130860000Y-124079605D01*
X130845858Y-124093748D01*
X130666253Y-123914143D01*
X130680395Y-123900000D01*
X129368347Y-122587952D01*
X129052786Y-122743962D01*
X128861980Y-123118745D01*
X128747956Y-123523551D01*
X128715098Y-123942824D01*
X128764666Y-124360451D01*
X128894757Y-124760383D01*
X129004126Y-124965001D01*
X127919803Y-124965001D01*
X127728860Y-124774058D01*
X127832953Y-124522756D01*
X127915000Y-124110279D01*
X127915000Y-123689721D01*
X127832953Y-123277244D01*
X127672012Y-122888698D01*
X127438363Y-122539017D01*
X127307693Y-122408347D01*
X129547952Y-122408347D01*
X130860000Y-123720395D01*
X132172048Y-122408347D01*
X132016038Y-122092786D01*
X131641255Y-121901980D01*
X131236449Y-121787956D01*
X130817176Y-121755098D01*
X130399549Y-121804666D01*
X129999617Y-121934757D01*
X129703962Y-122092786D01*
X129547952Y-122408347D01*
X127307693Y-122408347D01*
X127140983Y-122241637D01*
X126791302Y-122007988D01*
X126402756Y-121847047D01*
X125990279Y-121765000D01*
X125569721Y-121765000D01*
X125157244Y-121847047D01*
X124768698Y-122007988D01*
X124419017Y-122241637D01*
X124121637Y-122539017D01*
X123887988Y-122888698D01*
X123727047Y-123277244D01*
X123645000Y-123689721D01*
X123645000Y-124110279D01*
X123727047Y-124522756D01*
X123887988Y-124911302D01*
X124121637Y-125260983D01*
X124419017Y-125558363D01*
X124768698Y-125792012D01*
X125157244Y-125952953D01*
X125569721Y-126035000D01*
X125990279Y-126035000D01*
X126402756Y-125952953D01*
X126654058Y-125848860D01*
X127041202Y-126236004D01*
X127065000Y-126265002D01*
X127180725Y-126359975D01*
X127312754Y-126430547D01*
X127456015Y-126474004D01*
X127567668Y-126485001D01*
X127567677Y-126485001D01*
X127605000Y-126488677D01*
X127642323Y-126485001D01*
X131698679Y-126485001D01*
X131736001Y-126488677D01*
X131773323Y-126485001D01*
X131773334Y-126485001D01*
X131884987Y-126474004D01*
X132028248Y-126430547D01*
X132160277Y-126359975D01*
X132276002Y-126265002D01*
X132299805Y-126235999D01*
X133196005Y-125339799D01*
X133225002Y-125316002D01*
X133319975Y-125200277D01*
X133390547Y-125068248D01*
X133434004Y-124924987D01*
X133436101Y-124903698D01*
X134811928Y-123527872D01*
X134811928Y-125400000D01*
X134824188Y-125524482D01*
X134860498Y-125644180D01*
X134919463Y-125754494D01*
X134998815Y-125851185D01*
X135095506Y-125930537D01*
X135205820Y-125989502D01*
X135325518Y-126025812D01*
X135450000Y-126038072D01*
X138450000Y-126038072D01*
X138574482Y-126025812D01*
X138694180Y-125989502D01*
X138804494Y-125930537D01*
X138901185Y-125851185D01*
X138980537Y-125754494D01*
X139039502Y-125644180D01*
X139075812Y-125524482D01*
X139088072Y-125400000D01*
X139088072Y-122834999D01*
X139890198Y-122834999D01*
X140081140Y-123025941D01*
X139977047Y-123277244D01*
X139895000Y-123689721D01*
X139895000Y-124110279D01*
X139977047Y-124522756D01*
X140137988Y-124911302D01*
X140371637Y-125260983D01*
X140669017Y-125558363D01*
X141018698Y-125792012D01*
X141407244Y-125952953D01*
X141819721Y-126035000D01*
X142240279Y-126035000D01*
X142652756Y-125952953D01*
X142904058Y-125848860D01*
X143291202Y-126236004D01*
X143315000Y-126265002D01*
X143430725Y-126359975D01*
X143562754Y-126430547D01*
X143706015Y-126474004D01*
X143817668Y-126485001D01*
X143817677Y-126485001D01*
X143855000Y-126488677D01*
X143892323Y-126485001D01*
X156367677Y-126485001D01*
X156404999Y-126488677D01*
X156442321Y-126485001D01*
X156442332Y-126485001D01*
X156553985Y-126474004D01*
X156697246Y-126430547D01*
X156829275Y-126359975D01*
X156945000Y-126265002D01*
X156968803Y-126235998D01*
X157355941Y-125848860D01*
X157607244Y-125952953D01*
X158019721Y-126035000D01*
X158440279Y-126035000D01*
X158852756Y-125952953D01*
X159104058Y-125848860D01*
X159491202Y-126236004D01*
X159515000Y-126265002D01*
X159630725Y-126359975D01*
X159762754Y-126430547D01*
X159906015Y-126474004D01*
X160017668Y-126485001D01*
X160017677Y-126485001D01*
X160055000Y-126488677D01*
X160092323Y-126485001D01*
X165186675Y-126485001D01*
X165223997Y-126488677D01*
X165261319Y-126485001D01*
X165261330Y-126485001D01*
X165372983Y-126474004D01*
X165516244Y-126430547D01*
X165648273Y-126359975D01*
X165763998Y-126265002D01*
X165787801Y-126235998D01*
X167615000Y-124408799D01*
X167615000Y-124833393D01*
X167745083Y-125487368D01*
X168000252Y-126103399D01*
X168370698Y-126657812D01*
X168842188Y-127129302D01*
X169157521Y-127340000D01*
X114842479Y-127340000D01*
X115157812Y-127129302D01*
X115629302Y-126657812D01*
X115999748Y-126103399D01*
X116254917Y-125487368D01*
X116385000Y-124833393D01*
X116385000Y-124166607D01*
X116254917Y-123512632D01*
X115999748Y-122896601D01*
X115667931Y-122400000D01*
X118561928Y-122400000D01*
X118561928Y-125400000D01*
X118574188Y-125524482D01*
X118610498Y-125644180D01*
X118669463Y-125754494D01*
X118748815Y-125851185D01*
X118845506Y-125930537D01*
X118955820Y-125989502D01*
X119075518Y-126025812D01*
X119200000Y-126038072D01*
X122200000Y-126038072D01*
X122324482Y-126025812D01*
X122444180Y-125989502D01*
X122554494Y-125930537D01*
X122651185Y-125851185D01*
X122730537Y-125754494D01*
X122789502Y-125644180D01*
X122825812Y-125524482D01*
X122838072Y-125400000D01*
X122838072Y-122400000D01*
X122825812Y-122275518D01*
X122789502Y-122155820D01*
X122730537Y-122045506D01*
X122651185Y-121948815D01*
X122554494Y-121869463D01*
X122444180Y-121810498D01*
X122324482Y-121774188D01*
X122200000Y-121761928D01*
X119200000Y-121761928D01*
X119075518Y-121774188D01*
X118955820Y-121810498D01*
X118845506Y-121869463D01*
X118748815Y-121948815D01*
X118669463Y-122045506D01*
X118610498Y-122155820D01*
X118574188Y-122275518D01*
X118561928Y-122400000D01*
X115667931Y-122400000D01*
X115629302Y-122342188D01*
X115157812Y-121870698D01*
X114603399Y-121500252D01*
X113987368Y-121245083D01*
X113333393Y-121115000D01*
X112666607Y-121115000D01*
X112012632Y-121245083D01*
X111396601Y-121500252D01*
X110842188Y-121870698D01*
X110370698Y-122342188D01*
X110160000Y-122657521D01*
X110160000Y-118379721D01*
X111465000Y-118379721D01*
X111465000Y-118800279D01*
X111547047Y-119212756D01*
X111707988Y-119601302D01*
X111941637Y-119950983D01*
X112239017Y-120248363D01*
X112588698Y-120482012D01*
X112977244Y-120642953D01*
X113389721Y-120725000D01*
X113810279Y-120725000D01*
X114222756Y-120642953D01*
X114611302Y-120482012D01*
X114960983Y-120248363D01*
X115258363Y-119950983D01*
X115492012Y-119601302D01*
X115652953Y-119212756D01*
X115735000Y-118800279D01*
X115735000Y-118379721D01*
X115652953Y-117967244D01*
X115492012Y-117578698D01*
X115258363Y-117229017D01*
X114960983Y-116931637D01*
X114611302Y-116697988D01*
X114222756Y-116537047D01*
X113810279Y-116455000D01*
X113389721Y-116455000D01*
X112977244Y-116537047D01*
X112588698Y-116697988D01*
X112239017Y-116931637D01*
X111941637Y-117229017D01*
X111707988Y-117578698D01*
X111547047Y-117967244D01*
X111465000Y-118379721D01*
X110160000Y-118379721D01*
X110160000Y-77342479D01*
X110370698Y-77657812D01*
X110842188Y-78129302D01*
X111396601Y-78499748D01*
X112012632Y-78754917D01*
X112666607Y-78885000D01*
X113333393Y-78885000D01*
X113987368Y-78754917D01*
X114603399Y-78499748D01*
X115157812Y-78129302D01*
X115629302Y-77657812D01*
X115999748Y-77103399D01*
X116254917Y-76487368D01*
X116385000Y-75833393D01*
X116385000Y-75166607D01*
X116254917Y-74512632D01*
X115999748Y-73896601D01*
X115629302Y-73342188D01*
X115157812Y-72870698D01*
X114842479Y-72660000D01*
X169157521Y-72660000D01*
X168842188Y-72870698D01*
%TA.AperFunction,Conductor*%
D18*
G36*
X168842188Y-72870698D02*
G01*
X168370698Y-73342188D01*
X168000252Y-73896601D01*
X167745083Y-74512632D01*
X167615000Y-75166607D01*
X167615000Y-75833393D01*
X167745083Y-76487368D01*
X168000252Y-77103399D01*
X168370698Y-77657812D01*
X168842188Y-78129302D01*
X169396601Y-78499748D01*
X170012632Y-78754917D01*
X170666607Y-78885000D01*
X171333393Y-78885000D01*
X171987368Y-78754917D01*
X172603399Y-78499748D01*
X173157812Y-78129302D01*
X173629302Y-77657812D01*
X173840001Y-77342478D01*
X173840000Y-122657521D01*
X173629302Y-122342188D01*
X173157812Y-121870698D01*
X172603399Y-121500252D01*
X171987368Y-121245083D01*
X171936682Y-121235001D01*
X172072679Y-121235001D01*
X172110001Y-121238677D01*
X172147323Y-121235001D01*
X172147334Y-121235001D01*
X172258987Y-121224004D01*
X172402248Y-121180547D01*
X172534277Y-121109975D01*
X172650002Y-121015002D01*
X172673804Y-120985999D01*
X173136015Y-120523788D01*
X173165013Y-120499991D01*
X173259986Y-120384266D01*
X173330558Y-120252237D01*
X173374015Y-120108976D01*
X173385012Y-119997323D01*
X173385012Y-119997322D01*
X173388689Y-119959990D01*
X173385012Y-119922657D01*
X173385012Y-99375924D01*
X173388688Y-99338599D01*
X173385012Y-99301276D01*
X173385012Y-99301268D01*
X173374015Y-99189615D01*
X173330558Y-99046354D01*
X173259986Y-98914325D01*
X173165013Y-98798600D01*
X173136008Y-98774797D01*
X173110000Y-98748788D01*
X173110000Y-86876321D01*
X173113676Y-86838998D01*
X173110000Y-86801675D01*
X173110000Y-86801665D01*
X173099003Y-86690012D01*
X173055546Y-86546751D01*
X173053625Y-86543158D01*
X172984974Y-86414721D01*
X172913799Y-86327995D01*
X172890001Y-86298997D01*
X172861003Y-86275199D01*
X171414807Y-84829004D01*
X171391004Y-84800000D01*
X171275279Y-84705027D01*
X171143250Y-84634455D01*
X170999989Y-84590998D01*
X170888336Y-84580001D01*
X170888325Y-84580001D01*
X170851003Y-84576325D01*
X170813681Y-84580001D01*
X170635684Y-84580001D01*
X170972756Y-84512953D01*
X171361302Y-84352012D01*
X171710983Y-84118363D01*
X172008363Y-83820983D01*
X172242012Y-83471302D01*
X172402953Y-83082756D01*
X172485000Y-82670279D01*
X172485000Y-82249721D01*
X172402953Y-81837244D01*
X172242012Y-81448698D01*
X172008363Y-81099017D01*
X171710983Y-80801637D01*
X171361302Y-80567988D01*
X170972756Y-80407047D01*
X170560279Y-80325000D01*
X170139721Y-80325000D01*
X169727244Y-80407047D01*
X169338698Y-80567988D01*
X168989017Y-80801637D01*
X168691637Y-81099017D01*
X168457988Y-81448698D01*
X168297047Y-81837244D01*
X168215000Y-82249721D01*
X168215000Y-82670279D01*
X168297047Y-83082756D01*
X168457988Y-83471302D01*
X168691637Y-83820983D01*
X168989017Y-84118363D01*
X169338698Y-84352012D01*
X169727244Y-84512953D01*
X170064316Y-84580001D01*
X160980193Y-84580001D01*
X160988072Y-84500000D01*
X160988072Y-82800000D01*
X160975812Y-82675518D01*
X160939502Y-82555820D01*
X160880537Y-82445506D01*
X160801185Y-82348815D01*
X160704494Y-82269463D01*
X160594180Y-82210498D01*
X160474482Y-82174188D01*
X160350000Y-82161928D01*
X158650000Y-82161928D01*
X158525518Y-82174188D01*
X158405820Y-82210498D01*
X158295506Y-82269463D01*
X158198815Y-82348815D01*
X158119463Y-82445506D01*
X158060498Y-82555820D01*
X158024188Y-82675518D01*
X158011928Y-82800000D01*
X158011928Y-84500000D01*
X158024188Y-84624482D01*
X158060498Y-84744180D01*
X158119463Y-84854494D01*
X158198815Y-84951185D01*
X158295506Y-85030537D01*
X158405820Y-85089502D01*
X158478380Y-85111513D01*
X158346525Y-85243368D01*
X158221822Y-85430000D01*
X153491632Y-85430000D01*
X153428986Y-85410997D01*
X153317333Y-85400000D01*
X153317322Y-85400000D01*
X153280000Y-85396324D01*
X153242678Y-85400000D01*
X153028178Y-85400000D01*
X152903475Y-85213368D01*
X152696632Y-85006525D01*
X152514466Y-84884805D01*
X152631355Y-84815178D01*
X152847588Y-84620269D01*
X153021641Y-84386920D01*
X153146825Y-84124099D01*
X153191476Y-83976890D01*
X153070155Y-83747000D01*
X151877000Y-83747000D01*
X151877000Y-83767000D01*
X151623000Y-83767000D01*
X151623000Y-83747000D01*
X150429845Y-83747000D01*
X150308524Y-83976890D01*
X150353175Y-84124099D01*
X150478359Y-84386920D01*
X150652412Y-84620269D01*
X150868645Y-84815178D01*
X150985534Y-84884805D01*
X150803368Y-85006525D01*
X150596525Y-85213368D01*
X150471822Y-85400000D01*
X144681542Y-85400000D01*
X144543475Y-85193368D01*
X144336632Y-84986525D01*
X144162240Y-84870000D01*
X144336632Y-84753475D01*
X144543475Y-84546632D01*
X144705990Y-84303411D01*
X144817932Y-84033158D01*
X144875000Y-83746260D01*
X144875000Y-83453740D01*
X144837082Y-83263110D01*
X150308524Y-83263110D01*
X150429845Y-83493000D01*
X151623000Y-83493000D01*
X151623000Y-82299186D01*
X151877000Y-82299186D01*
X151877000Y-83493000D01*
X153070155Y-83493000D01*
X153191476Y-83263110D01*
X153146825Y-83115901D01*
X153021641Y-82853080D01*
X152847588Y-82619731D01*
X152631355Y-82424822D01*
X152381252Y-82275843D01*
X152106891Y-82178519D01*
X151877000Y-82299186D01*
X151623000Y-82299186D01*
X151393109Y-82178519D01*
X151118748Y-82275843D01*
X150868645Y-82424822D01*
X150652412Y-82619731D01*
X150478359Y-82853080D01*
X150353175Y-83115901D01*
X150308524Y-83263110D01*
X144837082Y-83263110D01*
X144817932Y-83166842D01*
X144705990Y-82896589D01*
X144543475Y-82653368D01*
X144450107Y-82560000D01*
X147246289Y-82560000D01*
X147290226Y-82603937D01*
X147459744Y-82717205D01*
X147648102Y-82795226D01*
X147848061Y-82835000D01*
X148051939Y-82835000D01*
X148251898Y-82795226D01*
X148440256Y-82717205D01*
X148609774Y-82603937D01*
X148753937Y-82459774D01*
X148867205Y-82290256D01*
X148945226Y-82101898D01*
X148985000Y-81901939D01*
X148985000Y-81698061D01*
X148945226Y-81498102D01*
X148867205Y-81309744D01*
X148753937Y-81140226D01*
X148609774Y-80996063D01*
X148440256Y-80882795D01*
X148251898Y-80804774D01*
X148051939Y-80765000D01*
X147848061Y-80765000D01*
X147648102Y-80804774D01*
X147459744Y-80882795D01*
X147290226Y-80996063D01*
X147246289Y-81040000D01*
X140402321Y-81040000D01*
X140364998Y-81036324D01*
X140327675Y-81040000D01*
X140327665Y-81040000D01*
X140216012Y-81050997D01*
X140208223Y-81053360D01*
X140317205Y-80890256D01*
X140395226Y-80701898D01*
X140435000Y-80501939D01*
X140435000Y-80298061D01*
X140395226Y-80098102D01*
X140317205Y-79909744D01*
X140203937Y-79740226D01*
X140059774Y-79596063D01*
X139890256Y-79482795D01*
X139701898Y-79404774D01*
X139501939Y-79365000D01*
X139298061Y-79365000D01*
X139098102Y-79404774D01*
X138909744Y-79482795D01*
X138740226Y-79596063D01*
X138696289Y-79640000D01*
X138382976Y-79640000D01*
X138338405Y-79556613D01*
X138227962Y-79422038D01*
X138093387Y-79311595D01*
X137939851Y-79229528D01*
X137773255Y-79178992D01*
X137600001Y-79161928D01*
X136899999Y-79161928D01*
X136726745Y-79178992D01*
X136560149Y-79229528D01*
X136406613Y-79311595D01*
X136272038Y-79422038D01*
X136250000Y-79448891D01*
X136227962Y-79422038D01*
X136093387Y-79311595D01*
X135939851Y-79229528D01*
X135773255Y-79178992D01*
X135600001Y-79161928D01*
X134986729Y-79161928D01*
X134463804Y-78639003D01*
X134440001Y-78609999D01*
X134324276Y-78515026D01*
X134192247Y-78444454D01*
X134048986Y-78400997D01*
X133937333Y-78390000D01*
X133937322Y-78390000D01*
X133900000Y-78386324D01*
X133862678Y-78390000D01*
X133703711Y-78390000D01*
X133659774Y-78346063D01*
X133490256Y-78232795D01*
X133450558Y-78216351D01*
X133543158Y-78197932D01*
X133813411Y-78085990D01*
X134056632Y-77923475D01*
X134263475Y-77716632D01*
X134380000Y-77542240D01*
X134496525Y-77716632D01*
X134703368Y-77923475D01*
X134946589Y-78085990D01*
X135216842Y-78197932D01*
X135503740Y-78255000D01*
X135796260Y-78255000D01*
X136083158Y-78197932D01*
X136353411Y-78085990D01*
X136596632Y-77923475D01*
X136803475Y-77716632D01*
X136920000Y-77542240D01*
X137036525Y-77716632D01*
X137243368Y-77923475D01*
X137486589Y-78085990D01*
X137756842Y-78197932D01*
X138043740Y-78255000D01*
X138336260Y-78255000D01*
X138623158Y-78197932D01*
X138893411Y-78085990D01*
X139136632Y-77923475D01*
X139343475Y-77716632D01*
X139460000Y-77542240D01*
X139576525Y-77716632D01*
X139783368Y-77923475D01*
X140026589Y-78085990D01*
X140296842Y-78197932D01*
X140583740Y-78255000D01*
X140876260Y-78255000D01*
X141163158Y-78197932D01*
X141433411Y-78085990D01*
X141676632Y-77923475D01*
X141883475Y-77716632D01*
X142000000Y-77542240D01*
X142116525Y-77716632D01*
X142323368Y-77923475D01*
X142566589Y-78085990D01*
X142836842Y-78197932D01*
X143123740Y-78255000D01*
X143416260Y-78255000D01*
X143703158Y-78197932D01*
X143973411Y-78085990D01*
X144216632Y-77923475D01*
X144423475Y-77716632D01*
X144540000Y-77542240D01*
X144656525Y-77716632D01*
X144863368Y-77923475D01*
X145106589Y-78085990D01*
X145376842Y-78197932D01*
X145663740Y-78255000D01*
X145956260Y-78255000D01*
X146243158Y-78197932D01*
X146513411Y-78085990D01*
X146756632Y-77923475D01*
X146963475Y-77716632D01*
X147080000Y-77542240D01*
X147196525Y-77716632D01*
X147403368Y-77923475D01*
X147646589Y-78085990D01*
X147916842Y-78197932D01*
X148203740Y-78255000D01*
X148496260Y-78255000D01*
X148783158Y-78197932D01*
X149053411Y-78085990D01*
X149296632Y-77923475D01*
X149503475Y-77716632D01*
X149620000Y-77542240D01*
X149736525Y-77716632D01*
X149943368Y-77923475D01*
X150186589Y-78085990D01*
X150456842Y-78197932D01*
X150743740Y-78255000D01*
X151036260Y-78255000D01*
X151323158Y-78197932D01*
X151593411Y-78085990D01*
X151836632Y-77923475D01*
X152043475Y-77716632D01*
X152160000Y-77542240D01*
X152276525Y-77716632D01*
X152483368Y-77923475D01*
X152726589Y-78085990D01*
X152996842Y-78197932D01*
X153283740Y-78255000D01*
X153576260Y-78255000D01*
X153863158Y-78197932D01*
X154133411Y-78085990D01*
X154376632Y-77923475D01*
X154583475Y-77716632D01*
X154700000Y-77542240D01*
X154816525Y-77716632D01*
X155023368Y-77923475D01*
X155266589Y-78085990D01*
X155536842Y-78197932D01*
X155823740Y-78255000D01*
X156116260Y-78255000D01*
X156403158Y-78197932D01*
X156673411Y-78085990D01*
X156916632Y-77923475D01*
X157123475Y-77716632D01*
X157240000Y-77542240D01*
X157356525Y-77716632D01*
X157563368Y-77923475D01*
X157806589Y-78085990D01*
X158076842Y-78197932D01*
X158363740Y-78255000D01*
X158656260Y-78255000D01*
X158943158Y-78197932D01*
X159213411Y-78085990D01*
X159456632Y-77923475D01*
X159663475Y-77716632D01*
X159780000Y-77542240D01*
X159896525Y-77716632D01*
X160103368Y-77923475D01*
X160346589Y-78085990D01*
X160616842Y-78197932D01*
X160903740Y-78255000D01*
X161196260Y-78255000D01*
X161483158Y-78197932D01*
X161753411Y-78085990D01*
X161996632Y-77923475D01*
X162203475Y-77716632D01*
X162320000Y-77542240D01*
X162436525Y-77716632D01*
X162643368Y-77923475D01*
X162886589Y-78085990D01*
X163156842Y-78197932D01*
X163443740Y-78255000D01*
X163736260Y-78255000D01*
X164023158Y-78197932D01*
X164293411Y-78085990D01*
X164536632Y-77923475D01*
X164743475Y-77716632D01*
X164860000Y-77542240D01*
X164976525Y-77716632D01*
X165183368Y-77923475D01*
X165426589Y-78085990D01*
X165696842Y-78197932D01*
X165983740Y-78255000D01*
X166276260Y-78255000D01*
X166563158Y-78197932D01*
X166833411Y-78085990D01*
X167076632Y-77923475D01*
X167283475Y-77716632D01*
X167445990Y-77473411D01*
X167557932Y-77203158D01*
X167615000Y-76916260D01*
X167615000Y-76623740D01*
X167557932Y-76336842D01*
X167445990Y-76066589D01*
X167283475Y-75823368D01*
X167076632Y-75616525D01*
X166902240Y-75500000D01*
X167076632Y-75383475D01*
X167283475Y-75176632D01*
X167445990Y-74933411D01*
X167557932Y-74663158D01*
X167615000Y-74376260D01*
X167615000Y-74083740D01*
X167557932Y-73796842D01*
X167445990Y-73526589D01*
X167283475Y-73283368D01*
X167076632Y-73076525D01*
X166833411Y-72914010D01*
X166563158Y-72802068D01*
X166276260Y-72745000D01*
X165983740Y-72745000D01*
X165696842Y-72802068D01*
X165426589Y-72914010D01*
X165183368Y-73076525D01*
X164976525Y-73283368D01*
X164860000Y-73457760D01*
X164743475Y-73283368D01*
X164536632Y-73076525D01*
X164293411Y-72914010D01*
X164023158Y-72802068D01*
X163736260Y-72745000D01*
X163443740Y-72745000D01*
X163156842Y-72802068D01*
X162886589Y-72914010D01*
X162643368Y-73076525D01*
X162436525Y-73283368D01*
X162320000Y-73457760D01*
X162203475Y-73283368D01*
X161996632Y-73076525D01*
X161753411Y-72914010D01*
X161483158Y-72802068D01*
X161196260Y-72745000D01*
X160903740Y-72745000D01*
X160616842Y-72802068D01*
X160346589Y-72914010D01*
X160103368Y-73076525D01*
X159896525Y-73283368D01*
X159774805Y-73465534D01*
X159705178Y-73348645D01*
X159510269Y-73132412D01*
X159276920Y-72958359D01*
X159014099Y-72833175D01*
X158866890Y-72788524D01*
X158637000Y-72909845D01*
X158637000Y-74103000D01*
X158657000Y-74103000D01*
X158657000Y-74357000D01*
X158637000Y-74357000D01*
X158637000Y-74377000D01*
X158383000Y-74377000D01*
X158383000Y-74357000D01*
X158363000Y-74357000D01*
X158363000Y-74103000D01*
X158383000Y-74103000D01*
X158383000Y-72909845D01*
X158153110Y-72788524D01*
X158005901Y-72833175D01*
X157743080Y-72958359D01*
X157509731Y-73132412D01*
X157314822Y-73348645D01*
X157245195Y-73465534D01*
X157123475Y-73283368D01*
X156916632Y-73076525D01*
X156673411Y-72914010D01*
X156403158Y-72802068D01*
X156116260Y-72745000D01*
X155823740Y-72745000D01*
X155536842Y-72802068D01*
X155266589Y-72914010D01*
X155023368Y-73076525D01*
X154816525Y-73283368D01*
X154700000Y-73457760D01*
X154583475Y-73283368D01*
X154376632Y-73076525D01*
X154133411Y-72914010D01*
X153863158Y-72802068D01*
X153576260Y-72745000D01*
X153283740Y-72745000D01*
X152996842Y-72802068D01*
X152726589Y-72914010D01*
X152483368Y-73076525D01*
X152276525Y-73283368D01*
X152160000Y-73457760D01*
X152043475Y-73283368D01*
X151836632Y-73076525D01*
X151593411Y-72914010D01*
X151323158Y-72802068D01*
X151036260Y-72745000D01*
X150743740Y-72745000D01*
X150456842Y-72802068D01*
X150186589Y-72914010D01*
X149943368Y-73076525D01*
X149736525Y-73283368D01*
X149620000Y-73457760D01*
X149503475Y-73283368D01*
X149296632Y-73076525D01*
X149053411Y-72914010D01*
X148783158Y-72802068D01*
X148496260Y-72745000D01*
X148203740Y-72745000D01*
X147916842Y-72802068D01*
X147646589Y-72914010D01*
X147403368Y-73076525D01*
X147196525Y-73283368D01*
X147080000Y-73457760D01*
X146963475Y-73283368D01*
X146756632Y-73076525D01*
X146513411Y-72914010D01*
X146243158Y-72802068D01*
X145956260Y-72745000D01*
X145663740Y-72745000D01*
X145376842Y-72802068D01*
X145106589Y-72914010D01*
X144863368Y-73076525D01*
X144656525Y-73283368D01*
X144540000Y-73457760D01*
X144423475Y-73283368D01*
X144216632Y-73076525D01*
X143973411Y-72914010D01*
X143703158Y-72802068D01*
X143416260Y-72745000D01*
X143123740Y-72745000D01*
X142836842Y-72802068D01*
X142566589Y-72914010D01*
X142323368Y-73076525D01*
X142116525Y-73283368D01*
X141994805Y-73465534D01*
X141925178Y-73348645D01*
X141730269Y-73132412D01*
X141496920Y-72958359D01*
X141234099Y-72833175D01*
X141086890Y-72788524D01*
X140857000Y-72909845D01*
X140857000Y-74103000D01*
X140877000Y-74103000D01*
X140877000Y-74357000D01*
X140857000Y-74357000D01*
X140857000Y-74377000D01*
X140603000Y-74377000D01*
X140603000Y-74357000D01*
X140583000Y-74357000D01*
X140583000Y-74103000D01*
X140603000Y-74103000D01*
X140603000Y-72909845D01*
X140373110Y-72788524D01*
X140225901Y-72833175D01*
X139963080Y-72958359D01*
X139729731Y-73132412D01*
X139534822Y-73348645D01*
X139465195Y-73465534D01*
X139343475Y-73283368D01*
X139136632Y-73076525D01*
X138893411Y-72914010D01*
X138623158Y-72802068D01*
X138336260Y-72745000D01*
X138043740Y-72745000D01*
X137756842Y-72802068D01*
X137486589Y-72914010D01*
X137243368Y-73076525D01*
X137036525Y-73283368D01*
X136920000Y-73457760D01*
X136803475Y-73283368D01*
X136596632Y-73076525D01*
X136353411Y-72914010D01*
X136083158Y-72802068D01*
X135796260Y-72745000D01*
X135503740Y-72745000D01*
X135216842Y-72802068D01*
X134946589Y-72914010D01*
X134703368Y-73076525D01*
X134496525Y-73283368D01*
X134380000Y-73457760D01*
X134263475Y-73283368D01*
X134056632Y-73076525D01*
X133813411Y-72914010D01*
X133543158Y-72802068D01*
X133256260Y-72745000D01*
X132963740Y-72745000D01*
X132676842Y-72802068D01*
X132406589Y-72914010D01*
X132163368Y-73076525D01*
X131956525Y-73283368D01*
X131840000Y-73457760D01*
X131723475Y-73283368D01*
X131516632Y-73076525D01*
X131273411Y-72914010D01*
X131003158Y-72802068D01*
X130716260Y-72745000D01*
X130423740Y-72745000D01*
X130136842Y-72802068D01*
X129866589Y-72914010D01*
X129623368Y-73076525D01*
X129416525Y-73283368D01*
X129300000Y-73457760D01*
X129183475Y-73283368D01*
X128976632Y-73076525D01*
X128733411Y-72914010D01*
X128463158Y-72802068D01*
X128176260Y-72745000D01*
X127883740Y-72745000D01*
X127596842Y-72802068D01*
X127326589Y-72914010D01*
X127083368Y-73076525D01*
X126876525Y-73283368D01*
X126760000Y-73457760D01*
X126643475Y-73283368D01*
X126436632Y-73076525D01*
X126193411Y-72914010D01*
X125923158Y-72802068D01*
X125636260Y-72745000D01*
X125343740Y-72745000D01*
X125056842Y-72802068D01*
X124786589Y-72914010D01*
X124543368Y-73076525D01*
X124336525Y-73283368D01*
X124214805Y-73465534D01*
X124145178Y-73348645D01*
X123950269Y-73132412D01*
X123716920Y-72958359D01*
X123454099Y-72833175D01*
X123306890Y-72788524D01*
X123077000Y-72909845D01*
X123077000Y-74103000D01*
X123097000Y-74103000D01*
X123097000Y-74357000D01*
X123077000Y-74357000D01*
X123077000Y-74377000D01*
X122823000Y-74377000D01*
X122823000Y-74357000D01*
X122803000Y-74357000D01*
X122803000Y-74103000D01*
X122823000Y-74103000D01*
X122823000Y-72909845D01*
X122593110Y-72788524D01*
X122445901Y-72833175D01*
X122183080Y-72958359D01*
X121949731Y-73132412D01*
X121754822Y-73348645D01*
X121685195Y-73465534D01*
X121563475Y-73283368D01*
X121356632Y-73076525D01*
X121113411Y-72914010D01*
X120843158Y-72802068D01*
X120556260Y-72745000D01*
X120263740Y-72745000D01*
X119976842Y-72802068D01*
X119706589Y-72914010D01*
X119463368Y-73076525D01*
X119256525Y-73283368D01*
X119140000Y-73457760D01*
X119023475Y-73283368D01*
X118816632Y-73076525D01*
X118573411Y-72914010D01*
X118303158Y-72802068D01*
X118016260Y-72745000D01*
X117723740Y-72745000D01*
X117436842Y-72802068D01*
X117166589Y-72914010D01*
X116923368Y-73076525D01*
X116716525Y-73283368D01*
X116554010Y-73526589D01*
X116442068Y-73796842D01*
X116385000Y-74083740D01*
X116385000Y-74376260D01*
X116442068Y-74663158D01*
X116554010Y-74933411D01*
X116716525Y-75176632D01*
X116848380Y-75308487D01*
X116775820Y-75330498D01*
X116665506Y-75389463D01*
X116568815Y-75468815D01*
X116489463Y-75565506D01*
X116430498Y-75675820D01*
X116394188Y-75795518D01*
X116381928Y-75920000D01*
X116381928Y-77620000D01*
X116394188Y-77744482D01*
X116430498Y-77864180D01*
X116489463Y-77974494D01*
X116568815Y-78071185D01*
X116665506Y-78150537D01*
X116775820Y-78209502D01*
X116895518Y-78245812D01*
X117020000Y-78258072D01*
X118427126Y-78258072D01*
X115738072Y-80947127D01*
X115738072Y-80910000D01*
X115725812Y-80785518D01*
X115689502Y-80665820D01*
X115630537Y-80555506D01*
X115551185Y-80458815D01*
X115454494Y-80379463D01*
X115344180Y-80320498D01*
X115224482Y-80284188D01*
X115100000Y-80271928D01*
X112100000Y-80271928D01*
X111975518Y-80284188D01*
X111855820Y-80320498D01*
X111745506Y-80379463D01*
X111648815Y-80458815D01*
X111569463Y-80555506D01*
X111510498Y-80665820D01*
X111474188Y-80785518D01*
X111461928Y-80910000D01*
X111461928Y-83910000D01*
X111474188Y-84034482D01*
X111510498Y-84154180D01*
X111569463Y-84264494D01*
X111648815Y-84361185D01*
X111745506Y-84440537D01*
X111855820Y-84499502D01*
X111975518Y-84535812D01*
X112100000Y-84548072D01*
X113972129Y-84548072D01*
X113109452Y-85410749D01*
X112977244Y-85437047D01*
X112588698Y-85597988D01*
X112239017Y-85831637D01*
X111941637Y-86129017D01*
X111707988Y-86478698D01*
X111547047Y-86867244D01*
X111465000Y-87279721D01*
X111465000Y-87700279D01*
X111547047Y-88112756D01*
X111651140Y-88364059D01*
X110813991Y-89201208D01*
X110784987Y-89225011D01*
X110729859Y-89292186D01*
X110690014Y-89340736D01*
X110619443Y-89472765D01*
X110619442Y-89472766D01*
X110575985Y-89616027D01*
X110564988Y-89727680D01*
X110564988Y-89727690D01*
X110561312Y-89765012D01*
X110564988Y-89802334D01*
X110564989Y-108837655D01*
X110561312Y-108874988D01*
X110564989Y-108912321D01*
X110575986Y-109023974D01*
X110581982Y-109043740D01*
X110619442Y-109167234D01*
X110690014Y-109299264D01*
X110784987Y-109414989D01*
X110900712Y-109509962D01*
X111020703Y-109574099D01*
X111032742Y-109580534D01*
X111176003Y-109623991D01*
X111324988Y-109638665D01*
X111473974Y-109623991D01*
X111617235Y-109580534D01*
X111749264Y-109509962D01*
X111752236Y-109507523D01*
X111941637Y-109790983D01*
X112027426Y-109876772D01*
X111264001Y-110640198D01*
X111234998Y-110664000D01*
X111203863Y-110701939D01*
X111140025Y-110779725D01*
X111095471Y-110863080D01*
X111069453Y-110911755D01*
X111025996Y-111055016D01*
X111014999Y-111166669D01*
X111014999Y-111166679D01*
X111011323Y-111204001D01*
X111014999Y-111241324D01*
X111015000Y-114348669D01*
X111011323Y-114386001D01*
X111015000Y-114423334D01*
X111025997Y-114534987D01*
X111037915Y-114574276D01*
X111069453Y-114678247D01*
X111140025Y-114810277D01*
X111201328Y-114884974D01*
X111234999Y-114926002D01*
X111263997Y-114949800D01*
X112160200Y-115846004D01*
X112183998Y-115875002D01*
X112299723Y-115969975D01*
X112431752Y-116040547D01*
X112575013Y-116084004D01*
X112686666Y-116095001D01*
X112686674Y-116095001D01*
X112723999Y-116098677D01*
X112761324Y-116095001D01*
X122027677Y-116095001D01*
X122064999Y-116098677D01*
X122102321Y-116095001D01*
X122102332Y-116095001D01*
X122213985Y-116084004D01*
X122357246Y-116040547D01*
X122489275Y-115969975D01*
X122605000Y-115875002D01*
X122628802Y-115845999D01*
X122836729Y-115638072D01*
X124100000Y-115638072D01*
X124224482Y-115625812D01*
X124344180Y-115589502D01*
X124454494Y-115530537D01*
X124551185Y-115451185D01*
X124630537Y-115354494D01*
X124689502Y-115244180D01*
X124725812Y-115124482D01*
X124738072Y-115000000D01*
X124738072Y-114804326D01*
X124774276Y-114784974D01*
X124890001Y-114690001D01*
X124913804Y-114660997D01*
X125551061Y-114023740D01*
X129615000Y-114023740D01*
X129615000Y-114316260D01*
X129672068Y-114603158D01*
X129784010Y-114873411D01*
X129946525Y-115116632D01*
X130153368Y-115323475D01*
X130396589Y-115485990D01*
X130666842Y-115597932D01*
X130953740Y-115655000D01*
X131246260Y-115655000D01*
X131533158Y-115597932D01*
X131803411Y-115485990D01*
X132046632Y-115323475D01*
X132253475Y-115116632D01*
X132415990Y-114873411D01*
X132527932Y-114603158D01*
X132585000Y-114316260D01*
X132585000Y-114023740D01*
X132527932Y-113736842D01*
X132415990Y-113466589D01*
X132253475Y-113223368D01*
X132046632Y-113016525D01*
X131864466Y-112894805D01*
X131981355Y-112825178D01*
X132197588Y-112630269D01*
X132371641Y-112396920D01*
X132496825Y-112134099D01*
X132541476Y-111986890D01*
X132420155Y-111757000D01*
X131227000Y-111757000D01*
X131227000Y-111777000D01*
X130973000Y-111777000D01*
X130973000Y-111757000D01*
X129779845Y-111757000D01*
X129658524Y-111986890D01*
X129703175Y-112134099D01*
X129828359Y-112396920D01*
X130002412Y-112630269D01*
X130218645Y-112825178D01*
X130335534Y-112894805D01*
X130153368Y-113016525D01*
X129946525Y-113223368D01*
X129784010Y-113466589D01*
X129672068Y-113736842D01*
X129615000Y-114023740D01*
X125551061Y-114023740D01*
X129783243Y-109791559D01*
X129784010Y-109793411D01*
X129946525Y-110036632D01*
X130153368Y-110243475D01*
X130335534Y-110365195D01*
X130218645Y-110434822D01*
X130002412Y-110629731D01*
X129828359Y-110863080D01*
X129703175Y-111125901D01*
X129658524Y-111273110D01*
X129779845Y-111503000D01*
X130973000Y-111503000D01*
X130973000Y-111483000D01*
X131227000Y-111483000D01*
X131227000Y-111503000D01*
X132420155Y-111503000D01*
X132541476Y-111273110D01*
X132496825Y-111125901D01*
X132371641Y-110863080D01*
X132197588Y-110629731D01*
X132009288Y-110460000D01*
X145085199Y-110460000D01*
X145265000Y-110639801D01*
X145265000Y-110701939D01*
X145304774Y-110901898D01*
X145382795Y-111090256D01*
X145496063Y-111259774D01*
X145640226Y-111403937D01*
X145809744Y-111517205D01*
X145998102Y-111595226D01*
X146198061Y-111635000D01*
X146401939Y-111635000D01*
X146601898Y-111595226D01*
X146790256Y-111517205D01*
X146959774Y-111403937D01*
X147103937Y-111259774D01*
X147217205Y-111090256D01*
X147295226Y-110901898D01*
X147335000Y-110701939D01*
X147335000Y-110498061D01*
X147295226Y-110298102D01*
X147217205Y-110109744D01*
X147103937Y-109940226D01*
X146959774Y-109796063D01*
X146790256Y-109682795D01*
X146601898Y-109604774D01*
X146401939Y-109565000D01*
X146339801Y-109565000D01*
X145963803Y-109189002D01*
X145940001Y-109159999D01*
X145824276Y-109065026D01*
X145692247Y-108994454D01*
X145548986Y-108950997D01*
X145437333Y-108940000D01*
X145437322Y-108940000D01*
X145400000Y-108936324D01*
X145362678Y-108940000D01*
X132584256Y-108940000D01*
X132527932Y-108656842D01*
X132415990Y-108386589D01*
X132253475Y-108143368D01*
X132121620Y-108011513D01*
X132194180Y-107989502D01*
X132304494Y-107930537D01*
X132401185Y-107851185D01*
X132480537Y-107754494D01*
X132539502Y-107644180D01*
X132575812Y-107524482D01*
X132588072Y-107400000D01*
X132588072Y-106483740D01*
X151315000Y-106483740D01*
X151315000Y-106776260D01*
X151372068Y-107063158D01*
X151484010Y-107333411D01*
X151646525Y-107576632D01*
X151853368Y-107783475D01*
X152035534Y-107905195D01*
X151918645Y-107974822D01*
X151702412Y-108169731D01*
X151528359Y-108403080D01*
X151403175Y-108665901D01*
X151358524Y-108813110D01*
X151479845Y-109043000D01*
X152673000Y-109043000D01*
X152673000Y-109023000D01*
X152927000Y-109023000D01*
X152927000Y-109043000D01*
X154120155Y-109043000D01*
X154241476Y-108813110D01*
X154196825Y-108665901D01*
X154071641Y-108403080D01*
X153897588Y-108169731D01*
X153681355Y-107974822D01*
X153564466Y-107905195D01*
X153746632Y-107783475D01*
X153953475Y-107576632D01*
X154115990Y-107333411D01*
X154227932Y-107063158D01*
X154285000Y-106776260D01*
X154285000Y-106483740D01*
X154227932Y-106196842D01*
X154115990Y-105926589D01*
X154031406Y-105800000D01*
X159161928Y-105800000D01*
X159161928Y-107500000D01*
X159174188Y-107624482D01*
X159210498Y-107744180D01*
X159269463Y-107854494D01*
X159348815Y-107951185D01*
X159445506Y-108030537D01*
X159555820Y-108089502D01*
X159628380Y-108111513D01*
X159496525Y-108243368D01*
X159334010Y-108486589D01*
X159222068Y-108756842D01*
X159165000Y-109043740D01*
X159165000Y-109336260D01*
X159222068Y-109623158D01*
X159334010Y-109893411D01*
X159496525Y-110136632D01*
X159703368Y-110343475D01*
X159885534Y-110465195D01*
X159768645Y-110534822D01*
X159552412Y-110729731D01*
X159378359Y-110963080D01*
X159253175Y-111225901D01*
X159208524Y-111373110D01*
X159329845Y-111603000D01*
X160523000Y-111603000D01*
X160523000Y-111583000D01*
X160777000Y-111583000D01*
X160777000Y-111603000D01*
X161970155Y-111603000D01*
X162091476Y-111373110D01*
X162046825Y-111225901D01*
X161921641Y-110963080D01*
X161747588Y-110729731D01*
X161531355Y-110534822D01*
X161414466Y-110465195D01*
X161596632Y-110343475D01*
X161803475Y-110136632D01*
X161965990Y-109893411D01*
X162077932Y-109623158D01*
X162135000Y-109336260D01*
X162135000Y-109043740D01*
X162077932Y-108756842D01*
X161985142Y-108532824D01*
X168205098Y-108532824D01*
X168254666Y-108950451D01*
X168384757Y-109350383D01*
X168542786Y-109646038D01*
X168858347Y-109802048D01*
X170170395Y-108490000D01*
X168858347Y-107177952D01*
X168542786Y-107333962D01*
X168351980Y-107708745D01*
X168237956Y-108113551D01*
X168205098Y-108532824D01*
X161985142Y-108532824D01*
X161965990Y-108486589D01*
X161803475Y-108243368D01*
X161671620Y-108111513D01*
X161744180Y-108089502D01*
X161854494Y-108030537D01*
X161951185Y-107951185D01*
X162030537Y-107854494D01*
X162089502Y-107744180D01*
X162125812Y-107624482D01*
X162138072Y-107500000D01*
X162138072Y-105800000D01*
X162125812Y-105675518D01*
X162089502Y-105555820D01*
X162030537Y-105445506D01*
X161951185Y-105348815D01*
X161854494Y-105269463D01*
X161744180Y-105210498D01*
X161624482Y-105174188D01*
X161500000Y-105161928D01*
X159800000Y-105161928D01*
X159675518Y-105174188D01*
X159555820Y-105210498D01*
X159445506Y-105269463D01*
X159348815Y-105348815D01*
X159269463Y-105445506D01*
X159210498Y-105555820D01*
X159174188Y-105675518D01*
X159161928Y-105800000D01*
X154031406Y-105800000D01*
X153953475Y-105683368D01*
X153746632Y-105476525D01*
X153503411Y-105314010D01*
X153233158Y-105202068D01*
X152946260Y-105145000D01*
X152653740Y-105145000D01*
X152366842Y-105202068D01*
X152096589Y-105314010D01*
X151853368Y-105476525D01*
X151646525Y-105683368D01*
X151484010Y-105926589D01*
X151372068Y-106196842D01*
X151315000Y-106483740D01*
X132588072Y-106483740D01*
X132588072Y-105700000D01*
X132575812Y-105575518D01*
X132539502Y-105455820D01*
X132480537Y-105345506D01*
X132401185Y-105248815D01*
X132304494Y-105169463D01*
X132194180Y-105110498D01*
X132074482Y-105074188D01*
X131950000Y-105061928D01*
X130250000Y-105061928D01*
X130125518Y-105074188D01*
X130005820Y-105110498D01*
X129895506Y-105169463D01*
X129798815Y-105248815D01*
X129719463Y-105345506D01*
X129660498Y-105455820D01*
X129624188Y-105575518D01*
X129611928Y-105700000D01*
X129611928Y-106963271D01*
X128963986Y-107611213D01*
X128934988Y-107635011D01*
X128911190Y-107664009D01*
X128911189Y-107664010D01*
X128840014Y-107750736D01*
X128769442Y-107882766D01*
X128753135Y-107936525D01*
X128725986Y-108026026D01*
X128714988Y-108137679D01*
X128714988Y-108137690D01*
X128711312Y-108175012D01*
X128714988Y-108212334D01*
X128714988Y-108710210D01*
X124562543Y-112862655D01*
X124551185Y-112848815D01*
X124454494Y-112769463D01*
X124344180Y-112710498D01*
X124271620Y-112688487D01*
X124403475Y-112556632D01*
X124565990Y-112313411D01*
X124677932Y-112043158D01*
X124735000Y-111756260D01*
X124735000Y-111463740D01*
X124677932Y-111176842D01*
X124565990Y-110906589D01*
X124403475Y-110663368D01*
X124196632Y-110456525D01*
X124014466Y-110334805D01*
X124131355Y-110265178D01*
X124347588Y-110070269D01*
X124521641Y-109836920D01*
X124646825Y-109574099D01*
X124691476Y-109426890D01*
X124570155Y-109197000D01*
X123377000Y-109197000D01*
X123377000Y-109217000D01*
X123123000Y-109217000D01*
X123123000Y-109197000D01*
X121929845Y-109197000D01*
X121808524Y-109426890D01*
X121853175Y-109574099D01*
X121978359Y-109836920D01*
X122152412Y-110070269D01*
X122368645Y-110265178D01*
X122485534Y-110334805D01*
X122303368Y-110456525D01*
X122096525Y-110663368D01*
X121934010Y-110906589D01*
X121822068Y-111176842D01*
X121765000Y-111463740D01*
X121765000Y-111756260D01*
X121822068Y-112043158D01*
X121934010Y-112313411D01*
X122096525Y-112556632D01*
X122228380Y-112688487D01*
X122155820Y-112710498D01*
X122045506Y-112769463D01*
X121948815Y-112848815D01*
X121869463Y-112945506D01*
X121810498Y-113055820D01*
X121774188Y-113175518D01*
X121761928Y-113300000D01*
X121761928Y-114563271D01*
X121750198Y-114575001D01*
X115453562Y-114575001D01*
X115598020Y-114291255D01*
X115712044Y-113886449D01*
X115744902Y-113467176D01*
X115695334Y-113049549D01*
X115565243Y-112649617D01*
X115407214Y-112353962D01*
X115091653Y-112197952D01*
X113779605Y-113510000D01*
X113793748Y-113524143D01*
X113614143Y-113703748D01*
X113600000Y-113689605D01*
X113585858Y-113703748D01*
X113406253Y-113524143D01*
X113420395Y-113510000D01*
X113406253Y-113495858D01*
X113585858Y-113316253D01*
X113600000Y-113330395D01*
X114912048Y-112018347D01*
X114756038Y-111702786D01*
X114381255Y-111511980D01*
X113976449Y-111397956D01*
X113557176Y-111365098D01*
X113139549Y-111414666D01*
X112739617Y-111544757D01*
X112534999Y-111654126D01*
X112534999Y-111518802D01*
X112918800Y-111135002D01*
X116587197Y-111135002D01*
X118738199Y-113286005D01*
X118761997Y-113315003D01*
X118790995Y-113338801D01*
X118877722Y-113409976D01*
X119009751Y-113480548D01*
X119153012Y-113524005D01*
X119301998Y-113538679D01*
X119339331Y-113535002D01*
X119960680Y-113535002D01*
X119998002Y-113538678D01*
X120035324Y-113535002D01*
X120035335Y-113535002D01*
X120146988Y-113524005D01*
X120290249Y-113480548D01*
X120422278Y-113409976D01*
X120538003Y-113315003D01*
X120561806Y-113285999D01*
X120885999Y-112961806D01*
X120915003Y-112938003D01*
X121009976Y-112822278D01*
X121080548Y-112690249D01*
X121124005Y-112546988D01*
X121135002Y-112435335D01*
X121138679Y-112398002D01*
X121135002Y-112360669D01*
X121135002Y-111489331D01*
X121138679Y-111451998D01*
X121124005Y-111303012D01*
X121080548Y-111159751D01*
X121009976Y-111027722D01*
X120938801Y-110940995D01*
X120915003Y-110911997D01*
X120886006Y-110888200D01*
X116381546Y-106383740D01*
X121765000Y-106383740D01*
X121765000Y-106676260D01*
X121822068Y-106963158D01*
X121934010Y-107233411D01*
X122096525Y-107476632D01*
X122303368Y-107683475D01*
X122485534Y-107805195D01*
X122368645Y-107874822D01*
X122152412Y-108069731D01*
X121978359Y-108303080D01*
X121853175Y-108565901D01*
X121808524Y-108713110D01*
X121929845Y-108943000D01*
X123123000Y-108943000D01*
X123123000Y-108923000D01*
X123377000Y-108923000D01*
X123377000Y-108943000D01*
X124570155Y-108943000D01*
X124691476Y-108713110D01*
X124646825Y-108565901D01*
X124521641Y-108303080D01*
X124347588Y-108069731D01*
X124131355Y-107874822D01*
X124014466Y-107805195D01*
X124196632Y-107683475D01*
X124403475Y-107476632D01*
X124565990Y-107233411D01*
X124677932Y-106963158D01*
X124735000Y-106676260D01*
X124735000Y-106383740D01*
X124677932Y-106096842D01*
X124565990Y-105826589D01*
X124403475Y-105583368D01*
X124196632Y-105376525D01*
X123953411Y-105214010D01*
X123683158Y-105102068D01*
X123396260Y-105045000D01*
X123103740Y-105045000D01*
X122816842Y-105102068D01*
X122546589Y-105214010D01*
X122303368Y-105376525D01*
X122096525Y-105583368D01*
X121934010Y-105826589D01*
X121822068Y-106096842D01*
X121765000Y-106383740D01*
X116381546Y-106383740D01*
X116185001Y-106187196D01*
X116185001Y-103462323D01*
X116188677Y-103425000D01*
X116185001Y-103387678D01*
X116185001Y-103387668D01*
X116174004Y-103276015D01*
X116130547Y-103132754D01*
X116059975Y-103000725D01*
X115965002Y-102885000D01*
X115936003Y-102861201D01*
X115913802Y-102839000D01*
X115890001Y-102809999D01*
X115774276Y-102715026D01*
X115738072Y-102695674D01*
X115738072Y-101850000D01*
X115725812Y-101725518D01*
X115689502Y-101605820D01*
X115630537Y-101495506D01*
X115551185Y-101398815D01*
X115454494Y-101319463D01*
X115344180Y-101260498D01*
X115224482Y-101224188D01*
X115100000Y-101211928D01*
X112536729Y-101211928D01*
X112534999Y-101210198D01*
X112534999Y-99506132D01*
X112588698Y-99542012D01*
X112977244Y-99702953D01*
X113389721Y-99785000D01*
X113810279Y-99785000D01*
X114222756Y-99702953D01*
X114611302Y-99542012D01*
X114960983Y-99308363D01*
X115258363Y-99010983D01*
X115492012Y-98661302D01*
X115652953Y-98272756D01*
X115735000Y-97860279D01*
X115735000Y-97439721D01*
X115652953Y-97027244D01*
X115492012Y-96638698D01*
X115258363Y-96289017D01*
X114960983Y-95991637D01*
X114611302Y-95757988D01*
X114222756Y-95597047D01*
X113810279Y-95515000D01*
X113389721Y-95515000D01*
X112977244Y-95597047D01*
X112588698Y-95757988D01*
X112534999Y-95793868D01*
X112534999Y-94800000D01*
X134661928Y-94800000D01*
X134661928Y-97800000D01*
X134674188Y-97924482D01*
X134710498Y-98044180D01*
X134769463Y-98154494D01*
X134848815Y-98251185D01*
X134945506Y-98330537D01*
X135055820Y-98389502D01*
X135175518Y-98425812D01*
X135300000Y-98438072D01*
X138300000Y-98438072D01*
X138424482Y-98425812D01*
X138544180Y-98389502D01*
X138654494Y-98330537D01*
X138751185Y-98251185D01*
X138830537Y-98154494D01*
X138889502Y-98044180D01*
X138925812Y-97924482D01*
X138938072Y-97800000D01*
X138938072Y-94800000D01*
X138925812Y-94675518D01*
X138889502Y-94555820D01*
X138830537Y-94445506D01*
X138751185Y-94348815D01*
X138654494Y-94269463D01*
X138544180Y-94210498D01*
X138424482Y-94174188D01*
X138300000Y-94161928D01*
X135300000Y-94161928D01*
X135175518Y-94174188D01*
X135055820Y-94210498D01*
X134945506Y-94269463D01*
X134848815Y-94348815D01*
X134769463Y-94445506D01*
X134710498Y-94555820D01*
X134674188Y-94675518D01*
X134661928Y-94800000D01*
X112534999Y-94800000D01*
X112534999Y-94423562D01*
X112818745Y-94568020D01*
X113223551Y-94682044D01*
X113642824Y-94714902D01*
X114060451Y-94665334D01*
X114460383Y-94535243D01*
X114756038Y-94377214D01*
X114912048Y-94061653D01*
X113600000Y-92749605D01*
X113585858Y-92763748D01*
X113406253Y-92584143D01*
X113420395Y-92570000D01*
X113779605Y-92570000D01*
X115091653Y-93882048D01*
X115407214Y-93726038D01*
X115598020Y-93351255D01*
X115712044Y-92946449D01*
X115744902Y-92527176D01*
X115695334Y-92109549D01*
X115565243Y-91709617D01*
X115407214Y-91413962D01*
X115091653Y-91257952D01*
X113779605Y-92570000D01*
X113420395Y-92570000D01*
X113406253Y-92555858D01*
X113585858Y-92376253D01*
X113600000Y-92390395D01*
X114912048Y-91078347D01*
X114756038Y-90762786D01*
X114381255Y-90571980D01*
X114313038Y-90552765D01*
X115936004Y-88929800D01*
X115965002Y-88906002D01*
X116059975Y-88790277D01*
X116130547Y-88658248D01*
X116174004Y-88514987D01*
X116185001Y-88403334D01*
X116185001Y-88403325D01*
X116188677Y-88366002D01*
X116185001Y-88328679D01*
X116185001Y-85876210D01*
X118848101Y-83213110D01*
X122808524Y-83213110D01*
X122929845Y-83443000D01*
X124123000Y-83443000D01*
X124123000Y-82249186D01*
X124377000Y-82249186D01*
X124377000Y-83443000D01*
X125570155Y-83443000D01*
X125691476Y-83213110D01*
X125646825Y-83065901D01*
X125521641Y-82803080D01*
X125347588Y-82569731D01*
X125131355Y-82374822D01*
X124881252Y-82225843D01*
X124606891Y-82128519D01*
X124377000Y-82249186D01*
X124123000Y-82249186D01*
X123893109Y-82128519D01*
X123618748Y-82225843D01*
X123368645Y-82374822D01*
X123152412Y-82569731D01*
X122978359Y-82803080D01*
X122853175Y-83065901D01*
X122808524Y-83213110D01*
X118848101Y-83213110D01*
X121111015Y-80950197D01*
X121140012Y-80926400D01*
X121234985Y-80810675D01*
X121305557Y-80678646D01*
X121349014Y-80535385D01*
X121360011Y-80423732D01*
X121360011Y-80423723D01*
X121363687Y-80386400D01*
X121360011Y-80349077D01*
X121360011Y-79434790D01*
X122583592Y-78211210D01*
X122803740Y-78255000D01*
X123096260Y-78255000D01*
X123383158Y-78197932D01*
X123653411Y-78085990D01*
X123896632Y-77923475D01*
X124103475Y-77716632D01*
X124220000Y-77542240D01*
X124336525Y-77716632D01*
X124543368Y-77923475D01*
X124786589Y-78085990D01*
X125056842Y-78197932D01*
X125343740Y-78255000D01*
X125636260Y-78255000D01*
X125856408Y-78211210D01*
X126101201Y-78456003D01*
X126125000Y-78485002D01*
X126240725Y-78579975D01*
X126372754Y-78650547D01*
X126516015Y-78694004D01*
X126627668Y-78705001D01*
X126627677Y-78705001D01*
X126665000Y-78708677D01*
X126702323Y-78705001D01*
X129230200Y-78705001D01*
X129765199Y-79240000D01*
X125903711Y-79240000D01*
X125859774Y-79196063D01*
X125690256Y-79082795D01*
X125501898Y-79004774D01*
X125301939Y-78965000D01*
X125098061Y-78965000D01*
X124898102Y-79004774D01*
X124709744Y-79082795D01*
X124540226Y-79196063D01*
X124396063Y-79340226D01*
X124282795Y-79509744D01*
X124204774Y-79698102D01*
X124165000Y-79898061D01*
X124165000Y-80101939D01*
X124204774Y-80301898D01*
X124282795Y-80490256D01*
X124396063Y-80659774D01*
X124540226Y-80803937D01*
X124709744Y-80917205D01*
X124898102Y-80995226D01*
X125098061Y-81035000D01*
X125301939Y-81035000D01*
X125501898Y-80995226D01*
X125690256Y-80917205D01*
X125859774Y-80803937D01*
X125903711Y-80760000D01*
X130635199Y-80760000D01*
X131987126Y-82111928D01*
X130900000Y-82111928D01*
X130775518Y-82124188D01*
X130655820Y-82160498D01*
X130545506Y-82219463D01*
X130448815Y-82298815D01*
X130369463Y-82395506D01*
X130310498Y-82505820D01*
X130274188Y-82625518D01*
X130261928Y-82750000D01*
X130261928Y-84450000D01*
X130274188Y-84574482D01*
X130310498Y-84694180D01*
X130369463Y-84804494D01*
X130448815Y-84901185D01*
X130545506Y-84980537D01*
X130655820Y-85039502D01*
X130728380Y-85061513D01*
X130596525Y-85193368D01*
X130491867Y-85350000D01*
X125528178Y-85350000D01*
X125403475Y-85163368D01*
X125196632Y-84956525D01*
X125014466Y-84834805D01*
X125131355Y-84765178D01*
X125347588Y-84570269D01*
X125521641Y-84336920D01*
X125646825Y-84074099D01*
X125691476Y-83926890D01*
X125570155Y-83697000D01*
X124377000Y-83697000D01*
X124377000Y-83717000D01*
X124123000Y-83717000D01*
X124123000Y-83697000D01*
X122929845Y-83697000D01*
X122808524Y-83926890D01*
X122853175Y-84074099D01*
X122978359Y-84336920D01*
X123152412Y-84570269D01*
X123368645Y-84765178D01*
X123485534Y-84834805D01*
X123303368Y-84956525D01*
X123096525Y-85163368D01*
X122934010Y-85406589D01*
X122822068Y-85676842D01*
X122765000Y-85963740D01*
X122765000Y-86256260D01*
X122822068Y-86543158D01*
X122934010Y-86813411D01*
X123096525Y-87056632D01*
X123228380Y-87188487D01*
X123155820Y-87210498D01*
X123045506Y-87269463D01*
X122948815Y-87348815D01*
X122869463Y-87445506D01*
X122810498Y-87555820D01*
X122774188Y-87675518D01*
X122761928Y-87800000D01*
X122761928Y-89500000D01*
X122774188Y-89624482D01*
X122810498Y-89744180D01*
X122869463Y-89854494D01*
X122948815Y-89951185D01*
X123045506Y-90030537D01*
X123155820Y-90089502D01*
X123275518Y-90125812D01*
X123400000Y-90138072D01*
X125100000Y-90138072D01*
X125224482Y-90125812D01*
X125344180Y-90089502D01*
X125454494Y-90030537D01*
X125551185Y-89951185D01*
X125630537Y-89854494D01*
X125689502Y-89744180D01*
X125725812Y-89624482D01*
X125738072Y-89500000D01*
X125738072Y-87800000D01*
X125725812Y-87675518D01*
X125689502Y-87555820D01*
X125630537Y-87445506D01*
X125551185Y-87348815D01*
X125454494Y-87269463D01*
X125344180Y-87210498D01*
X125271620Y-87188487D01*
X125403475Y-87056632D01*
X125528178Y-86870000D01*
X129957034Y-86870000D01*
X129940025Y-86890725D01*
X129908342Y-86949999D01*
X129869453Y-87022755D01*
X129825996Y-87166016D01*
X129814999Y-87277669D01*
X129814999Y-87277679D01*
X129811323Y-87315001D01*
X129814999Y-87352324D01*
X129815000Y-89206669D01*
X129811323Y-89244001D01*
X129825997Y-89392986D01*
X129869453Y-89536247D01*
X129940025Y-89668277D01*
X129990901Y-89730269D01*
X130034999Y-89784002D01*
X130063997Y-89807800D01*
X131392209Y-91136013D01*
X131416007Y-91165011D01*
X131531732Y-91259984D01*
X131663761Y-91330556D01*
X131807022Y-91374013D01*
X131918675Y-91385010D01*
X131918683Y-91385010D01*
X131956008Y-91388686D01*
X131993333Y-91385010D01*
X136187668Y-91385010D01*
X136224990Y-91388686D01*
X136262312Y-91385010D01*
X136262323Y-91385010D01*
X136373976Y-91374013D01*
X136517237Y-91330556D01*
X136649266Y-91259984D01*
X136764991Y-91165011D01*
X136788794Y-91136008D01*
X136986729Y-90938072D01*
X137513271Y-90938072D01*
X139295000Y-92719802D01*
X139294999Y-94437676D01*
X139291323Y-94474999D01*
X139294999Y-94512321D01*
X139294999Y-94512331D01*
X139305996Y-94623984D01*
X139345739Y-94755000D01*
X139349453Y-94767245D01*
X139420025Y-94899275D01*
X139452641Y-94939017D01*
X139514998Y-95015000D01*
X139544002Y-95038803D01*
X139931140Y-95425941D01*
X139827047Y-95677244D01*
X139745000Y-96089721D01*
X139745000Y-96510279D01*
X139827047Y-96922756D01*
X139987988Y-97311302D01*
X140221637Y-97660983D01*
X140519017Y-97958363D01*
X140868698Y-98192012D01*
X141257244Y-98352953D01*
X141669721Y-98435000D01*
X142090279Y-98435000D01*
X142502756Y-98352953D01*
X142891302Y-98192012D01*
X143240983Y-97958363D01*
X143407693Y-97791653D01*
X145647952Y-97791653D01*
X145803962Y-98107214D01*
X146178745Y-98298020D01*
X146583551Y-98412044D01*
X147002824Y-98444902D01*
X147420451Y-98395334D01*
X147820383Y-98265243D01*
X148116038Y-98107214D01*
X148272048Y-97791653D01*
X146960000Y-96479605D01*
X145647952Y-97791653D01*
X143407693Y-97791653D01*
X143538363Y-97660983D01*
X143772012Y-97311302D01*
X143932953Y-96922756D01*
X144015000Y-96510279D01*
X144015000Y-96342824D01*
X144815098Y-96342824D01*
X144864666Y-96760451D01*
X144994757Y-97160383D01*
X145152786Y-97456038D01*
X145468347Y-97612048D01*
X146780395Y-96300000D01*
X147139605Y-96300000D01*
X148451653Y-97612048D01*
X148767214Y-97456038D01*
X148958020Y-97081255D01*
X149072044Y-96676449D01*
X149104902Y-96257176D01*
X149055334Y-95839549D01*
X148925243Y-95439617D01*
X148767214Y-95143962D01*
X148451653Y-94987952D01*
X147139605Y-96300000D01*
X146780395Y-96300000D01*
X145468347Y-94987952D01*
X145152786Y-95143962D01*
X144961980Y-95518745D01*
X144847956Y-95923551D01*
X144815098Y-96342824D01*
X144015000Y-96342824D01*
X144015000Y-96089721D01*
X143932953Y-95677244D01*
X143772012Y-95288698D01*
X143538363Y-94939017D01*
X143407693Y-94808347D01*
X145647952Y-94808347D01*
X146960000Y-96120395D01*
X148272048Y-94808347D01*
X148116038Y-94492786D01*
X147741255Y-94301980D01*
X147336449Y-94187956D01*
X146917176Y-94155098D01*
X146499549Y-94204666D01*
X146099617Y-94334757D01*
X145803962Y-94492786D01*
X145647952Y-94808347D01*
X143407693Y-94808347D01*
X143240983Y-94641637D01*
X142891302Y-94407988D01*
X142502756Y-94247047D01*
X142090279Y-94165000D01*
X141669721Y-94165000D01*
X141257244Y-94247047D01*
X141005941Y-94351140D01*
X140814999Y-94160198D01*
X140814999Y-92442332D01*
X140818676Y-92404999D01*
X140804002Y-92256013D01*
X140760545Y-92112752D01*
X140689973Y-91980723D01*
X140618798Y-91893996D01*
X140595000Y-91864998D01*
X140566002Y-91841200D01*
X139789814Y-91065012D01*
X144757666Y-91065012D01*
X144794988Y-91068688D01*
X144832310Y-91065012D01*
X144832321Y-91065012D01*
X144943974Y-91054015D01*
X145087235Y-91010558D01*
X145219264Y-90939986D01*
X145334989Y-90845013D01*
X145358792Y-90816009D01*
X146189802Y-89985000D01*
X146251939Y-89985000D01*
X146451898Y-89945226D01*
X146640256Y-89867205D01*
X146809774Y-89753937D01*
X146953937Y-89609774D01*
X147067205Y-89440256D01*
X147145226Y-89251898D01*
X147185000Y-89051939D01*
X147185000Y-88848061D01*
X147145226Y-88648102D01*
X147067205Y-88459744D01*
X146953937Y-88290226D01*
X146809774Y-88146063D01*
X146640256Y-88032795D01*
X146451898Y-87954774D01*
X146251939Y-87915000D01*
X146048061Y-87915000D01*
X145848102Y-87954774D01*
X145659744Y-88032795D01*
X145490226Y-88146063D01*
X145346063Y-88290226D01*
X145232795Y-88459744D01*
X145154774Y-88648102D01*
X145115000Y-88848061D01*
X145115000Y-88910198D01*
X144751388Y-89273811D01*
X144817932Y-89113158D01*
X144875000Y-88826260D01*
X144875000Y-88533740D01*
X144817932Y-88246842D01*
X144705990Y-87976589D01*
X144543475Y-87733368D01*
X144336632Y-87526525D01*
X144162240Y-87410000D01*
X144336632Y-87293475D01*
X144543475Y-87086632D01*
X144654815Y-86920000D01*
X150471822Y-86920000D01*
X150596525Y-87106632D01*
X150728380Y-87238487D01*
X150655820Y-87260498D01*
X150545506Y-87319463D01*
X150448815Y-87398815D01*
X150369463Y-87495506D01*
X150310498Y-87605820D01*
X150274188Y-87725518D01*
X150261928Y-87850000D01*
X150261928Y-89550000D01*
X150274188Y-89674482D01*
X150310498Y-89794180D01*
X150369463Y-89904494D01*
X150448815Y-90001185D01*
X150545506Y-90080537D01*
X150655820Y-90139502D01*
X150775518Y-90175812D01*
X150900000Y-90188072D01*
X152600000Y-90188072D01*
X152724482Y-90175812D01*
X152844180Y-90139502D01*
X152954494Y-90080537D01*
X153051185Y-90001185D01*
X153130537Y-89904494D01*
X153189502Y-89794180D01*
X153225812Y-89674482D01*
X153238072Y-89550000D01*
X153238072Y-89086890D01*
X158058524Y-89086890D01*
X158103175Y-89234099D01*
X158228359Y-89496920D01*
X158402412Y-89730269D01*
X158618645Y-89925178D01*
X158868748Y-90074157D01*
X159143109Y-90171481D01*
X159373000Y-90050814D01*
X159373000Y-88857000D01*
X159627000Y-88857000D01*
X159627000Y-90050814D01*
X159856891Y-90171481D01*
X160131252Y-90074157D01*
X160381355Y-89925178D01*
X160597588Y-89730269D01*
X160771641Y-89496920D01*
X160896825Y-89234099D01*
X160941476Y-89086890D01*
X160820155Y-88857000D01*
X159627000Y-88857000D01*
X159373000Y-88857000D01*
X158179845Y-88857000D01*
X158058524Y-89086890D01*
X153238072Y-89086890D01*
X153238072Y-87850000D01*
X153225812Y-87725518D01*
X153189502Y-87605820D01*
X153130537Y-87495506D01*
X153051185Y-87398815D01*
X152954494Y-87319463D01*
X152844180Y-87260498D01*
X152771620Y-87238487D01*
X152903475Y-87106632D01*
X153028178Y-86920000D01*
X153098368Y-86920000D01*
X153161014Y-86939003D01*
X153272667Y-86950000D01*
X153272677Y-86950000D01*
X153309999Y-86953676D01*
X153347322Y-86950000D01*
X158221822Y-86950000D01*
X158346525Y-87136632D01*
X158553368Y-87343475D01*
X158735534Y-87465195D01*
X158618645Y-87534822D01*
X158402412Y-87729731D01*
X158228359Y-87963080D01*
X158103175Y-88225901D01*
X158058524Y-88373110D01*
X158179845Y-88603000D01*
X159373000Y-88603000D01*
X159373000Y-88583000D01*
X159627000Y-88583000D01*
X159627000Y-88603000D01*
X160820155Y-88603000D01*
X160941476Y-88373110D01*
X160896825Y-88225901D01*
X160771641Y-87963080D01*
X160597588Y-87729731D01*
X160381355Y-87534822D01*
X160264466Y-87465195D01*
X160446632Y-87343475D01*
X160653475Y-87136632D01*
X160815990Y-86893411D01*
X160927932Y-86623158D01*
X160985000Y-86336260D01*
X160985000Y-86100001D01*
X168756913Y-86100001D01*
X168743653Y-86113261D01*
X168858345Y-86227953D01*
X168542786Y-86383962D01*
X168351980Y-86758745D01*
X168237956Y-87163551D01*
X168205098Y-87582824D01*
X168254666Y-88000451D01*
X168384757Y-88400383D01*
X168542786Y-88696038D01*
X168858347Y-88852048D01*
X170170395Y-87540000D01*
X170156253Y-87525858D01*
X170335858Y-87346253D01*
X170350000Y-87360395D01*
X170364143Y-87346253D01*
X170543748Y-87525858D01*
X170529605Y-87540000D01*
X170543748Y-87554143D01*
X170364143Y-87733748D01*
X170350000Y-87719605D01*
X169037952Y-89031653D01*
X169193962Y-89347214D01*
X169568745Y-89538020D01*
X169973551Y-89652044D01*
X170392824Y-89684902D01*
X170810451Y-89635334D01*
X171210383Y-89505243D01*
X171506038Y-89347214D01*
X171590001Y-89177383D01*
X171590001Y-90880799D01*
X171361302Y-90727988D01*
X170972756Y-90567047D01*
X170560279Y-90485000D01*
X170139721Y-90485000D01*
X169727244Y-90567047D01*
X169338698Y-90727988D01*
X168989017Y-90961637D01*
X168691637Y-91259017D01*
X168457988Y-91608698D01*
X168297047Y-91997244D01*
X168215000Y-92409721D01*
X168215000Y-92830279D01*
X168297047Y-93242756D01*
X168457988Y-93631302D01*
X168691637Y-93980983D01*
X168989017Y-94278363D01*
X169338698Y-94512012D01*
X169727244Y-94672953D01*
X170139721Y-94755000D01*
X170560279Y-94755000D01*
X170972756Y-94672953D01*
X171361302Y-94512012D01*
X171590000Y-94359201D01*
X171590000Y-95561928D01*
X168850000Y-95561928D01*
X168725518Y-95574188D01*
X168605820Y-95610498D01*
X168495506Y-95669463D01*
X168398815Y-95748815D01*
X168319463Y-95845506D01*
X168260498Y-95955820D01*
X168224188Y-96075518D01*
X168211928Y-96200000D01*
X168211928Y-96940000D01*
X165587322Y-96940000D01*
X165549999Y-96936324D01*
X165512676Y-96940000D01*
X165512667Y-96940000D01*
X165401014Y-96950997D01*
X165257753Y-96994454D01*
X165125724Y-97065026D01*
X165009999Y-97159999D01*
X164986201Y-97188997D01*
X162460199Y-99715000D01*
X162398061Y-99715000D01*
X162198102Y-99754774D01*
X162009744Y-99832795D01*
X161840226Y-99946063D01*
X161696063Y-100090226D01*
X161582795Y-100259744D01*
X161504774Y-100448102D01*
X161465000Y-100648061D01*
X161465000Y-100851939D01*
X161504774Y-101051898D01*
X161582795Y-101240256D01*
X161696063Y-101409774D01*
X161840226Y-101553937D01*
X162009744Y-101667205D01*
X162198102Y-101745226D01*
X162398061Y-101785000D01*
X162601939Y-101785000D01*
X162801898Y-101745226D01*
X162990256Y-101667205D01*
X163159774Y-101553937D01*
X163303937Y-101409774D01*
X163417205Y-101240256D01*
X163495226Y-101051898D01*
X163535000Y-100851939D01*
X163535000Y-100789801D01*
X165864802Y-98460000D01*
X168211928Y-98460000D01*
X168211928Y-99200000D01*
X168224188Y-99324482D01*
X168260498Y-99444180D01*
X168319463Y-99554494D01*
X168398815Y-99651185D01*
X168495506Y-99730537D01*
X168605820Y-99789502D01*
X168725518Y-99825812D01*
X168850000Y-99838072D01*
X171413270Y-99838072D01*
X171415002Y-99839804D01*
X171415002Y-101553869D01*
X171361302Y-101517988D01*
X170972756Y-101357047D01*
X170560279Y-101275000D01*
X170139721Y-101275000D01*
X169727244Y-101357047D01*
X169338698Y-101517988D01*
X168989017Y-101751637D01*
X168691637Y-102049017D01*
X168457988Y-102398698D01*
X168297047Y-102787244D01*
X168215000Y-103199721D01*
X168215000Y-103620279D01*
X168297047Y-104032756D01*
X168457988Y-104421302D01*
X168691637Y-104770983D01*
X168989017Y-105068363D01*
X169338698Y-105302012D01*
X169727244Y-105462953D01*
X170139721Y-105545000D01*
X170560279Y-105545000D01*
X170972756Y-105462953D01*
X171361302Y-105302012D01*
X171415002Y-105266131D01*
X171415002Y-106636438D01*
X171131255Y-106491980D01*
X170726449Y-106377956D01*
X170307176Y-106345098D01*
X169889549Y-106394666D01*
X169489617Y-106524757D01*
X169193962Y-106682786D01*
X169037952Y-106998347D01*
X170350000Y-108310395D01*
X170364143Y-108296253D01*
X170543748Y-108475858D01*
X170529605Y-108490000D01*
X170543748Y-108504143D01*
X170364143Y-108683748D01*
X170350000Y-108669605D01*
X169037952Y-109981653D01*
X169193962Y-110297214D01*
X169568745Y-110488020D01*
X169973551Y-110602044D01*
X170392824Y-110634902D01*
X170810451Y-110585334D01*
X171210383Y-110455243D01*
X171415001Y-110345873D01*
X171415001Y-111713869D01*
X171361302Y-111677988D01*
X170972756Y-111517047D01*
X170560279Y-111435000D01*
X170139721Y-111435000D01*
X169727244Y-111517047D01*
X169338698Y-111677988D01*
X168989017Y-111911637D01*
X168691637Y-112209017D01*
X168457988Y-112558698D01*
X168297047Y-112947244D01*
X168215000Y-113359721D01*
X168215000Y-113780279D01*
X168297047Y-114192756D01*
X168457988Y-114581302D01*
X168691637Y-114930983D01*
X168989017Y-115228363D01*
X169338698Y-115462012D01*
X169727244Y-115622953D01*
X170139721Y-115705000D01*
X170560279Y-115705000D01*
X170972756Y-115622953D01*
X171361302Y-115462012D01*
X171415001Y-115426131D01*
X171415001Y-116511928D01*
X168850000Y-116511928D01*
X168725518Y-116524188D01*
X168605820Y-116560498D01*
X168495506Y-116619463D01*
X168398815Y-116698815D01*
X168319463Y-116795506D01*
X168260498Y-116905820D01*
X168224188Y-117025518D01*
X168211928Y-117150000D01*
X168211928Y-117890000D01*
X157414802Y-117890000D01*
X154288072Y-114763271D01*
X154288072Y-114123740D01*
X159165000Y-114123740D01*
X159165000Y-114416260D01*
X159222068Y-114703158D01*
X159334010Y-114973411D01*
X159496525Y-115216632D01*
X159703368Y-115423475D01*
X159946589Y-115585990D01*
X160216842Y-115697932D01*
X160503740Y-115755000D01*
X160796260Y-115755000D01*
X161083158Y-115697932D01*
X161353411Y-115585990D01*
X161596632Y-115423475D01*
X161803475Y-115216632D01*
X161965990Y-114973411D01*
X162077932Y-114703158D01*
X162135000Y-114416260D01*
X162135000Y-114123740D01*
X162077932Y-113836842D01*
X161965990Y-113566589D01*
X161803475Y-113323368D01*
X161596632Y-113116525D01*
X161414466Y-112994805D01*
X161531355Y-112925178D01*
X161747588Y-112730269D01*
X161921641Y-112496920D01*
X162046825Y-112234099D01*
X162091476Y-112086890D01*
X161970155Y-111857000D01*
X160777000Y-111857000D01*
X160777000Y-111877000D01*
X160523000Y-111877000D01*
X160523000Y-111857000D01*
X159329845Y-111857000D01*
X159208524Y-112086890D01*
X159253175Y-112234099D01*
X159378359Y-112496920D01*
X159552412Y-112730269D01*
X159768645Y-112925178D01*
X159885534Y-112994805D01*
X159703368Y-113116525D01*
X159496525Y-113323368D01*
X159334010Y-113566589D01*
X159222068Y-113836842D01*
X159165000Y-114123740D01*
X154288072Y-114123740D01*
X154288072Y-113400000D01*
X154275812Y-113275518D01*
X154239502Y-113155820D01*
X154180537Y-113045506D01*
X154101185Y-112948815D01*
X154004494Y-112869463D01*
X153894180Y-112810498D01*
X153821620Y-112788487D01*
X153953475Y-112656632D01*
X154115990Y-112413411D01*
X154227932Y-112143158D01*
X154285000Y-111856260D01*
X154285000Y-111563740D01*
X154227932Y-111276842D01*
X154115990Y-111006589D01*
X153953475Y-110763368D01*
X153746632Y-110556525D01*
X153564466Y-110434805D01*
X153681355Y-110365178D01*
X153897588Y-110170269D01*
X154071641Y-109936920D01*
X154196825Y-109674099D01*
X154241476Y-109526890D01*
X154120155Y-109297000D01*
X152927000Y-109297000D01*
X152927000Y-109317000D01*
X152673000Y-109317000D01*
X152673000Y-109297000D01*
X151479845Y-109297000D01*
X151358524Y-109526890D01*
X151403175Y-109674099D01*
X151528359Y-109936920D01*
X151702412Y-110170269D01*
X151918645Y-110365178D01*
X152035534Y-110434805D01*
X151853368Y-110556525D01*
X151646525Y-110763368D01*
X151484010Y-111006589D01*
X151372068Y-111276842D01*
X151315000Y-111563740D01*
X151315000Y-111856260D01*
X151372068Y-112143158D01*
X151484010Y-112413411D01*
X151646525Y-112656632D01*
X151778380Y-112788487D01*
X151705820Y-112810498D01*
X151595506Y-112869463D01*
X151498815Y-112948815D01*
X151419463Y-113045506D01*
X151360498Y-113155820D01*
X151324188Y-113275518D01*
X151311928Y-113400000D01*
X151311928Y-113963270D01*
X149510199Y-115765000D01*
X149448061Y-115765000D01*
X149248102Y-115804774D01*
X149059744Y-115882795D01*
X148890226Y-115996063D01*
X148746063Y-116140226D01*
X148632795Y-116309744D01*
X148554774Y-116498102D01*
X148515000Y-116698061D01*
X148515000Y-116901939D01*
X148554774Y-117101898D01*
X148632795Y-117290256D01*
X148746063Y-117459774D01*
X148890226Y-117603937D01*
X149059744Y-117717205D01*
X149248102Y-117795226D01*
X149448061Y-117835000D01*
X149651939Y-117835000D01*
X149851898Y-117795226D01*
X150040256Y-117717205D01*
X150209774Y-117603937D01*
X150353937Y-117459774D01*
X150467205Y-117290256D01*
X150545226Y-117101898D01*
X150585000Y-116901939D01*
X150585000Y-116839801D01*
X151728438Y-115696363D01*
X151825518Y-115725812D01*
X151950000Y-115738072D01*
X153113271Y-115738072D01*
X156536201Y-119161003D01*
X156559999Y-119190001D01*
X156675724Y-119284974D01*
X156807753Y-119355546D01*
X156951014Y-119399003D01*
X157062667Y-119410000D01*
X157062676Y-119410000D01*
X157099999Y-119413676D01*
X157137322Y-119410000D01*
X168211928Y-119410000D01*
X168211928Y-120150000D01*
X168224188Y-120274482D01*
X168260498Y-120394180D01*
X168319463Y-120504494D01*
X168398815Y-120601185D01*
X168495506Y-120680537D01*
X168605820Y-120739502D01*
X168725518Y-120775812D01*
X168850000Y-120788072D01*
X169086124Y-120788072D01*
X165353145Y-124521051D01*
X165422044Y-124276449D01*
X165454902Y-123857176D01*
X165405334Y-123439549D01*
X165275243Y-123039617D01*
X165117214Y-122743962D01*
X164801653Y-122587952D01*
X163489605Y-123900000D01*
X163503748Y-123914143D01*
X163324143Y-124093748D01*
X163310000Y-124079605D01*
X163295858Y-124093748D01*
X163116253Y-123914143D01*
X163130395Y-123900000D01*
X161818347Y-122587952D01*
X161502786Y-122743962D01*
X161311980Y-123118745D01*
X161197956Y-123523551D01*
X161165098Y-123942824D01*
X161214666Y-124360451D01*
X161344757Y-124760383D01*
X161454126Y-124965001D01*
X160369803Y-124965001D01*
X160178860Y-124774058D01*
X160282953Y-124522756D01*
X160365000Y-124110279D01*
X160365000Y-123689721D01*
X160282953Y-123277244D01*
X160122012Y-122888698D01*
X159888363Y-122539017D01*
X159757693Y-122408347D01*
X161997952Y-122408347D01*
X163310000Y-123720395D01*
X164622048Y-122408347D01*
X164466038Y-122092786D01*
X164091255Y-121901980D01*
X163686449Y-121787956D01*
X163267176Y-121755098D01*
X162849549Y-121804666D01*
X162449617Y-121934757D01*
X162153962Y-122092786D01*
X161997952Y-122408347D01*
X159757693Y-122408347D01*
X159590983Y-122241637D01*
X159241302Y-122007988D01*
X158852756Y-121847047D01*
X158440279Y-121765000D01*
X158019721Y-121765000D01*
X157607244Y-121847047D01*
X157218698Y-122007988D01*
X156869017Y-122241637D01*
X156571637Y-122539017D01*
X156337988Y-122888698D01*
X156177047Y-123277244D01*
X156095000Y-123689721D01*
X156095000Y-124110279D01*
X156177047Y-124522756D01*
X156281140Y-124774059D01*
X156090198Y-124965001D01*
X155288072Y-124965001D01*
X155288072Y-122400000D01*
X155275812Y-122275518D01*
X155239502Y-122155820D01*
X155180537Y-122045506D01*
X155101185Y-121948815D01*
X155004494Y-121869463D01*
X154894180Y-121810498D01*
X154774482Y-121774188D01*
X154650000Y-121761928D01*
X151650000Y-121761928D01*
X151525518Y-121774188D01*
X151405820Y-121810498D01*
X151295506Y-121869463D01*
X151198815Y-121948815D01*
X151119463Y-122045506D01*
X151060498Y-122155820D01*
X151024188Y-122275518D01*
X151011928Y-122400000D01*
X151011928Y-124965001D01*
X148963562Y-124965001D01*
X149108020Y-124681255D01*
X149222044Y-124276449D01*
X149254902Y-123857176D01*
X149205334Y-123439549D01*
X149075243Y-123039617D01*
X148917214Y-122743962D01*
X148601653Y-122587952D01*
X147289605Y-123900000D01*
X147303748Y-123914143D01*
X147124143Y-124093748D01*
X147110000Y-124079605D01*
X147095858Y-124093748D01*
X146916253Y-123914143D01*
X146930395Y-123900000D01*
X145618347Y-122587952D01*
X145302786Y-122743962D01*
X145111980Y-123118745D01*
X144997956Y-123523551D01*
X144965098Y-123942824D01*
X145014666Y-124360451D01*
X145144757Y-124760383D01*
X145254126Y-124965001D01*
X144169803Y-124965001D01*
X143978860Y-124774058D01*
X144082953Y-124522756D01*
X144165000Y-124110279D01*
X144165000Y-123689721D01*
X144082953Y-123277244D01*
X143922012Y-122888698D01*
X143688363Y-122539017D01*
X143557693Y-122408347D01*
X145797952Y-122408347D01*
X147110000Y-123720395D01*
X148422048Y-122408347D01*
X148266038Y-122092786D01*
X147891255Y-121901980D01*
X147486449Y-121787956D01*
X147067176Y-121755098D01*
X146649549Y-121804666D01*
X146249617Y-121934757D01*
X145953962Y-122092786D01*
X145797952Y-122408347D01*
X143557693Y-122408347D01*
X143390983Y-122241637D01*
X143041302Y-122007988D01*
X142652756Y-121847047D01*
X142240279Y-121765000D01*
X141819721Y-121765000D01*
X141407244Y-121847047D01*
X141155941Y-121951140D01*
X140768803Y-121564002D01*
X140745000Y-121534998D01*
X140629275Y-121440025D01*
X140497246Y-121369453D01*
X140353985Y-121325996D01*
X140242332Y-121314999D01*
X140242321Y-121314999D01*
X140204999Y-121311323D01*
X140167677Y-121314999D01*
X135227321Y-121314999D01*
X135189998Y-121311323D01*
X135152675Y-121314999D01*
X135152666Y-121314999D01*
X135041013Y-121325996D01*
X134897752Y-121369453D01*
X134765722Y-121440025D01*
X134692336Y-121500252D01*
X134649998Y-121534998D01*
X134626200Y-121563996D01*
X132905095Y-123285102D01*
X132825243Y-123039617D01*
X132667214Y-122743962D01*
X132351653Y-122587952D01*
X131039605Y-123900000D01*
X131053748Y-123914143D01*
X130874143Y-124093748D01*
X130860000Y-124079605D01*
X130845858Y-124093748D01*
X130666253Y-123914143D01*
X130680395Y-123900000D01*
X129368347Y-122587952D01*
X129052786Y-122743962D01*
X128861980Y-123118745D01*
X128747956Y-123523551D01*
X128715098Y-123942824D01*
X128764666Y-124360451D01*
X128894757Y-124760383D01*
X129004126Y-124965001D01*
X127919803Y-124965001D01*
X127728860Y-124774058D01*
X127832953Y-124522756D01*
X127915000Y-124110279D01*
X127915000Y-123689721D01*
X127832953Y-123277244D01*
X127672012Y-122888698D01*
X127438363Y-122539017D01*
X127307693Y-122408347D01*
X129547952Y-122408347D01*
X130860000Y-123720395D01*
X132172048Y-122408347D01*
X132016038Y-122092786D01*
X131641255Y-121901980D01*
X131236449Y-121787956D01*
X130817176Y-121755098D01*
X130399549Y-121804666D01*
X129999617Y-121934757D01*
X129703962Y-122092786D01*
X129547952Y-122408347D01*
X127307693Y-122408347D01*
X127140983Y-122241637D01*
X126791302Y-122007988D01*
X126402756Y-121847047D01*
X125990279Y-121765000D01*
X125569721Y-121765000D01*
X125157244Y-121847047D01*
X124768698Y-122007988D01*
X124419017Y-122241637D01*
X124121637Y-122539017D01*
X123887988Y-122888698D01*
X123727047Y-123277244D01*
X123645000Y-123689721D01*
X123645000Y-124110279D01*
X123727047Y-124522756D01*
X123887988Y-124911302D01*
X124121637Y-125260983D01*
X124419017Y-125558363D01*
X124768698Y-125792012D01*
X125157244Y-125952953D01*
X125569721Y-126035000D01*
X125990279Y-126035000D01*
X126402756Y-125952953D01*
X126654058Y-125848860D01*
X127041202Y-126236004D01*
X127065000Y-126265002D01*
X127180725Y-126359975D01*
X127312754Y-126430547D01*
X127456015Y-126474004D01*
X127567668Y-126485001D01*
X127567677Y-126485001D01*
X127605000Y-126488677D01*
X127642323Y-126485001D01*
X131698679Y-126485001D01*
X131736001Y-126488677D01*
X131773323Y-126485001D01*
X131773334Y-126485001D01*
X131884987Y-126474004D01*
X132028248Y-126430547D01*
X132160277Y-126359975D01*
X132276002Y-126265002D01*
X132299805Y-126235999D01*
X133196005Y-125339799D01*
X133225002Y-125316002D01*
X133319975Y-125200277D01*
X133390547Y-125068248D01*
X133434004Y-124924987D01*
X133436101Y-124903698D01*
X134811928Y-123527872D01*
X134811928Y-125400000D01*
X134824188Y-125524482D01*
X134860498Y-125644180D01*
X134919463Y-125754494D01*
X134998815Y-125851185D01*
X135095506Y-125930537D01*
X135205820Y-125989502D01*
X135325518Y-126025812D01*
X135450000Y-126038072D01*
X138450000Y-126038072D01*
X138574482Y-126025812D01*
X138694180Y-125989502D01*
X138804494Y-125930537D01*
X138901185Y-125851185D01*
X138980537Y-125754494D01*
X139039502Y-125644180D01*
X139075812Y-125524482D01*
X139088072Y-125400000D01*
X139088072Y-122834999D01*
X139890198Y-122834999D01*
X140081140Y-123025941D01*
X139977047Y-123277244D01*
X139895000Y-123689721D01*
X139895000Y-124110279D01*
X139977047Y-124522756D01*
X140137988Y-124911302D01*
X140371637Y-125260983D01*
X140669017Y-125558363D01*
X141018698Y-125792012D01*
X141407244Y-125952953D01*
X141819721Y-126035000D01*
X142240279Y-126035000D01*
X142652756Y-125952953D01*
X142904058Y-125848860D01*
X143291202Y-126236004D01*
X143315000Y-126265002D01*
X143430725Y-126359975D01*
X143562754Y-126430547D01*
X143706015Y-126474004D01*
X143817668Y-126485001D01*
X143817677Y-126485001D01*
X143855000Y-126488677D01*
X143892323Y-126485001D01*
X156367677Y-126485001D01*
X156404999Y-126488677D01*
X156442321Y-126485001D01*
X156442332Y-126485001D01*
X156553985Y-126474004D01*
X156697246Y-126430547D01*
X156829275Y-126359975D01*
X156945000Y-126265002D01*
X156968803Y-126235998D01*
X157355941Y-125848860D01*
X157607244Y-125952953D01*
X158019721Y-126035000D01*
X158440279Y-126035000D01*
X158852756Y-125952953D01*
X159104058Y-125848860D01*
X159491202Y-126236004D01*
X159515000Y-126265002D01*
X159630725Y-126359975D01*
X159762754Y-126430547D01*
X159906015Y-126474004D01*
X160017668Y-126485001D01*
X160017677Y-126485001D01*
X160055000Y-126488677D01*
X160092323Y-126485001D01*
X165186675Y-126485001D01*
X165223997Y-126488677D01*
X165261319Y-126485001D01*
X165261330Y-126485001D01*
X165372983Y-126474004D01*
X165516244Y-126430547D01*
X165648273Y-126359975D01*
X165763998Y-126265002D01*
X165787801Y-126235998D01*
X167615000Y-124408799D01*
X167615000Y-124833393D01*
X167745083Y-125487368D01*
X168000252Y-126103399D01*
X168370698Y-126657812D01*
X168842188Y-127129302D01*
X169157521Y-127340000D01*
X114842479Y-127340000D01*
X115157812Y-127129302D01*
X115629302Y-126657812D01*
X115999748Y-126103399D01*
X116254917Y-125487368D01*
X116385000Y-124833393D01*
X116385000Y-124166607D01*
X116254917Y-123512632D01*
X115999748Y-122896601D01*
X115667931Y-122400000D01*
X118561928Y-122400000D01*
X118561928Y-125400000D01*
X118574188Y-125524482D01*
X118610498Y-125644180D01*
X118669463Y-125754494D01*
X118748815Y-125851185D01*
X118845506Y-125930537D01*
X118955820Y-125989502D01*
X119075518Y-126025812D01*
X119200000Y-126038072D01*
X122200000Y-126038072D01*
X122324482Y-126025812D01*
X122444180Y-125989502D01*
X122554494Y-125930537D01*
X122651185Y-125851185D01*
X122730537Y-125754494D01*
X122789502Y-125644180D01*
X122825812Y-125524482D01*
X122838072Y-125400000D01*
X122838072Y-122400000D01*
X122825812Y-122275518D01*
X122789502Y-122155820D01*
X122730537Y-122045506D01*
X122651185Y-121948815D01*
X122554494Y-121869463D01*
X122444180Y-121810498D01*
X122324482Y-121774188D01*
X122200000Y-121761928D01*
X119200000Y-121761928D01*
X119075518Y-121774188D01*
X118955820Y-121810498D01*
X118845506Y-121869463D01*
X118748815Y-121948815D01*
X118669463Y-122045506D01*
X118610498Y-122155820D01*
X118574188Y-122275518D01*
X118561928Y-122400000D01*
X115667931Y-122400000D01*
X115629302Y-122342188D01*
X115157812Y-121870698D01*
X114603399Y-121500252D01*
X113987368Y-121245083D01*
X113333393Y-121115000D01*
X112666607Y-121115000D01*
X112012632Y-121245083D01*
X111396601Y-121500252D01*
X110842188Y-121870698D01*
X110370698Y-122342188D01*
X110160000Y-122657521D01*
X110160000Y-118379721D01*
X111465000Y-118379721D01*
X111465000Y-118800279D01*
X111547047Y-119212756D01*
X111707988Y-119601302D01*
X111941637Y-119950983D01*
X112239017Y-120248363D01*
X112588698Y-120482012D01*
X112977244Y-120642953D01*
X113389721Y-120725000D01*
X113810279Y-120725000D01*
X114222756Y-120642953D01*
X114611302Y-120482012D01*
X114960983Y-120248363D01*
X115258363Y-119950983D01*
X115492012Y-119601302D01*
X115652953Y-119212756D01*
X115735000Y-118800279D01*
X115735000Y-118379721D01*
X115652953Y-117967244D01*
X115492012Y-117578698D01*
X115258363Y-117229017D01*
X114960983Y-116931637D01*
X114611302Y-116697988D01*
X114222756Y-116537047D01*
X113810279Y-116455000D01*
X113389721Y-116455000D01*
X112977244Y-116537047D01*
X112588698Y-116697988D01*
X112239017Y-116931637D01*
X111941637Y-117229017D01*
X111707988Y-117578698D01*
X111547047Y-117967244D01*
X111465000Y-118379721D01*
X110160000Y-118379721D01*
X110160000Y-77342479D01*
X110370698Y-77657812D01*
X110842188Y-78129302D01*
X111396601Y-78499748D01*
X112012632Y-78754917D01*
X112666607Y-78885000D01*
X113333393Y-78885000D01*
X113987368Y-78754917D01*
X114603399Y-78499748D01*
X115157812Y-78129302D01*
X115629302Y-77657812D01*
X115999748Y-77103399D01*
X116254917Y-76487368D01*
X116385000Y-75833393D01*
X116385000Y-75166607D01*
X116254917Y-74512632D01*
X115999748Y-73896601D01*
X115629302Y-73342188D01*
X115157812Y-72870698D01*
X114842479Y-72660000D01*
X169157521Y-72660000D01*
X168842188Y-72870698D01*
G37*
%TD.AperFunction*%
D17*
X138740226Y-81203937D02*
X138909744Y-81317205D01*
X139098102Y-81395226D01*
X139298061Y-81435000D01*
X139501939Y-81435000D01*
X139693250Y-81396946D01*
X139163997Y-81926200D01*
X139134999Y-81949998D01*
X139111201Y-81978996D01*
X139111200Y-81978997D01*
X139040025Y-82065723D01*
X138969453Y-82197753D01*
X138925997Y-82341014D01*
X138911323Y-82489999D01*
X138915000Y-82527331D01*
X138914999Y-87467676D01*
X138911323Y-87504999D01*
X138914999Y-87542321D01*
X138914999Y-87542331D01*
X138925996Y-87653984D01*
X138969453Y-87797245D01*
X139040025Y-87929275D01*
X139078855Y-87976589D01*
X139134998Y-88045000D01*
X139164002Y-88068803D01*
X139408791Y-88313592D01*
X139365000Y-88533740D01*
X139365000Y-88826260D01*
X139422068Y-89113158D01*
X139534010Y-89383411D01*
X139641988Y-89545012D01*
X138488072Y-89545012D01*
X138488072Y-89149999D01*
X138471008Y-88976745D01*
X138420472Y-88810149D01*
X138338405Y-88656613D01*
X138227962Y-88522038D01*
X138093387Y-88411595D01*
X137939851Y-88329528D01*
X137773255Y-88278992D01*
X137600001Y-88261928D01*
X136899999Y-88261928D01*
X136726745Y-88278992D01*
X136560149Y-88329528D01*
X136406613Y-88411595D01*
X136325363Y-88478276D01*
X136301185Y-88448815D01*
X136204494Y-88369463D01*
X136094180Y-88310498D01*
X135974482Y-88274188D01*
X135850000Y-88261928D01*
X135535750Y-88265000D01*
X135377000Y-88423750D01*
X135377000Y-89473000D01*
X135397000Y-89473000D01*
X135397000Y-89727000D01*
X135377000Y-89727000D01*
X135377000Y-89747000D01*
X135123000Y-89747000D01*
X135123000Y-89727000D01*
X134173750Y-89727000D01*
X134035740Y-89865010D01*
X132642635Y-89865010D01*
X132847588Y-89680269D01*
X133021641Y-89446920D01*
X133146825Y-89184099D01*
X133191476Y-89036890D01*
X133119235Y-88900000D01*
X134011928Y-88900000D01*
X134015000Y-89314250D01*
X134173750Y-89473000D01*
X135123000Y-89473000D01*
X135123000Y-88423750D01*
X134964250Y-88265000D01*
X134650000Y-88261928D01*
X134525518Y-88274188D01*
X134405820Y-88310498D01*
X134295506Y-88369463D01*
X134198815Y-88448815D01*
X134119463Y-88545506D01*
X134060498Y-88655820D01*
X134024188Y-88775518D01*
X134011928Y-88900000D01*
X133119235Y-88900000D01*
X133070155Y-88807000D01*
X131877000Y-88807000D01*
X131877000Y-88827000D01*
X131623000Y-88827000D01*
X131623000Y-88807000D01*
X131603000Y-88807000D01*
X131603000Y-88553000D01*
X131623000Y-88553000D01*
X131623000Y-88533000D01*
X131877000Y-88533000D01*
X131877000Y-88553000D01*
X133070155Y-88553000D01*
X133191476Y-88323110D01*
X133146825Y-88175901D01*
X133021641Y-87913080D01*
X132847588Y-87679731D01*
X132631355Y-87484822D01*
X132514466Y-87415195D01*
X132696632Y-87293475D01*
X132903475Y-87086632D01*
X133065990Y-86843411D01*
X133177932Y-86573158D01*
X133235000Y-86286260D01*
X133235000Y-85993740D01*
X133177932Y-85706842D01*
X133065990Y-85436589D01*
X132903475Y-85193368D01*
X132771620Y-85061513D01*
X132844180Y-85039502D01*
X132954494Y-84980537D01*
X133051185Y-84901185D01*
X133130537Y-84804494D01*
X133189502Y-84694180D01*
X133225812Y-84574482D01*
X133238072Y-84450000D01*
X133238072Y-84062873D01*
X134011928Y-84836730D01*
X134011928Y-85450001D01*
X134028992Y-85623255D01*
X134079528Y-85789851D01*
X134161595Y-85943387D01*
X134272038Y-86077962D01*
X134406613Y-86188405D01*
X134560149Y-86270472D01*
X134726745Y-86321008D01*
X134899999Y-86338072D01*
X135600001Y-86338072D01*
X135773255Y-86321008D01*
X135939851Y-86270472D01*
X136093387Y-86188405D01*
X136227962Y-86077962D01*
X136250000Y-86051109D01*
X136272038Y-86077962D01*
X136406613Y-86188405D01*
X136560149Y-86270472D01*
X136726745Y-86321008D01*
X136899999Y-86338072D01*
X137600001Y-86338072D01*
X137773255Y-86321008D01*
X137939851Y-86270472D01*
X138093387Y-86188405D01*
X138227962Y-86077962D01*
X138338405Y-85943387D01*
X138420472Y-85789851D01*
X138471008Y-85623255D01*
X138488072Y-85450001D01*
X138488072Y-84549999D01*
X138471008Y-84376745D01*
X138420472Y-84210149D01*
X138338405Y-84056613D01*
X138227962Y-83922038D01*
X138093387Y-83811595D01*
X138010000Y-83767024D01*
X138010000Y-81732976D01*
X138093387Y-81688405D01*
X138227962Y-81577962D01*
X138338405Y-81443387D01*
X138420472Y-81289851D01*
X138459862Y-81160000D01*
X138696289Y-81160000D01*
X138740226Y-81203937D01*
%TA.AperFunction,Conductor*%
D18*
G36*
X138740226Y-81203937D02*
G01*
X138909744Y-81317205D01*
X139098102Y-81395226D01*
X139298061Y-81435000D01*
X139501939Y-81435000D01*
X139693250Y-81396946D01*
X139163997Y-81926200D01*
X139134999Y-81949998D01*
X139111201Y-81978996D01*
X139111200Y-81978997D01*
X139040025Y-82065723D01*
X138969453Y-82197753D01*
X138925997Y-82341014D01*
X138911323Y-82489999D01*
X138915000Y-82527331D01*
X138914999Y-87467676D01*
X138911323Y-87504999D01*
X138914999Y-87542321D01*
X138914999Y-87542331D01*
X138925996Y-87653984D01*
X138969453Y-87797245D01*
X139040025Y-87929275D01*
X139078855Y-87976589D01*
X139134998Y-88045000D01*
X139164002Y-88068803D01*
X139408791Y-88313592D01*
X139365000Y-88533740D01*
X139365000Y-88826260D01*
X139422068Y-89113158D01*
X139534010Y-89383411D01*
X139641988Y-89545012D01*
X138488072Y-89545012D01*
X138488072Y-89149999D01*
X138471008Y-88976745D01*
X138420472Y-88810149D01*
X138338405Y-88656613D01*
X138227962Y-88522038D01*
X138093387Y-88411595D01*
X137939851Y-88329528D01*
X137773255Y-88278992D01*
X137600001Y-88261928D01*
X136899999Y-88261928D01*
X136726745Y-88278992D01*
X136560149Y-88329528D01*
X136406613Y-88411595D01*
X136325363Y-88478276D01*
X136301185Y-88448815D01*
X136204494Y-88369463D01*
X136094180Y-88310498D01*
X135974482Y-88274188D01*
X135850000Y-88261928D01*
X135535750Y-88265000D01*
X135377000Y-88423750D01*
X135377000Y-89473000D01*
X135397000Y-89473000D01*
X135397000Y-89727000D01*
X135377000Y-89727000D01*
X135377000Y-89747000D01*
X135123000Y-89747000D01*
X135123000Y-89727000D01*
X134173750Y-89727000D01*
X134035740Y-89865010D01*
X132642635Y-89865010D01*
X132847588Y-89680269D01*
X133021641Y-89446920D01*
X133146825Y-89184099D01*
X133191476Y-89036890D01*
X133119235Y-88900000D01*
X134011928Y-88900000D01*
X134015000Y-89314250D01*
X134173750Y-89473000D01*
X135123000Y-89473000D01*
X135123000Y-88423750D01*
X134964250Y-88265000D01*
X134650000Y-88261928D01*
X134525518Y-88274188D01*
X134405820Y-88310498D01*
X134295506Y-88369463D01*
X134198815Y-88448815D01*
X134119463Y-88545506D01*
X134060498Y-88655820D01*
X134024188Y-88775518D01*
X134011928Y-88900000D01*
X133119235Y-88900000D01*
X133070155Y-88807000D01*
X131877000Y-88807000D01*
X131877000Y-88827000D01*
X131623000Y-88827000D01*
X131623000Y-88807000D01*
X131603000Y-88807000D01*
X131603000Y-88553000D01*
X131623000Y-88553000D01*
X131623000Y-88533000D01*
X131877000Y-88533000D01*
X131877000Y-88553000D01*
X133070155Y-88553000D01*
X133191476Y-88323110D01*
X133146825Y-88175901D01*
X133021641Y-87913080D01*
X132847588Y-87679731D01*
X132631355Y-87484822D01*
X132514466Y-87415195D01*
X132696632Y-87293475D01*
X132903475Y-87086632D01*
X133065990Y-86843411D01*
X133177932Y-86573158D01*
X133235000Y-86286260D01*
X133235000Y-85993740D01*
X133177932Y-85706842D01*
X133065990Y-85436589D01*
X132903475Y-85193368D01*
X132771620Y-85061513D01*
X132844180Y-85039502D01*
X132954494Y-84980537D01*
X133051185Y-84901185D01*
X133130537Y-84804494D01*
X133189502Y-84694180D01*
X133225812Y-84574482D01*
X133238072Y-84450000D01*
X133238072Y-84062873D01*
X134011928Y-84836730D01*
X134011928Y-85450001D01*
X134028992Y-85623255D01*
X134079528Y-85789851D01*
X134161595Y-85943387D01*
X134272038Y-86077962D01*
X134406613Y-86188405D01*
X134560149Y-86270472D01*
X134726745Y-86321008D01*
X134899999Y-86338072D01*
X135600001Y-86338072D01*
X135773255Y-86321008D01*
X135939851Y-86270472D01*
X136093387Y-86188405D01*
X136227962Y-86077962D01*
X136250000Y-86051109D01*
X136272038Y-86077962D01*
X136406613Y-86188405D01*
X136560149Y-86270472D01*
X136726745Y-86321008D01*
X136899999Y-86338072D01*
X137600001Y-86338072D01*
X137773255Y-86321008D01*
X137939851Y-86270472D01*
X138093387Y-86188405D01*
X138227962Y-86077962D01*
X138338405Y-85943387D01*
X138420472Y-85789851D01*
X138471008Y-85623255D01*
X138488072Y-85450001D01*
X138488072Y-84549999D01*
X138471008Y-84376745D01*
X138420472Y-84210149D01*
X138338405Y-84056613D01*
X138227962Y-83922038D01*
X138093387Y-83811595D01*
X138010000Y-83767024D01*
X138010000Y-81732976D01*
X138093387Y-81688405D01*
X138227962Y-81577962D01*
X138338405Y-81443387D01*
X138420472Y-81289851D01*
X138459862Y-81160000D01*
X138696289Y-81160000D01*
X138740226Y-81203937D01*
G37*
%TD.AperFunction*%
D17*
X142116525Y-75176632D02*
X142323368Y-75383475D01*
X142497760Y-75500000D01*
X142323368Y-75616525D01*
X142116525Y-75823368D01*
X142000000Y-75997760D01*
X141883475Y-75823368D01*
X141676632Y-75616525D01*
X141500594Y-75498900D01*
X141730269Y-75327588D01*
X141925178Y-75111355D01*
X141994805Y-74994466D01*
X142116525Y-75176632D01*
%TA.AperFunction,Conductor*%
D18*
G36*
X142116525Y-75176632D02*
G01*
X142323368Y-75383475D01*
X142497760Y-75500000D01*
X142323368Y-75616525D01*
X142116525Y-75823368D01*
X142000000Y-75997760D01*
X141883475Y-75823368D01*
X141676632Y-75616525D01*
X141500594Y-75498900D01*
X141730269Y-75327588D01*
X141925178Y-75111355D01*
X141994805Y-74994466D01*
X142116525Y-75176632D01*
G37*
%TD.AperFunction*%
D17*
X139534822Y-75111355D02*
X139729731Y-75327588D01*
X139959406Y-75498900D01*
X139783368Y-75616525D01*
X139576525Y-75823368D01*
X139460000Y-75997760D01*
X139343475Y-75823368D01*
X139136632Y-75616525D01*
X138962240Y-75500000D01*
X139136632Y-75383475D01*
X139343475Y-75176632D01*
X139465195Y-74994466D01*
X139534822Y-75111355D01*
%TA.AperFunction,Conductor*%
D18*
G36*
X139534822Y-75111355D02*
G01*
X139729731Y-75327588D01*
X139959406Y-75498900D01*
X139783368Y-75616525D01*
X139576525Y-75823368D01*
X139460000Y-75997760D01*
X139343475Y-75823368D01*
X139136632Y-75616525D01*
X138962240Y-75500000D01*
X139136632Y-75383475D01*
X139343475Y-75176632D01*
X139465195Y-74994466D01*
X139534822Y-75111355D01*
G37*
%TD.AperFunction*%
D17*
X157314822Y-75111355D02*
X157509731Y-75327588D01*
X157739406Y-75498900D01*
X157563368Y-75616525D01*
X157356525Y-75823368D01*
X157240000Y-75997760D01*
X157123475Y-75823368D01*
X156916632Y-75616525D01*
X156742240Y-75500000D01*
X156916632Y-75383475D01*
X157123475Y-75176632D01*
X157245195Y-74994466D01*
X157314822Y-75111355D01*
%TA.AperFunction,Conductor*%
D18*
G36*
X157314822Y-75111355D02*
G01*
X157509731Y-75327588D01*
X157739406Y-75498900D01*
X157563368Y-75616525D01*
X157356525Y-75823368D01*
X157240000Y-75997760D01*
X157123475Y-75823368D01*
X156916632Y-75616525D01*
X156742240Y-75500000D01*
X156916632Y-75383475D01*
X157123475Y-75176632D01*
X157245195Y-74994466D01*
X157314822Y-75111355D01*
G37*
%TD.AperFunction*%
D17*
X124336525Y-75176632D02*
X124543368Y-75383475D01*
X124717760Y-75500000D01*
X124543368Y-75616525D01*
X124336525Y-75823368D01*
X124220000Y-75997760D01*
X124103475Y-75823368D01*
X123896632Y-75616525D01*
X123720594Y-75498900D01*
X123950269Y-75327588D01*
X124145178Y-75111355D01*
X124214805Y-74994466D01*
X124336525Y-75176632D01*
%TA.AperFunction,Conductor*%
D18*
G36*
X124336525Y-75176632D02*
G01*
X124543368Y-75383475D01*
X124717760Y-75500000D01*
X124543368Y-75616525D01*
X124336525Y-75823368D01*
X124220000Y-75997760D01*
X124103475Y-75823368D01*
X123896632Y-75616525D01*
X123720594Y-75498900D01*
X123950269Y-75327588D01*
X124145178Y-75111355D01*
X124214805Y-74994466D01*
X124336525Y-75176632D01*
G37*
%TD.AperFunction*%
%TD*%
M02*
