M48
; DRILL file {KiCad (5.1.10)-1} date 03/08/22 12:45:40
; FORMAT={-:-/ absolute / inch / decimal}
; #@! TF.CreationDate,2022-03-08T12:45:40-05:00
; #@! TF.GenerationSoftware,Kicad,Pcbnew,(5.1.10)-1
FMAT,2
INCH
T1C0.0157
T2C0.0394
T3C0.0598
T4C0.1083
%
G90
G05
T1
X4.7106Y-4.4114
X4.9291Y-3.1496
X5.2362Y-3.1161
X5.2854Y-3.2539
X5.4882Y-3.1654
X5.7539Y-3.502
X5.7598Y-4.3543
X5.8248Y-3.2205
X5.8878Y-4.5984
X6.3976Y-3.9665
T2
X4.6406Y-2.9224
X4.6406Y-3.0224
X4.7406Y-2.9224
X4.7406Y-3.0224
X4.8406Y-2.9224
X4.8406Y-3.0224
X4.8524Y-4.1941
X4.8524Y-4.2941
X4.8524Y-4.3941
X4.8524Y-4.4941
X4.8917Y-3.2902
X4.8917Y-3.3902
X4.8917Y-3.4902
X4.9406Y-2.9224
X4.9406Y-3.0224
X5.0406Y-2.9224
X5.0406Y-3.0224
X5.1406Y-2.9224
X5.1406Y-3.0224
X5.1614Y-4.1949
X5.1614Y-4.2949
X5.1614Y-4.3949
X5.1614Y-4.4949
X5.187Y-3.2913
X5.187Y-3.3913
X5.187Y-3.4913
X5.2406Y-2.9224
X5.2406Y-3.0224
X5.3406Y-2.9224
X5.3406Y-3.0224
X5.4406Y-2.9224
X5.4406Y-3.0224
X5.5406Y-2.9224
X5.5406Y-3.0224
X5.5453Y-3.2913
X5.5453Y-3.3913
X5.5453Y-3.4913
X5.6406Y-2.9224
X5.6406Y-3.0224
X5.6453Y-3.2913
X5.6453Y-3.3913
X5.6453Y-3.4913
X5.7406Y-2.9224
X5.7406Y-3.0224
X5.8406Y-2.9224
X5.8406Y-3.0224
X5.9406Y-2.9224
X5.9406Y-3.0224
X5.9744Y-3.2921
X5.9744Y-3.3921
X5.9744Y-3.4921
X6.0157Y-4.198
X6.0157Y-4.298
X6.0157Y-4.398
X6.0157Y-4.498
X6.0406Y-2.9224
X6.0406Y-3.0224
X6.1406Y-2.9224
X6.1406Y-3.0224
X6.2406Y-2.9224
X6.2406Y-3.0224
X6.2795Y-3.2933
X6.2795Y-3.3933
X6.2795Y-3.4933
X6.3248Y-4.1988
X6.3248Y-4.2988
X6.3248Y-4.3988
X6.3248Y-4.4988
X6.3406Y-2.9224
X6.3406Y-3.0224
X6.4406Y-2.9224
X6.4406Y-3.0224
X6.5406Y-2.9224
X6.5406Y-3.0224
T3
X4.4724Y-3.2445
X4.4724Y-3.4445
X4.4724Y-3.6445
X4.4724Y-3.8445
X4.4724Y-4.0689
X4.4724Y-4.2689
X4.4724Y-4.4689
X4.4724Y-4.6689
X4.752Y-4.878
X4.952Y-4.878
X5.152Y-4.878
X5.3858Y-3.7913
X5.3917Y-4.878
X5.5858Y-3.7913
X5.5917Y-4.878
X5.7858Y-3.7913
X5.7917Y-4.878
X6.0295Y-4.878
X6.2295Y-4.878
X6.4295Y-4.878
X6.7067Y-3.2465
X6.7067Y-3.4465
X6.7067Y-3.6465
X6.7067Y-3.8465
X6.7067Y-4.0713
X6.7067Y-4.2713
X6.7067Y-4.4713
X6.7067Y-4.6713
T4
X4.4488Y-2.9724
X4.4488Y-4.9016
X6.7323Y-2.9724
X6.7323Y-4.9016
T0
M30
