%TF.GenerationSoftware,KiCad,Pcbnew,(5.1.10)-1*%
%TF.CreationDate,2022-03-08T12:45:46-05:00*%
%TF.ProjectId,PCBProjet,50434250-726f-46a6-9574-2e6b69636164,rev?*%
%TF.SameCoordinates,Original*%
%TF.FileFunction,Legend,Bot*%
%TF.FilePolarity,Positive*%
%FSLAX46Y46*%
G04 Gerber Fmt 4.6, Leading zero omitted, Abs format (unit mm)*
G04 Created by KiCad (PCBNEW (5.1.10)-1) date 2022-03-08 12:45:46*
%MOMM*%
%LPD*%
G01*
G04 APERTURE LIST*
%ADD10C,0.120000*%
%ADD11C,0.150000*%
G04 APERTURE END LIST*
D10*
%TO.C,R1*%
X136477064Y-81235000D02*
X136022936Y-81235000D01*
X136477064Y-79765000D02*
X136022936Y-79765000D01*
%TO.C,R2*%
X136477064Y-84265000D02*
X136022936Y-84265000D01*
X136477064Y-85735000D02*
X136022936Y-85735000D01*
%TO.C,R3*%
X136477064Y-90335000D02*
X136022936Y-90335000D01*
X136477064Y-88865000D02*
X136022936Y-88865000D01*
%TO.C,R1*%
D11*
X136416666Y-79302380D02*
X136750000Y-78826190D01*
X136988095Y-79302380D02*
X136988095Y-78302380D01*
X136607142Y-78302380D01*
X136511904Y-78350000D01*
X136464285Y-78397619D01*
X136416666Y-78492857D01*
X136416666Y-78635714D01*
X136464285Y-78730952D01*
X136511904Y-78778571D01*
X136607142Y-78826190D01*
X136988095Y-78826190D01*
X135464285Y-79302380D02*
X136035714Y-79302380D01*
X135750000Y-79302380D02*
X135750000Y-78302380D01*
X135845238Y-78445238D01*
X135940476Y-78540476D01*
X136035714Y-78588095D01*
%TO.C,R2*%
X136416666Y-83802380D02*
X136750000Y-83326190D01*
X136988095Y-83802380D02*
X136988095Y-82802380D01*
X136607142Y-82802380D01*
X136511904Y-82850000D01*
X136464285Y-82897619D01*
X136416666Y-82992857D01*
X136416666Y-83135714D01*
X136464285Y-83230952D01*
X136511904Y-83278571D01*
X136607142Y-83326190D01*
X136988095Y-83326190D01*
X136035714Y-82897619D02*
X135988095Y-82850000D01*
X135892857Y-82802380D01*
X135654761Y-82802380D01*
X135559523Y-82850000D01*
X135511904Y-82897619D01*
X135464285Y-82992857D01*
X135464285Y-83088095D01*
X135511904Y-83230952D01*
X136083333Y-83802380D01*
X135464285Y-83802380D01*
%TO.C,R3*%
X136416666Y-88402380D02*
X136750000Y-87926190D01*
X136988095Y-88402380D02*
X136988095Y-87402380D01*
X136607142Y-87402380D01*
X136511904Y-87450000D01*
X136464285Y-87497619D01*
X136416666Y-87592857D01*
X136416666Y-87735714D01*
X136464285Y-87830952D01*
X136511904Y-87878571D01*
X136607142Y-87926190D01*
X136988095Y-87926190D01*
X136083333Y-87402380D02*
X135464285Y-87402380D01*
X135797619Y-87783333D01*
X135654761Y-87783333D01*
X135559523Y-87830952D01*
X135511904Y-87878571D01*
X135464285Y-87973809D01*
X135464285Y-88211904D01*
X135511904Y-88307142D01*
X135559523Y-88354761D01*
X135654761Y-88402380D01*
X135940476Y-88402380D01*
X136035714Y-88354761D01*
X136083333Y-88307142D01*
%TD*%
M02*
